<svg width="76" height="76" viewBox="0 0 76 76" fill="none" xmlns="http://www.w3.org/2000/svg">
<path d="M38 76C58.9868 76 76 58.9868 76 38C76 17.0132 58.9868 0 38 0C17.0132 0 0 17.0132 0 38C0 58.9868 17.0132 76 38 76Z" fill="#F9CEC0"/>
<path d="M29.8863 59.0032L12.9404 42.0573C10.835 39.9519 10.835 36.5113 12.9404 34.4059C15.0458 32.3005 18.4863 32.3005 20.5917 34.4059L29.8863 43.7005L55.2025 18.6411C57.3079 16.5356 60.7485 16.5356 62.8539 18.6924C64.9593 20.7978 64.9593 24.2383 62.8025 26.3438L29.8863 59.0032Z" fill="white"/>
</svg>
