<svg width="261" height="253" viewBox="0 0 261 253" fill="none" xmlns="http://www.w3.org/2000/svg">
<g clip-path="url(#clip0)">
<path d="M104.527 245.428C125.533 253.767 148.174 256.974 168.803 246.326C183.771 238.628 196.601 225.029 208.802 208.863C189.808 214.893 165.155 220.538 134.086 234.138C128.3 236.704 122.263 238.628 116.225 240.168C112.326 242.22 108.427 244.016 104.527 245.428Z" fill="#F9CEC0"/>
<path d="M127.422 12.9595C137.485 18.3479 147.925 25.2759 158.993 33.3585C181.634 49.7805 205.785 62.7384 224.275 75.8246C216.854 60.9422 208.678 48.1126 202.514 39.9017C187.924 21.0421 155.975 9.62377 127.422 12.9595Z" fill="#F9CEC0"/>
<path d="M0.128317 132.787C-0.877948 150.107 2.89554 169.223 16.2286 183.849C15.8512 158.446 25.6623 129.58 23.1466 105.973C22.6435 101.226 22.2661 96.351 22.0146 91.3474C22.0146 91.2191 22.0146 91.2191 22.0146 91.0908C21.763 85.8307 21.6372 80.6989 21.763 75.6953C7.29796 91.604 1.51193 108.539 0.128317 132.787Z" fill="#F9CEC0"/>
<path opacity="0.6" d="M21.7622 75.5691C21.6365 80.5726 21.7622 85.7045 22.0138 90.9646C21.7622 85.8328 21.7622 80.5726 22.0138 75.3125C21.888 75.3125 21.888 75.4408 21.7622 75.5691Z" fill="#F2753F"/>
<path d="M22.0135 91.0938C22.265 96.0973 22.6424 100.973 23.1455 105.72C25.6612 129.454 15.8501 158.193 16.2274 183.595C21.6361 189.625 27.7995 195.399 34.3402 200.787C29.3089 181.927 28.3026 160.759 27.0448 143.054C25.7869 126.503 23.0197 108.414 22.0135 91.0938Z" fill="#F9A182"/>
<path d="M16.2285 183.721C16.4801 197.705 19.7504 210.663 29.9389 221.183C36.4796 227.983 45.0328 233.371 54.7181 237.092C44.4039 227.983 38.2406 215.153 34.4671 200.912C27.8006 195.524 21.6372 189.751 16.2285 183.721Z" fill="#F9CEC0"/>
<path d="M116.352 240.172C122.389 238.633 128.427 236.708 134.213 234.142C165.281 220.543 189.935 214.898 208.928 208.868C218.11 196.808 227.041 183.209 236.349 169.994C228.047 178.205 216.978 185.39 202.89 192.831C190.941 198.989 157.357 216.694 147.672 222.339C135.974 229.01 125.785 235.297 116.352 240.172Z" fill="#F9A182"/>
<path d="M253.455 140.357C250.562 151.903 245.027 161.397 236.348 169.865C227.04 183.207 218.11 196.679 208.928 208.738C225.405 203.478 237.606 197.962 245.908 186.415C265.656 158.959 268.8 115.595 240.248 88.3966C235.719 84.0346 230.311 79.9291 224.399 75.6953C224.651 76.0802 224.776 76.5934 225.028 76.9783C249.178 92.1172 259.996 113.928 253.455 140.357Z" fill="#F9CEC0"/>
<path d="M104.025 19.6323C112.83 22.5831 121.509 26.432 130.063 30.6658C144.024 37.7221 156.351 45.5481 168.804 51.7064C184.023 59.1475 198.866 64.6643 211.193 69.9244C216.224 72.1054 220.878 74.5431 225.029 77.109C224.777 76.7241 224.651 76.2109 224.4 75.826C205.91 62.7398 181.759 49.7819 159.118 33.36C148.049 25.2774 137.61 18.3494 127.547 12.9609C119.119 13.9873 111.195 16.1683 104.025 19.6323Z" fill="#F9A182"/>
<path d="M25.0332 50.806C27.4231 42.7233 31.0708 35.4104 36.8568 29.5088C54.8438 10.6493 79.3715 11.5474 103.899 19.7583C111.069 16.166 119.119 13.985 127.295 13.0869C109.685 3.33641 93.2077 -1.41055 76.3527 0.385594C45.4101 3.72129 30.8192 25.0185 25.0332 50.806Z" fill="#F9CEC0"/>
<path d="M25.0332 50.8062C23.2722 58.6322 22.2659 66.9715 22.0144 75.3108C21.7628 80.5709 21.8886 85.831 22.0144 90.9629C22.0144 91.0912 22.0144 91.0912 22.0144 91.2195C23.0206 108.411 25.7879 126.501 27.0457 143.308C28.3035 160.884 29.3098 182.181 34.3411 201.041C38.1146 215.282 44.278 228.111 54.5922 237.22C57.8626 240.043 61.5103 242.481 65.6611 244.533C79.2457 251.076 91.4467 250.307 104.528 245.56C108.427 244.148 112.327 242.352 116.352 240.3C125.785 235.553 135.974 229.138 147.546 222.466C157.231 216.821 190.941 199.117 202.765 192.958C216.978 185.517 228.047 178.204 236.223 170.122C244.902 161.526 250.562 152.032 253.329 140.613C259.87 114.056 249.179 92.3741 224.903 77.3635C220.752 74.7976 216.098 72.3599 211.066 70.1789C198.865 64.9188 183.897 59.402 168.677 51.9609C156.225 45.8026 143.898 37.8483 129.936 30.9203C121.509 26.6865 112.704 22.8376 103.899 19.8868C79.3715 11.6759 54.8438 10.7778 36.8568 29.6373C31.1965 35.4107 27.4231 42.5952 25.0332 50.8062Z" fill="#F2753F"/>
<path d="M21.7622 75.5698C21.6365 80.5733 21.7622 85.7051 22.0138 90.9653C21.7622 85.8334 21.7622 80.5733 22.0138 75.3132C22.3912 66.9739 23.2716 58.763 25.0326 50.8086C22.8943 58.3781 21.888 66.7173 21.7622 75.5698Z" fill="#F2753F"/>
<path d="M63.0159 127.012C63.0159 132.401 58.9909 135.993 53.9595 135.993C48.4251 135.993 44.1484 131.759 44.1484 126.627C44.1484 121.495 48.4251 117.262 53.8337 117.262C56.0978 117.262 58.6135 118.288 60.1229 119.571L57.6072 123.163C56.601 122.265 55.2174 121.624 53.9595 121.624C51.3181 121.624 49.054 123.805 49.054 126.627C49.054 129.193 51.0665 131.631 54.2111 131.631C56.3494 131.631 57.8588 130.605 57.8588 128.937H53.8337V125.344H62.8901C63.0159 125.858 63.0159 126.371 63.0159 127.012Z" fill="white"/>
<path d="M64.5234 126.502C64.5234 121.113 68.6743 117.008 74.083 117.008C79.4916 117.008 83.6425 121.113 83.6425 126.502C83.6425 131.762 79.4916 135.867 73.9572 135.867C68.6743 135.867 64.5234 131.89 64.5234 126.502ZM79.1143 126.502C79.1143 123.679 76.976 121.626 74.2087 121.626C71.4415 121.626 69.3032 123.808 69.3032 126.502C69.3032 129.196 71.4415 131.377 74.2087 131.377C76.976 131.377 79.1143 129.324 79.1143 126.502Z" fill="white"/>
<path d="M99.3674 129.969C99.3674 132.791 97.1033 135.357 93.5814 135.357H86.1602V117.652H91.8204C94.965 117.652 97.3549 119.833 97.3549 122.271C97.3549 124.067 96.097 125.478 95.4681 125.478C97.3549 125.478 99.3674 127.275 99.3674 129.969ZM91.6946 121.758H90.5626V124.58H91.6946C92.7009 124.58 93.4556 124.067 93.4556 123.169C93.4556 122.271 92.7009 121.758 91.6946 121.758ZM94.965 129.456C94.965 128.429 94.2103 127.788 92.9525 127.788H90.6884V131.123H92.9525C93.9587 131.123 94.965 130.61 94.965 129.456Z" fill="white"/>
<path d="M106.034 122.014V124.452H111.569V128.429H106.034V130.995H112.826V135.486H101.506V117.652H112.826V122.014H106.034Z" fill="white"/>
<path d="M124.652 135.486L119.998 127.788V135.486H115.344V117.652H122.01C125.784 117.652 128.551 120.218 128.551 123.426C128.551 125.607 127.293 127.531 125.532 128.301L130.186 135.486H124.652ZM119.998 125.478H121.884C122.891 125.478 123.771 124.837 123.771 123.682C123.771 122.528 122.891 121.886 121.884 121.886H119.998V125.478Z" fill="white"/>
<path d="M146.913 117.647V135.737H145.404L136.347 126.885V135.609H131.693V117.391H133.203L142.133 126.243V117.519H146.913V117.647Z" fill="white"/>
<path d="M161.253 133.428H154.713L153.832 135.48H148.801L156.977 117.391H159.241L167.417 135.48H162.26L161.253 133.428ZM159.744 129.964L157.983 125.73L156.222 129.964H159.744Z" fill="white"/>
<path d="M184.146 117.647V135.737H182.636L173.58 126.885V135.609H168.926V117.391H170.435L179.366 126.243V117.519H184.146V117.647Z" fill="white"/>
<path d="M192.447 122.01H186.535V117.52H199.742L193.831 130.991H199.742V135.481H186.535L192.447 122.01Z" fill="white"/>
<path d="M207.541 122.01H201.629V117.52H214.836L208.924 130.991H214.836V135.481H201.629L207.541 122.01Z" fill="white"/>
<path d="M228.548 133.428H222.007L221.127 135.48H216.096L224.272 117.391H226.536L234.712 135.48H229.554L228.548 133.428ZM227.039 129.964L225.278 125.73L223.517 129.964H227.039Z" fill="white"/>
</g>
<defs>
<clipPath id="clip0">
<rect width="261" height="253" fill="white"/>
</clipPath>
</defs>
</svg>
