<svg width="43" height="43" viewBox="0 0 43 43" fill="none" xmlns="http://www.w3.org/2000/svg">
<path d="M40.9101 41.6143H10.1315C9.74672 41.6143 9.49023 41.3579 9.49023 40.9731V1.21739C9.49023 0.83266 9.74672 0.576172 10.1315 0.576172H35.1391C37.6399 3.07694 39.0505 4.48762 41.5513 6.98839V40.9731C41.5513 41.2937 41.2307 41.6143 40.9101 41.6143Z" fill="#F48C06"/>
<path d="M36.3571 38.4082H9.42578V1.21739C9.42578 0.83266 9.68227 0.576172 10.067 0.576172H35.0746C36.3571 1.85861 36.9983 2.49984 38.2807 3.78228V36.4846C38.2807 37.5105 37.4472 38.4082 36.3571 38.4082Z" fill="white"/>
<path d="M40.9104 42.0641H10.1317C9.49052 42.0641 8.97754 41.5511 8.97754 40.9099V1.1542C8.97754 0.512977 9.49052 0 10.1317 0H35.1394C35.2676 0 35.3959 0.0641221 35.46 0.128244L41.8722 6.54046C41.9363 6.60458 42.0004 6.73283 42.0004 6.86107V40.8458C42.0004 41.5511 41.4875 42.0641 40.9104 42.0641ZM10.1317 1.02595C10.0676 1.02595 10.0035 1.09008 10.0035 1.1542V40.9099C10.0035 40.974 10.0676 41.0382 10.1317 41.0382H40.9104C40.9745 41.0382 41.0386 40.974 41.0386 40.9099V7.18168L34.8829 1.02595H10.1317Z" fill="black"/>
<path d="M35.1387 0.576172L41.5509 6.98839H35.1387V0.576172Z" fill="#F48C06"/>
<path d="M35.1387 0.576172L38.2807 3.78228L35.1387 6.98839V0.576172Z" fill="white"/>
<path d="M41.5512 7.43779H35.139C34.8825 7.43779 34.626 7.24542 34.626 6.92481V0.512595C34.626 0.320229 34.7542 0.127863 34.9466 0.0637406C35.139 -0.000381585 35.3313 -0.000381596 35.4596 0.191985L41.8718 6.6042C42 6.73244 42.0641 6.92481 42 7.11718C41.8718 7.30954 41.7435 7.43779 41.5512 7.43779ZM35.5878 6.47595H40.3328L35.5878 1.73092V6.47595Z" fill="black"/>
<path d="M33.2155 37.7673H17.8262V35.8436C17.8262 34.7535 18.6598 33.9199 19.7498 33.9199H31.2918C32.3819 33.9199 33.2155 34.7535 33.2155 35.8436V37.7673Z" fill="#F48C06"/>
<path d="M29.3037 37.7673H17.7617V35.8436C17.7617 34.7535 18.5953 33.9199 19.6854 33.9199H27.38C28.4701 33.9199 29.3037 34.7535 29.3037 35.8436V37.7673Z" fill="white"/>
<path d="M33.2148 38.217H17.8255C17.569 38.217 17.3125 38.0247 17.3125 37.7041V35.7804C17.3125 34.4338 18.4026 33.3438 19.7491 33.3438H31.2911C32.6377 33.3438 33.7278 34.4338 33.7278 35.7804V37.7041C33.6636 38.0247 33.4713 38.217 33.2148 38.217ZM18.2743 37.2552H32.7018V35.8445C32.7018 35.075 32.0606 34.4338 31.2911 34.4338H19.7491C18.9797 34.4338 18.3385 35.075 18.3385 35.8445V37.2552H18.2743Z" fill="black"/>
<path d="M36.4216 41.6149H14.6201V39.6912C14.6201 38.6012 15.4537 37.7676 16.5438 37.7676H34.498C35.5881 37.7676 36.4216 38.6012 36.4216 39.6912V41.6149Z" fill="#F48C06"/>
<path d="M32.5743 41.6149H14.6201V39.6912C14.6201 38.6012 15.4537 37.7676 16.5438 37.7676H30.6507C31.7407 37.7676 32.5743 38.6012 32.5743 39.6912V41.6149Z" fill="white"/>
<path d="M36.4209 42.0647H14.6194C14.3629 42.0647 14.1064 41.8723 14.1064 41.5517V39.628C14.1064 38.2815 15.1965 37.1914 16.5431 37.1914H34.4973C35.8439 37.1914 36.9339 38.2815 36.9339 39.628V41.5517C36.8698 41.8723 36.6774 42.0647 36.4209 42.0647ZM15.0683 41.1029H35.908V39.6922C35.908 38.9227 35.2668 38.2815 34.4973 38.2815H16.5431C15.7736 38.2815 15.1324 38.9227 15.1324 39.6922V41.1029H15.0683Z" fill="black"/>
<path d="M32.5743 27.8298H18.4674C18.0827 27.8298 17.8262 27.5733 17.8262 27.1885V24.6236C17.8262 24.2389 18.0827 23.9824 18.4674 23.9824H32.5743C32.959 23.9824 33.2155 24.2389 33.2155 24.6236V27.1885C33.2155 27.5091 32.8949 27.8298 32.5743 27.8298Z" fill="#F48C06"/>
<path d="M29.9449 26.5473H17.7617V24.6236C17.7617 24.2389 18.0182 23.9824 18.4029 23.9824H30.5861V25.9061C30.5861 26.2267 30.3297 26.5473 29.9449 26.5473Z" fill="white"/>
<path d="M32.5736 28.2776H18.4667C17.8255 28.2776 17.3125 27.7646 17.3125 27.1234V24.5585C17.3125 23.9173 17.8255 23.4043 18.4667 23.4043H32.5736C33.2148 23.4043 33.7278 23.9173 33.7278 24.5585V27.1234C33.6636 27.7646 33.1507 28.2776 32.5736 28.2776ZM18.4667 24.4303C18.4026 24.4303 18.3385 24.4944 18.3385 24.5585V27.1234C18.3385 27.1875 18.4026 27.2516 18.4667 27.2516H32.5736C32.6377 27.2516 32.7018 27.1875 32.7018 27.1234V24.5585C32.7018 24.4944 32.6377 24.4303 32.5736 24.4303H18.4667Z" fill="black"/>
<path d="M31.292 12.375H19.75V23.917H31.292V12.375Z" fill="#F48C06"/>
<path d="M28.0214 22.0578H19.6855V12.4395H28.6626V21.4166C28.6626 21.7372 28.4062 22.0578 28.0214 22.0578Z" fill="white"/>
<path d="M31.2913 24.4312H19.7493C19.4928 24.4312 19.2363 24.2389 19.2363 23.9182V12.3763C19.2363 12.1198 19.4287 11.8633 19.7493 11.8633H31.2913C31.5478 11.8633 31.8043 12.0556 31.8043 12.3763V23.9182C31.7401 24.2389 31.5478 24.4312 31.2913 24.4312ZM20.1982 23.4694H30.7783V12.8892H20.1982V23.4694Z" fill="black"/>
<path d="M32.5743 12.3766H18.4674C18.0827 12.3766 17.8262 12.1201 17.8262 11.7354V9.17052C17.8262 8.78579 18.0827 8.5293 18.4674 8.5293H32.5743C32.959 8.5293 33.2155 8.78579 33.2155 9.17052V11.7354C33.2155 12.1201 32.8949 12.3766 32.5743 12.3766Z" fill="#F48C06"/>
<path d="M29.9449 11.0942H17.7617V9.17052C17.7617 8.78579 18.0182 8.5293 18.4029 8.5293H30.5861V10.453C30.5861 10.8377 30.3297 11.0942 29.9449 11.0942Z" fill="white"/>
<path d="M32.5736 12.8889H18.4667C17.8255 12.8889 17.3125 12.3759 17.3125 11.7347V9.16982C17.3125 8.5286 17.8255 8.01562 18.4667 8.01562H32.5736C33.2148 8.01562 33.7278 8.5286 33.7278 9.16982V11.7347C33.6636 12.3759 33.1507 12.8889 32.5736 12.8889ZM18.4667 9.04158C18.4026 9.04158 18.3385 9.1057 18.3385 9.16982V11.7347C18.3385 11.7988 18.4026 11.863 18.4667 11.863H32.5736C32.6377 11.863 32.7018 11.7988 32.7018 11.7347V9.16982C32.7018 9.1057 32.6377 9.04158 32.5736 9.04158H18.4667Z" fill="black"/>
<path d="M19.6854 16.2227H14.5557V20.07H19.6854V16.2227Z" fill="#E8703A"/>
<path d="M17.1205 18.7875H14.5557V16.2227H17.7618V18.1463C17.7618 18.5311 17.5053 18.7875 17.1205 18.7875Z" fill="white"/>
<path d="M19.7492 20.5823H14.6194C14.3629 20.5823 14.1064 20.3899 14.1064 20.0693V16.222C14.1064 15.9655 14.2988 15.709 14.6194 15.709H19.7492C20.0057 15.709 20.2622 15.9014 20.2622 16.222V20.0693C20.198 20.3899 20.0057 20.5823 19.7492 20.5823ZM15.0683 19.6204H19.2362V16.7349H15.0683V19.6204Z" fill="black"/>
<path d="M13.9149 14.9414H1.09044C0.705707 14.9414 0.449219 15.1979 0.449219 15.5826V20.7124C0.449219 21.0971 0.705707 21.3536 1.09044 21.3536H13.9149C14.2996 21.3536 14.5561 21.0971 14.5561 20.7124V15.5826C14.5561 15.262 14.2996 14.9414 13.9149 14.9414Z" fill="#F48C06"/>
<path d="M11.9912 14.9414H1.09044C0.705707 14.9414 0.449219 15.1979 0.449219 15.5826V18.7887H11.35C11.7347 18.7887 11.9912 18.5322 11.9912 18.1475V14.9414Z" fill="white"/>
<path d="M13.9786 21.8659H1.1542C0.512977 21.8659 0 21.3529 0 20.7117V15.5819C0 14.9407 0.512977 14.4277 1.1542 14.4277H13.9786C14.6198 14.4277 15.1328 14.9407 15.1328 15.5819V20.7117C15.0687 21.3529 14.5557 21.8659 13.9786 21.8659ZM1.1542 15.4537C1.09008 15.4537 1.02595 15.5178 1.02595 15.5819V20.7117C1.02595 20.7758 1.09008 20.84 1.1542 20.84H13.9786C14.0427 20.84 14.1069 20.7758 14.1069 20.7117V15.5819C14.1069 15.5178 14.0427 15.4537 13.9786 15.4537H1.1542Z" fill="black"/>
<path d="M1.73166 41.6157C2.43993 41.6157 3.0141 41.0415 3.0141 40.3332C3.0141 39.6249 2.43993 39.0508 1.73166 39.0508C1.02339 39.0508 0.449219 39.6249 0.449219 40.3332C0.449219 41.0415 1.02339 41.6157 1.73166 41.6157Z" fill="white"/>
<path d="M1.79542 42.0638C0.833588 42.0638 0 41.2944 0 40.2684C0 39.2425 0.769466 38.5371 1.79542 38.5371C2.82137 38.5371 3.59084 39.3066 3.59084 40.3325C3.59084 41.3585 2.75725 42.0638 1.79542 42.0638ZM1.79542 39.4989C1.34656 39.4989 1.02595 39.8837 1.02595 40.2684C1.02595 40.7173 1.41069 41.0379 1.79542 41.0379C2.18015 41.102 2.56489 40.7173 2.56489 40.3325C2.56489 39.8837 2.18015 39.4989 1.79542 39.4989Z" fill="#F48C06"/>
<path d="M5.64279 36.4848C6.35107 36.4848 6.92524 35.9106 6.92524 35.2024C6.92524 34.4941 6.35107 33.9199 5.64279 33.9199C4.93452 33.9199 4.36035 34.4941 4.36035 35.2024C4.36035 35.9106 4.93452 36.4848 5.64279 36.4848Z" fill="white"/>
<path d="M5.64226 36.9349C4.68043 36.9349 3.91096 36.1655 3.91096 35.1395C3.84684 34.1777 4.6163 33.4082 5.64226 33.4082C6.66821 33.4082 7.43768 34.1777 7.43768 35.2036C7.37356 36.1655 6.60409 36.9349 5.64226 36.9349ZM5.64226 34.37C5.1934 34.37 4.87279 34.7548 4.87279 35.1395C4.87279 35.5884 5.25752 35.909 5.64226 35.909C6.09111 35.909 6.41172 35.5242 6.41172 35.1395C6.41172 34.7548 6.02699 34.37 5.64226 34.37Z" fill="black"/>
<path d="M3.07834 27.4438C3.78662 27.4438 4.36078 26.8696 4.36078 26.1613C4.36078 25.4531 3.78662 24.8789 3.07834 24.8789C2.37007 24.8789 1.7959 25.4531 1.7959 26.1613C1.7959 26.8696 2.37007 27.4438 3.07834 27.4438Z" fill="white"/>
<path d="M3.07765 27.9564C2.11581 27.9564 1.28223 27.1869 1.28223 26.161C1.28223 25.135 2.05169 24.4297 3.07765 24.4297C4.1036 24.4297 4.87307 25.1992 4.87307 26.2251C4.87307 27.2511 4.03948 27.9564 3.07765 27.9564ZM3.07765 25.3915C2.62879 25.3915 2.30818 25.7763 2.30818 26.161C2.30818 26.6098 2.69291 26.9305 3.07765 26.9305C3.46238 26.9946 3.84711 26.6098 3.84711 26.161C3.84711 25.7763 3.46238 25.3915 3.07765 25.3915Z" fill="black"/>
<path d="M5.64279 11.4145C6.35107 11.4145 6.92524 10.8403 6.92524 10.1321C6.92524 9.42378 6.35107 8.84961 5.64279 8.84961C4.93452 8.84961 4.36035 9.42378 4.36035 10.1321C4.36035 10.8403 4.93452 11.4145 5.64279 11.4145Z" fill="white"/>
<path d="M5.64243 11.9271C4.6806 11.9271 3.91113 11.1576 3.91113 10.1958C3.91113 9.23398 4.61648 8.40039 5.64243 8.40039C6.66839 8.40039 7.43785 9.16986 7.43785 10.1958C7.43785 11.2218 6.60426 11.9271 5.64243 11.9271ZM5.64243 9.36222C5.19358 9.36222 4.87296 9.74696 4.87296 10.1317C4.87296 10.5805 5.2577 10.9012 5.64243 10.9012C6.09129 10.9012 6.4119 10.5164 6.4119 10.1317C6.4119 9.74696 6.02716 9.36222 5.64243 9.36222Z" fill="#F48C06"/>
<path d="M3.07834 4.35981C3.78662 4.35981 4.36078 3.78564 4.36078 3.07736C4.36078 2.36909 3.78662 1.79492 3.07834 1.79492C2.37007 1.79492 1.7959 2.36909 1.7959 3.07736C1.7959 3.78564 2.37007 4.35981 3.07834 4.35981Z" fill="white"/>
<path d="M3.07765 4.87437C2.05169 4.87437 1.28223 4.10491 1.28223 3.07895C1.28223 2.053 2.05169 1.34766 3.07765 1.34766C4.1036 1.34766 4.87307 2.11712 4.87307 3.14308C4.87307 4.16903 4.03948 4.87437 3.07765 4.87437ZM3.07765 2.30949C2.62879 2.30949 2.30818 2.69422 2.30818 3.14308C2.24406 3.52781 2.62879 3.91254 3.07765 3.91254C3.46238 3.91254 3.84711 3.52781 3.84711 3.07895C3.84711 2.69422 3.46238 2.30949 3.07765 2.30949Z" fill="black"/>
</svg>
