<svg width="43" height="43" viewBox="0 0 43 43" fill="none" xmlns="http://www.w3.org/2000/svg">
<path d="M21.4676 42.5407C33.0698 42.5407 42.4752 33.1352 42.4752 21.533C42.4752 9.93083 33.0698 0.525391 21.4676 0.525391C9.8654 0.525391 0.459961 9.93083 0.459961 21.533C0.459961 33.1352 9.8654 42.5407 21.4676 42.5407Z" fill="white"/>
<path d="M19.4974 4.46432C31.1173 4.46432 40.5051 13.8521 40.5051 25.472C40.5051 28.0323 40.0455 30.5269 39.1921 32.8246C41.2929 29.5422 42.4745 25.6689 42.4745 21.533C42.4745 9.91318 33.0867 0.525391 21.4669 0.525391C12.473 0.525391 4.79209 6.17119 1.83789 14.1804C5.51423 8.3376 12.0791 4.46432 19.4974 4.46432Z" fill="#F48C06"/>
<path d="M21.5328 43C9.65038 43 0 33.3496 0 21.5328C0 9.71603 9.65038 0 21.5328 0C33.4153 0 43.0656 9.65038 43.0656 21.5328C43.0656 33.4153 33.3496 43 21.5328 43ZM21.5328 0.984733C10.2412 0.984733 1.05038 10.1756 1.05038 21.4672C0.984733 32.8244 10.1756 42.0153 21.5328 42.0153C32.8244 42.0153 42.0153 32.8244 42.0153 21.5328C42.0153 10.1756 32.8244 0.984733 21.5328 0.984733Z" fill="black"/>
<path d="M21.4671 5.77734L4.39844 19.7605L21.4671 33.8094L38.5358 19.7605L21.4671 5.77734Z" fill="#F48C06"/>
<path d="M11.2916 14.1152L4.39844 19.761L21.4671 33.8099L38.5358 19.761L11.2916 14.1152Z" fill="white"/>
<path d="M21.4667 34.2684C21.3354 34.2684 21.2698 34.2027 21.1385 34.1371L4.06977 20.0882C4.00413 20.0882 3.93848 19.8913 3.93848 19.76C3.93848 19.6287 4.00413 19.4974 4.13542 19.3661L21.2041 5.31722C21.4011 5.18593 21.6637 5.18593 21.8606 5.31722L38.9293 19.3661C39.0606 19.4317 39.1263 19.6287 39.1263 19.76C39.1263 19.8913 39.0606 20.0226 38.9293 20.1539L21.8606 34.2027C21.7293 34.2684 21.598 34.2684 21.4667 34.2684ZM5.1858 19.76L21.4667 33.1523L37.7476 19.76L21.4667 6.3676L5.1858 19.76Z" fill="black"/>
<path d="M33.6123 9.71484H9.32227V38.6003H33.6123V9.71484Z" fill="#F48C06"/>
<path d="M33.6123 38.6003H9.32227V9.71484H29.0169L33.6123 38.6003Z" fill="white"/>
<path d="M33.6121 39.0609H9.32207C9.05947 39.0609 8.79688 38.8639 8.79688 38.5357V9.65019C8.79688 9.3876 8.99382 9.125 9.32207 9.125H33.6121C33.8747 9.125 34.1373 9.32195 34.1373 9.65019V38.5357C34.1373 38.8639 33.9404 39.0609 33.6121 39.0609ZM9.84726 38.0761H33.1526V10.1754H9.84726V38.0761Z" fill="black"/>
<path d="M30.0012 14.1148H23.4363C23.1737 14.1148 22.9111 13.9179 22.9111 13.5896C22.9111 13.327 23.1081 13.0645 23.4363 13.0645H30.0012C30.2638 13.0645 30.5264 13.2614 30.5264 13.5896C30.5264 13.9179 30.3295 14.1148 30.0012 14.1148Z" fill="black"/>
<path d="M30.0017 17.3961H24.7498C24.4872 17.3961 24.2246 17.1991 24.2246 16.8709C24.2246 16.6083 24.4216 16.3457 24.7498 16.3457H30.0017C30.2643 16.3457 30.5269 16.5427 30.5269 16.8709C30.5269 17.1991 30.33 17.3961 30.0017 17.3961Z" fill="black"/>
<path d="M30.0017 20.6793H24.7498C24.4872 20.6793 24.2246 20.4823 24.2246 20.1541C24.2246 19.8915 24.4216 19.6289 24.7498 19.6289H30.0017C30.2643 19.6289 30.5269 19.8259 30.5269 20.1541C30.5269 20.4823 30.33 20.6793 30.0017 20.6793Z" fill="black"/>
<path d="M30.0012 23.9625H23.4363C23.1737 23.9625 22.9111 23.7655 22.9111 23.4373C22.9111 23.1747 23.1081 22.9121 23.4363 22.9121H30.0012C30.2638 22.9121 30.5264 23.1091 30.5264 23.4373C30.5264 23.7655 30.3295 23.9625 30.0012 23.9625Z" fill="black"/>
<path d="M26.3911 27.2437H16.5437C16.2812 27.2437 16.0186 27.0468 16.0186 26.7186C16.0186 26.3903 16.2155 26.1934 16.5437 26.1934H26.3911C26.6537 26.1934 26.9163 26.3903 26.9163 26.7186C26.9163 27.0468 26.7193 27.2437 26.3911 27.2437Z" fill="black"/>
<path d="M12.9326 18.578L14.8364 17.265L14.3769 15.0329L16.609 15.4925L17.8563 13.6543L19.1693 15.4925L21.3357 15.0329L20.9418 17.265L22.7799 18.578L20.9418 19.8253L21.3357 22.0573L19.1693 21.5978L17.8563 23.5016L16.609 21.5978L14.3769 22.0573L14.8364 19.8253L12.9326 18.578Z" fill="white"/>
<path d="M16.6093 15.4925L15.7559 15.3612L16.9375 17.1337C17.0688 17.3306 17.3314 17.4619 17.594 17.3963L18.907 17.1337C19.1696 17.068 19.3665 17.265 19.3009 17.5276L19.0383 18.8406C18.9727 19.1032 19.104 19.3657 19.3009 19.497L21.0734 20.6787L20.8765 19.8253L22.7803 18.578L20.8765 17.3306L21.336 15.0986L19.104 15.5581L17.8566 13.6543L16.6093 15.4925Z" fill="#F48C06"/>
<path d="M17.8568 23.9617C17.6599 23.9617 17.5286 23.8961 17.4629 23.7648L16.4126 22.1236L14.5087 22.5175C14.3774 22.5175 14.1805 22.5175 14.0492 22.3862C13.9179 22.2549 13.8523 22.1236 13.9179 21.9266L14.3118 20.0228L12.6706 18.9724C12.5393 18.9068 12.4736 18.7098 12.4736 18.5785C12.4736 18.3816 12.5393 18.2503 12.6706 18.1846L14.3118 17.1342L13.9179 15.2304C13.9179 15.0991 13.9179 14.9022 14.0492 14.7709C14.1805 14.6396 14.3118 14.5739 14.5087 14.6396L16.4126 15.0335L17.4629 13.3923C17.6599 13.1297 18.1194 13.1297 18.2507 13.3923L19.3011 15.0335L21.2049 14.6396C21.3362 14.6396 21.5332 14.6396 21.6645 14.7709C21.7958 14.9022 21.8614 15.0335 21.7958 15.2304L21.4675 17.0686L23.1087 18.119C23.24 18.1846 23.3057 18.3816 23.3057 18.5129C23.3057 18.7098 23.24 18.8411 23.1087 18.9068L21.4675 19.9571L21.8614 21.861C21.8614 21.9923 21.8614 22.1892 21.7301 22.3205C21.5988 22.4518 21.4675 22.5175 21.2706 22.4518L19.3668 22.0579L18.3164 23.6991C18.1851 23.8961 18.0538 23.9617 17.8568 23.9617ZM16.6095 21.0732C16.7408 21.0732 16.9378 21.1388 17.0034 21.2701L17.8568 22.5175L18.7103 21.2701C18.8416 21.0732 19.0385 21.0075 19.2355 21.0732L20.7454 21.4014L20.4171 19.8915C20.3515 19.6945 20.4828 19.4976 20.6141 19.3663L21.8614 18.5129L20.6141 17.7251C20.4171 17.5938 20.3515 17.3968 20.4171 17.1999L20.7454 15.69L19.2355 16.0182C19.0385 16.0839 18.8416 15.9526 18.7103 15.8213L17.8568 14.5739L17.0691 15.7556C16.9378 15.9526 16.7408 16.0182 16.5439 15.9526L15.0339 15.6243L15.3622 17.1342C15.4278 17.3312 15.2965 17.5281 15.1652 17.6594L13.9179 18.5129L15.1652 19.3663C15.3622 19.4976 15.4278 19.6945 15.3622 19.8915L15.0339 21.4014L16.5439 21.0732H16.6095Z" fill="black"/>
<path d="M4.39844 19.7598V38.601L15.887 29.1476L4.39844 19.7598Z" fill="#F48C06"/>
<path d="M4.39844 24.1582V38.6009L15.887 29.1475L4.39844 24.1582Z" fill="white"/>
<path d="M4.39802 39.0612C4.33237 39.0612 4.26672 39.0612 4.20107 38.9956C4.06977 38.9299 3.93848 38.733 3.93848 38.6017V19.7605C3.93848 19.5635 4.06977 19.3666 4.20107 19.3009C4.39802 19.2353 4.59497 19.2353 4.72626 19.3666L16.1492 28.7544C16.2805 28.82 16.3461 29.017 16.3461 29.1483C16.3461 29.2796 16.2805 29.4109 16.1492 29.5422L4.72626 38.9299C4.66061 38.9956 4.52932 39.0612 4.39802 39.0612ZM4.92321 20.8109V37.5513L15.0988 29.1483L4.92321 20.8109Z" fill="black"/>
<path d="M27.1133 29.1476L38.5362 38.601V19.7598L27.1133 29.1476Z" fill="#F48C06"/>
<path d="M27.1133 29.1493L38.5362 38.6027L35.3194 22.4531L27.1133 29.1493Z" fill="white"/>
<path d="M38.536 39.0612C38.4047 39.0612 38.339 38.9956 38.2077 38.9299L26.7848 29.5422C26.6535 29.4765 26.5879 29.2796 26.5879 29.1483C26.5879 29.017 26.6535 28.8857 26.7848 28.7544L38.2077 19.3666C38.339 19.2353 38.536 19.2353 38.7329 19.3009C38.9299 19.3666 38.9955 19.5635 38.9955 19.7605V38.5361C38.9955 38.733 38.8642 38.9299 38.7329 38.9956C38.7329 39.0612 38.6673 39.0612 38.536 39.0612ZM27.9009 29.1483L38.0764 37.5513V20.8109L27.9009 29.1483Z" fill="black"/>
<path d="M21.4671 33.8095L15.887 29.1484L4.39844 38.6019H38.5358L27.1129 29.1484L21.4671 33.8095Z" fill="#F48C06"/>
<path d="M21.4671 33.8092L13.6549 30.9863L4.39844 38.6016H38.5358L24.29 31.5115L21.4671 33.8092Z" fill="white"/>
<path d="M38.5358 39.0604H4.39838C4.20144 39.0604 4.00449 38.9291 3.93884 38.7322C3.87319 38.5352 3.93884 38.3383 4.07014 38.207L15.493 28.8192C15.69 28.6879 15.9526 28.6879 16.1495 28.8192L21.4671 33.2176L26.7846 28.8192C26.9816 28.6879 27.2442 28.6879 27.4411 28.8192L38.864 38.207C38.9953 38.3383 39.061 38.5352 38.9953 38.7322C38.9297 38.9291 38.7984 39.0604 38.5358 39.0604ZM5.77701 38.0757H37.1572L27.1129 29.8039L21.7953 34.2024C21.5984 34.3337 21.3358 34.3337 21.1388 34.2024L15.8213 29.8039L5.77701 38.0757Z" fill="black"/>
<path d="M36.6323 3.15134C37.3575 3.15134 37.9453 2.5635 37.9453 1.83837C37.9453 1.11323 37.3575 0.525391 36.6323 0.525391C35.9072 0.525391 35.3193 1.11323 35.3193 1.83837C35.3193 2.5635 35.9072 3.15134 36.6323 3.15134Z" fill="white"/>
<path d="M36.6321 3.61069C35.6474 3.61069 34.7939 2.8229 34.7939 1.77252C34.7939 0.787786 35.5817 0 36.6321 0C37.6825 0 38.4703 0.787786 38.4703 1.83817C38.4046 2.8229 37.6168 3.61069 36.6321 3.61069ZM36.6321 0.984733C36.1726 0.984733 35.8443 1.37863 35.8443 1.77252C35.8443 2.23206 36.2382 2.56031 36.6321 2.56031C37.026 2.62595 37.4199 2.23206 37.4199 1.83817C37.4199 1.37863 37.026 0.984733 36.6321 0.984733Z" fill="black"/>
<path d="M3.74169 5.12009C4.46683 5.12009 5.05466 4.53226 5.05466 3.80712C5.05466 3.08198 4.46683 2.49414 3.74169 2.49414C3.01655 2.49414 2.42871 3.08198 2.42871 3.80712C2.42871 4.53226 3.01655 5.12009 3.74169 5.12009Z" fill="white"/>
<path d="M3.74225 5.57944C2.75751 5.57944 1.96973 4.79165 1.96973 3.80692C1.96973 2.75654 2.75751 1.96875 3.74225 1.96875C4.72698 1.96875 5.51476 2.75654 5.51476 3.80692C5.58041 4.79165 4.79263 5.57944 3.74225 5.57944ZM3.74225 2.95348C3.2827 2.95348 2.95446 3.34738 2.95446 3.74127C2.95446 4.20081 3.34835 4.5947 3.74225 4.5947C4.20179 4.5947 4.59568 4.20081 4.59568 3.80692C4.59568 3.34738 4.20179 2.95348 3.74225 2.95348Z" fill="black"/>
<path d="M41.228 7.08885C41.9532 7.08885 42.541 6.50101 42.541 5.77587C42.541 5.05073 41.9532 4.46289 41.228 4.46289C40.5029 4.46289 39.915 5.05073 39.915 5.77587C39.915 6.50101 40.5029 7.08885 41.228 7.08885Z" fill="white"/>
<path d="M41.2278 7.55014C40.2431 7.55014 39.3896 6.76235 39.3896 5.71197C39.3896 4.66159 40.1774 3.93945 41.2278 3.93945C42.2125 3.93945 43.066 4.72724 43.066 5.77762C43.066 6.828 42.2125 7.55014 41.2278 7.55014ZM41.2278 4.92419C40.7683 4.92419 40.44 5.31808 40.44 5.71197C40.44 6.17151 40.8339 6.49976 41.2278 6.49976C41.6874 6.49976 42.0156 6.10587 42.0156 5.71197C42.0156 5.31808 41.6217 4.92419 41.2278 4.92419Z" fill="black"/>
</svg>
