<svg width="44" height="44" viewBox="0 0 44 44" fill="none" xmlns="http://www.w3.org/2000/svg">
<path d="M32.6933 38.6408H1.18188C0.787986 38.6408 0.525391 38.3782 0.525391 37.9843V1.22094C0.525391 0.827048 0.787986 0.564453 1.18188 0.564453H26.7849C29.3452 3.12476 30.7895 4.56903 33.3498 7.12934V37.9843C33.3498 38.3125 33.0216 38.6408 32.6933 38.6408Z" fill="#F48C06"/>
<path d="M26.7195 35.3583H0.459961V1.22094C0.459961 0.827049 0.722556 0.564453 1.11645 0.564453H26.7195C28.0325 1.87743 28.689 2.53392 30.0019 3.8469V32.0759C30.0019 33.8484 28.5577 35.3583 26.7195 35.3583Z" fill="white"/>
<path d="M32.6931 39.1001H1.18168C0.525191 39.1001 0 38.5749 0 37.9185V1.15509C0 0.564253 0.525191 0.0390625 1.18168 0.0390625H26.7847C26.916 0.0390625 27.0473 0.104711 27.113 0.17036L33.6779 6.73525C33.7435 6.80089 33.8092 6.93219 33.8092 7.06349V37.9185C33.8092 38.5749 33.284 39.1001 32.6931 39.1001ZM1.18168 1.0238C1.11603 1.0238 1.05038 1.08944 1.05038 1.15509V37.9185C1.05038 37.9841 1.11603 38.0498 1.18168 38.0498H32.6931C32.7588 38.0498 32.8244 37.9841 32.8244 37.9185V7.32609L26.5221 1.0238H1.18168Z" fill="black"/>
<path d="M26.7852 0.564453L33.35 7.12934H26.7852V0.564453Z" fill="#F48C06"/>
<path d="M26.7852 0.564453L30.002 3.8469L26.7852 7.12934V0.564453Z" fill="white"/>
<path d="M33.3498 7.58888H26.785C26.5224 7.58888 26.2598 7.39193 26.2598 7.06369V0.498805C26.2598 0.301858 26.3911 0.104912 26.588 0.039263C26.785 -0.0263858 26.9819 -0.0263858 27.1132 0.170561L33.6781 6.73545C33.8094 6.86674 33.875 7.06369 33.8094 7.26064C33.6781 7.45758 33.5468 7.58888 33.3498 7.58888ZM27.2445 6.60415H32.1025L27.2445 1.74613V6.60415Z" fill="black"/>
<path d="M42.54 35.3594L39.914 42.5808L37.2881 35.3594H42.54Z" fill="#F48C06"/>
<path d="M39.914 35.3594V42.5808L37.2881 35.3594H39.914Z" fill="white"/>
<path d="M39.9144 43.0381C39.7175 43.0381 39.5206 42.9068 39.4549 42.7099L36.829 35.4885C36.7633 35.3572 36.829 35.1603 36.8946 35.029C36.9602 34.8977 37.1572 34.832 37.2885 34.832H42.5404C42.6717 34.832 42.8686 34.8977 42.9343 35.029C42.9999 35.1603 43.0656 35.3572 42.9999 35.4885L40.374 42.7099C40.2427 42.9068 40.1114 43.0381 39.9144 43.0381ZM37.945 35.8168L39.8488 41.1343L41.7526 35.8168H37.945Z" fill="black"/>
<path d="M41.8842 3.8469H37.9453V1.87743C37.9453 1.15529 38.5362 0.564453 39.2583 0.564453H40.5713C41.2934 0.564453 41.8842 1.15529 41.8842 1.87743V3.8469Z" fill="white"/>
<path d="M41.884 4.30624H37.9451C37.6825 4.30624 37.4199 4.10929 37.4199 3.78105V1.81158C37.4199 0.826849 38.2077 0.0390625 39.2581 0.0390625H40.5711C41.5558 0.0390625 42.4092 0.826849 42.4092 1.87723V3.8467C42.3436 4.10929 42.1466 4.30624 41.884 4.30624ZM38.4047 3.32151H41.3589V1.87723C41.3589 1.41769 40.965 1.08944 40.5711 1.08944H39.2581C38.7985 1.08944 38.4703 1.48334 38.4703 1.87723V3.32151H38.4047Z" fill="black"/>
<path d="M42.54 23.541H37.2881V35.3578H42.54V23.541Z" fill="#F48C06"/>
<path d="M39.2576 32.7319H37.2881V23.541H39.914V32.0754C39.914 32.4036 39.5858 32.7319 39.2576 32.7319Z" fill="white"/>
<path d="M42.5408 35.8183H37.2889C37.0263 35.8183 36.7637 35.6214 36.7637 35.2932V23.4764C36.7637 23.2138 36.9606 22.9512 37.2889 22.9512H42.5408C42.8034 22.9512 43.066 23.1481 43.066 23.4764V35.2932C43.0003 35.6214 42.8034 35.8183 42.5408 35.8183ZM37.7484 34.8336H42.0156V24.0016H37.7484V34.8336Z" fill="black"/>
<path d="M42.54 3.84766H37.2881V23.5423H42.54V3.84766Z" fill="#F48C06"/>
<path d="M39.2576 20.9164H37.2881V3.84766H39.914V20.2599C39.914 20.5881 39.5858 20.9164 39.2576 20.9164Z" fill="white"/>
<path d="M42.5408 24.0017H37.2889C37.0263 24.0017 36.7637 23.8047 36.7637 23.4765V3.78181C36.7637 3.51921 36.9606 3.32227 37.2889 3.32227H42.5408C42.8034 3.32227 43.066 3.51921 43.066 3.84746V23.5421C43.0003 23.8047 42.8034 24.0017 42.5408 24.0017ZM37.7484 23.0169H42.0156V4.307H37.7484V23.0169Z" fill="black"/>
<path d="M39.9148 15.4673C39.6522 15.4673 39.3896 15.2704 39.3896 14.9421V3.78181C39.3896 3.51921 39.5866 3.32227 39.9148 3.32227C40.1774 3.32227 40.44 3.51921 40.44 3.84746V15.0078C40.3744 15.2704 40.1774 15.4673 39.9148 15.4673Z" fill="black"/>
<path d="M16.281 41.7262H7.22148C6.95888 41.7262 6.69629 41.5292 6.69629 41.201C6.69629 40.9384 6.89324 40.6758 7.22148 40.6758H16.281C16.5436 40.6758 16.8062 40.8727 16.8062 41.201C16.7406 41.5292 16.5436 41.7262 16.281 41.7262Z" fill="black"/>
<path d="M4.59544 41.7269H3.15117C2.88857 41.7269 2.62598 41.53 2.62598 41.2017C2.62598 40.9391 2.82292 40.7422 3.15117 40.7422H4.59544C4.85804 40.7422 5.12063 40.9391 5.12063 41.2674C5.05498 41.53 4.85804 41.7269 4.59544 41.7269Z" fill="black"/>
<path d="M10.9636 30.5648H5.71171C5.44912 30.5648 5.18652 30.3679 5.18652 30.0396C5.25217 29.777 5.44912 29.5801 5.77736 29.5801H11.0293C11.2919 29.5801 11.5545 29.777 11.5545 30.1053C11.4888 30.3679 11.2919 30.5648 10.9636 30.5648Z" fill="black"/>
<path d="M13.5896 33.848H5.71171C5.44912 33.848 5.18652 33.6511 5.18652 33.3228C5.25217 33.0602 5.44912 32.8633 5.77736 32.8633H13.6552C13.9178 32.8633 14.1804 33.0602 14.1804 33.3885C14.1148 33.6511 13.9178 33.848 13.5896 33.848Z" fill="black"/>
<path d="M28.0974 10.8707H20.2195C19.9569 10.8707 19.6943 10.6737 19.6943 10.3455C19.6943 10.0829 19.8913 9.82031 20.2195 9.82031H28.0974C28.36 9.82031 28.6226 10.0173 28.6226 10.3455C28.5569 10.6737 28.36 10.8707 28.0974 10.8707Z" fill="black"/>
<path d="M16.9374 10.8715H5.77714C5.51455 10.8715 5.25195 10.6745 5.25195 10.3463C5.25195 10.0837 5.4489 9.88672 5.77714 9.88672H16.9374C17.2 9.88672 17.4626 10.0837 17.4626 10.4119C17.397 10.6745 17.2 10.8715 16.9374 10.8715Z" fill="black"/>
<path d="M28.0973 14.1539H14.9676C14.705 14.1539 14.4424 13.957 14.4424 13.6287C14.4424 13.3661 14.6393 13.1035 14.9676 13.1035H28.0973C28.3599 13.1035 28.6225 13.3005 28.6225 13.6287C28.5569 13.957 28.3599 14.1539 28.0973 14.1539Z" fill="black"/>
<path d="M11.6855 14.1527H5.77714C5.51455 14.1527 5.25195 13.9558 5.25195 13.6275C5.25195 13.3649 5.4489 13.168 5.77714 13.168H11.6855C11.9481 13.168 12.2107 13.3649 12.2107 13.6932C12.1451 13.9558 11.9481 14.1527 11.6855 14.1527Z" fill="black"/>
<path d="M28.0979 17.4371H21.533C21.2704 17.4371 21.0078 17.2402 21.0078 16.9119C21.0078 16.5837 21.2048 16.3867 21.533 16.3867H28.0979C28.3605 16.3867 28.6231 16.5837 28.6231 16.9119C28.6231 17.2402 28.3605 17.4371 28.0979 17.4371Z" fill="black"/>
<path d="M18.2504 17.4359H5.77714C5.51455 17.4359 5.25195 17.239 5.25195 16.9107C5.25195 16.5825 5.4489 16.4512 5.77714 16.4512H18.2504C18.513 16.4512 18.7756 16.6481 18.7756 16.9764C18.7756 17.3046 18.513 17.4359 18.2504 17.4359Z" fill="black"/>
<path d="M28.0978 20.7183H16.281C16.0185 20.7183 15.7559 20.5214 15.7559 20.1932C15.7559 19.9306 15.9528 19.668 16.281 19.668H28.0978C28.3604 19.668 28.623 19.8649 28.623 20.1932C28.5574 20.5214 28.3604 20.7183 28.0978 20.7183Z" fill="black"/>
<path d="M12.9985 20.7191H5.77714C5.51455 20.7191 5.25195 20.5222 5.25195 20.1939C5.25195 19.9313 5.4489 19.7344 5.77714 19.7344H12.9985C13.2611 19.7344 13.5237 19.9313 13.5237 20.2596C13.4581 20.5222 13.2611 20.7191 12.9985 20.7191Z" fill="black"/>
<path d="M19.498 24.0004H5.71171C5.44912 24.0004 5.18652 23.8034 5.18652 23.4752C5.25217 23.2126 5.44912 23.0156 5.77736 23.0156H19.5636C19.8262 23.0156 20.0888 23.2126 20.0888 23.5408C20.0232 23.8034 19.8262 24.0004 19.498 24.0004Z" fill="black"/>
<path d="M21.5324 7.58944H12.3416C12.079 7.58944 11.8164 7.3925 11.8164 7.06425C11.8164 6.80166 12.0134 6.53906 12.3416 6.53906H21.5324C21.795 6.53906 22.0576 6.73601 22.0576 7.06425C21.992 7.3925 21.795 7.58944 21.5324 7.58944Z" fill="black"/>
<path d="M28.0317 42.5798L24.7492 40.6103L21.4668 42.5798V32.7324H28.0317V42.5798Z" fill="#F48C06"/>
<path d="M24.7492 40.6103L21.4668 42.5798V32.7324H24.7492V40.6103Z" fill="white"/>
<path d="M28.0322 43.0391C27.9666 43.0391 27.8353 43.0391 27.7696 42.9734L24.7498 41.1353L21.7299 42.9734C21.5987 43.0391 21.4017 43.0391 21.2048 42.9734C21.0735 42.9078 21.0078 42.7109 21.0078 42.5796V32.7322C21.0078 32.4696 21.2048 32.207 21.533 32.207H28.0979C28.3605 32.207 28.6231 32.404 28.6231 32.7322V42.5796C28.6231 42.7765 28.5574 42.9078 28.3605 43.0391C28.2292 43.0391 28.1635 43.0391 28.0322 43.0391ZM24.7498 40.0849C24.8154 40.0849 24.9467 40.0849 25.0124 40.1505L27.5727 41.6605V33.1918H21.9925V41.6605L24.5529 40.1505C24.6185 40.0849 24.6841 40.0849 24.7498 40.0849Z" fill="black"/>
<path d="M24.75 37.328C27.6505 37.328 30.0019 34.9767 30.0019 32.0761C30.0019 29.1756 27.6505 26.8242 24.75 26.8242C21.8494 26.8242 19.498 29.1756 19.498 32.0761C19.498 34.9767 21.8494 37.328 24.75 37.328Z" fill="white"/>
<path d="M26.9158 27.2832C27.2441 27.9397 27.3754 28.6618 27.3754 29.4496C27.3754 32.3382 25.012 34.7015 22.1234 34.7015C21.3357 34.7015 20.6135 34.5046 19.957 34.242C20.8105 36.0802 22.583 37.3275 24.7494 37.3275C27.6379 37.3275 30.0013 34.9641 30.0013 32.0756C30.0013 29.9092 28.754 28.071 26.9158 27.2832Z" fill="#F48C06"/>
<path d="M24.7498 37.7886C21.5986 37.7886 18.9727 35.2283 18.9727 32.0115C18.9727 28.8603 21.533 26.2344 24.7498 26.2344C27.9009 26.2344 30.5269 28.7947 30.5269 32.0115C30.5269 35.2283 27.9666 37.7886 24.7498 37.7886ZM24.7498 27.2848C22.1238 27.2848 20.023 29.4512 20.023 32.0115C20.023 34.6374 22.1895 36.7382 24.7498 36.7382C27.3757 36.7382 29.4765 34.5718 29.4765 32.0115C29.5421 29.4512 27.3757 27.2848 24.7498 27.2848Z" fill="black"/>
<path d="M24.7497 34.0464C25.8374 34.0464 26.7192 33.1646 26.7192 32.0769C26.7192 30.9892 25.8374 30.1074 24.7497 30.1074C23.662 30.1074 22.7803 30.9892 22.7803 32.0769C22.7803 33.1646 23.662 34.0464 24.7497 34.0464Z" fill="white"/>
<path d="M24.7495 34.5049C23.3709 34.5049 22.2549 33.3889 22.2549 32.0103C22.2549 30.6317 23.3709 29.5156 24.7495 29.5156C26.1282 29.5156 27.2442 30.6317 27.2442 32.0103C27.2442 33.3889 26.1282 34.5049 24.7495 34.5049ZM24.7495 30.566C23.9618 30.566 23.3053 31.2225 23.3053 32.0103C23.3053 32.7981 23.9618 33.4546 24.7495 33.4546C25.5373 33.4546 26.1938 32.7981 26.1938 32.0103C26.2595 31.2225 25.603 30.566 24.7495 30.566Z" fill="black"/>
</svg>
