<svg width="43" height="42" viewBox="0 0 43 42" fill="none" xmlns="http://www.w3.org/2000/svg">
<path d="M42.5407 41.5521H0.525391L8.40325 33.8574H34.6628L42.5407 41.5521Z" fill="#F48C06"/>
<path d="M35.3193 41.5522H0.525391L6.43379 35.7812H30.0674C30.4613 35.7812 30.8552 35.9736 31.1178 36.2942L35.3193 41.5522Z" fill="white"/>
<path d="M42.5404 42.0002H0.525172C0.328226 42.0002 0.131279 41.872 0.0656302 41.6796C-1.86469e-05 41.4873 -1.86376e-05 41.2949 0.196928 41.1667L8.07479 33.472C8.14044 33.4079 8.27174 33.3438 8.40303 33.3438H34.6626C34.7939 33.3438 34.9252 33.4079 34.9908 33.472L42.8687 41.1667C43 41.2949 43.0656 41.4873 43 41.6796C42.8687 41.872 42.7374 42.0002 42.5404 42.0002ZM1.70685 41.0384H41.3588L34.4 34.3056H8.59998L1.70685 41.0384Z" fill="black"/>
<path d="M34.728 31.1639L11.357 25.2005C10.9631 25.0723 10.7661 24.7517 10.8318 24.367L11.5539 21.6738L36.2379 28.0219L35.5157 30.715C35.4501 31.0357 35.0562 31.2921 34.728 31.1639Z" fill="white"/>
<path d="M11.5543 21.6738L11.0947 23.5334L33.0214 29.1761C33.3497 29.2402 33.6123 29.625 33.481 29.9456L33.2184 30.7792L34.6627 31.1639C35.0566 31.2921 35.4504 31.0357 35.5161 30.6509L36.2382 27.9578L11.5543 21.6738Z" fill="#F48C06"/>
<path d="M34.8592 31.6772C34.7279 31.6772 34.6622 31.6772 34.5309 31.6131L11.2256 25.6498C10.5691 25.4574 10.1752 24.8162 10.3722 24.2391L11.0943 21.5459C11.1599 21.2894 11.4225 21.1612 11.6851 21.2253L36.3691 27.5734C36.6317 27.6375 36.763 27.894 36.6974 28.1505L36.0409 30.7795C35.9752 31.1001 35.7783 31.3566 35.5157 31.4849C35.3187 31.6131 35.1218 31.6772 34.8592 31.6772ZM11.9477 22.2513L11.3569 24.4956C11.3569 24.6238 11.4225 24.752 11.4882 24.752L34.7935 30.7154C34.8592 30.7154 34.9248 30.7154 34.9905 30.7154C34.9905 30.7154 35.0561 30.6513 35.1218 30.5872L35.7126 28.3429L11.9477 22.2513Z" fill="black"/>
<path d="M37.6824 28.3426L10.2412 21.2892L11.3572 17.1853C11.5542 16.48 12.2763 16.0953 12.9328 16.2876L37.8794 22.6998C38.6015 22.8922 38.9954 23.5976 38.7985 24.2388L37.6824 28.3426Z" fill="#F48C06"/>
<path d="M34.9252 27.6372L10.2412 21.2891L11.1603 17.8906L35.2534 24.0464C35.5817 24.1105 35.8443 24.4952 35.713 24.8158L34.9252 27.6372Z" fill="white"/>
<path d="M37.6824 28.8556C37.6167 28.8556 37.6167 28.8556 37.5511 28.8556L10.0442 21.8022C9.7816 21.7381 9.6503 21.4816 9.71595 21.2251L10.832 17.1213C11.0946 16.1595 12.0793 15.6465 13.064 15.8389L38.0106 22.2511C38.9953 22.5076 39.5205 23.4694 39.3236 24.4312L38.2076 28.535C38.1419 28.6633 38.0763 28.7915 38.0106 28.8556C37.8137 28.7915 37.748 28.8556 37.6824 28.8556ZM10.7663 20.9686L37.2885 27.7656L38.2732 24.1106C38.4045 23.6618 38.1419 23.2129 37.6824 23.1488L12.7358 16.7366C12.2763 16.6083 11.8167 16.8648 11.7511 17.3137L10.7663 20.9686Z" fill="black"/>
<path d="M34.9907 8.335C35.9754 4.74416 33.5464 1.15332 29.7387 0.576221C26.8502 0.191488 23.9617 1.79454 22.9113 4.48767C22.1891 6.21897 22.3861 8.01439 23.1082 9.55332C23.6991 10.7075 23.8304 12.1182 23.4365 13.4006L21.9922 18.5945L28.754 20.3258L30.1326 15.1319C30.4609 13.8495 31.2487 12.6312 32.3647 11.8617C33.612 11.0281 34.5311 9.80981 34.9907 8.335Z" fill="white"/>
<path d="M29.673 0.577794C29.2134 0.513672 28.7539 0.513672 28.36 0.513672C30.986 1.79611 32.4959 4.74573 31.7081 7.69535C31.3142 9.23428 30.3295 10.4526 29.1478 11.2862C28.0318 12.0557 27.244 13.2099 26.9157 14.5564L25.5371 19.5579L28.7539 20.3915L30.1325 15.1976C30.4608 13.9152 31.2486 12.6969 32.3646 11.9274C33.6119 11.0938 34.531 9.8755 34.9249 8.33657C35.9096 4.74573 33.5463 1.09077 29.673 0.577794Z" fill="#F48C06"/>
<path d="M28.7537 20.8389C28.6881 20.8389 28.6881 20.8389 28.6224 20.8389L21.8606 19.1076C21.598 19.0435 21.4667 18.787 21.5324 18.5305L22.9766 13.2725C23.3049 12.0542 23.1736 10.8358 22.6484 9.80988C21.795 8.07859 21.6637 6.15492 22.3858 4.3595C23.5018 1.47401 26.653 -0.257291 29.7385 0.191564C31.7079 0.448053 33.4148 1.53813 34.5308 3.14118C35.5812 4.74424 35.9751 6.73202 35.4499 8.52744C35.056 10.0664 34.0713 11.4771 32.6927 12.3748C31.7079 13.016 30.9858 14.1061 30.6575 15.3244L29.2789 20.5183C29.2133 20.6465 29.1476 20.7748 29.082 20.8389C28.885 20.7748 28.8194 20.8389 28.7537 20.8389ZM22.5827 18.274L28.3598 19.7488L29.6072 15.0038C30.0011 13.529 30.8545 12.3106 32.0362 11.4771C33.2179 10.7076 34.0713 9.5534 34.3995 8.20683C34.7934 6.60378 34.5308 4.9366 33.6117 3.59004C32.6927 2.17935 31.2484 1.28164 29.5415 1.08927C26.9156 0.640419 24.2896 2.17935 23.3049 4.61599C22.714 6.15492 22.7797 7.8221 23.5018 9.29691C24.1583 10.5152 24.2896 11.99 23.8957 13.4648L22.5827 18.274Z" fill="black"/>
<path d="M39.455 33.022H38.5359C38.2733 33.022 38.0107 32.8297 38.0107 32.5091C38.0107 32.2526 38.2077 31.9961 38.5359 31.9961H39.455C39.7176 31.9961 39.9802 32.1885 39.9802 32.5091C39.9802 32.8297 39.7833 33.022 39.455 33.022Z" fill="black"/>
<path d="M42.54 33.022H41.6209C41.3583 33.022 41.0957 32.8297 41.0957 32.5091C41.0957 32.2526 41.2927 31.9961 41.6209 31.9961H42.54C42.8026 31.9961 43.0652 32.1885 43.0652 32.5091C42.9995 32.8297 42.8026 33.022 42.54 33.022Z" fill="black"/>
<path d="M40.5711 34.9471C40.3085 34.9471 40.0459 34.7547 40.0459 34.4341V33.5364C40.0459 33.2799 40.2428 33.0234 40.5711 33.0234C40.8337 33.0234 41.0963 33.2158 41.0963 33.5364V34.4341C41.0306 34.7547 40.8337 34.9471 40.5711 34.9471Z" fill="black"/>
<path d="M40.5711 31.9959C40.3085 31.9959 40.0459 31.8036 40.0459 31.483V30.5852C40.0459 30.3288 40.2428 30.0723 40.5711 30.0723C40.8337 30.0723 41.0963 30.2646 41.0963 30.5852V31.483C41.0306 31.8036 40.8337 31.9959 40.5711 31.9959Z" fill="black"/>
<path d="M6.63058 29.1747H5.77714C5.51455 29.1747 5.25195 28.9824 5.25195 28.6617C5.25195 28.4053 5.4489 28.2129 5.77714 28.2129H6.69623C6.95882 28.2129 7.22142 28.4053 7.22142 28.7259C7.15577 28.9824 6.89318 29.1747 6.63058 29.1747Z" fill="black"/>
<path d="M9.71576 29.1763H8.79667C8.53408 29.1763 8.27148 28.984 8.27148 28.6634C8.27148 28.4069 8.46843 28.1504 8.79667 28.1504H9.71576C9.97835 28.1504 10.2409 28.3428 10.2409 28.6634C10.1753 28.984 9.97835 29.1763 9.71576 29.1763Z" fill="black"/>
<path d="M7.74687 31.0994C7.48428 31.0994 7.22168 30.9071 7.22168 30.5865V29.6888C7.22168 29.4323 7.41863 29.1758 7.74687 29.1758C8.00947 29.1758 8.27206 29.3681 8.27206 29.6888V30.5865C8.20641 30.9071 8.00947 31.0994 7.74687 31.0994Z" fill="black"/>
<path d="M7.74687 28.1502C7.48428 28.1502 7.22168 27.9579 7.22168 27.6372V26.7395C7.22168 26.4831 7.41863 26.2266 7.74687 26.2266C8.00947 26.2266 8.27206 26.4189 8.27206 26.7395V27.6372C8.20641 27.9579 8.00947 28.1502 7.74687 28.1502Z" fill="black"/>
<path d="M1.37863 20.1982H0.525191C0.262595 20.1982 0 20.0058 0 19.6852C0 19.4287 0.196947 19.2363 0.525191 19.2363H1.44427C1.70687 19.2363 1.96947 19.4287 1.96947 19.7493C1.90382 20.0058 1.64122 20.1982 1.37863 20.1982Z" fill="black"/>
<path d="M4.46381 20.1982H3.54472C3.28213 20.1982 3.01953 20.0058 3.01953 19.6852C3.01953 19.4287 3.28213 19.2363 3.54472 19.2363H4.46381C4.7264 19.2363 4.989 19.4287 4.989 19.7493C4.92335 20.0058 4.7264 20.1982 4.46381 20.1982Z" fill="black"/>
<path d="M2.49492 22.1229C2.23232 22.1229 1.96973 21.9305 1.96973 21.6099V20.7122C1.96973 20.4557 2.16667 20.1992 2.49492 20.1992C2.75751 20.1992 3.02011 20.3916 3.02011 20.7122V21.6099C2.95446 21.9305 2.75751 22.1229 2.49492 22.1229Z" fill="black"/>
<path d="M2.49492 19.172C2.23232 19.172 1.96973 18.9797 1.96973 18.6591V17.7614C1.96973 17.5049 2.16667 17.3125 2.49492 17.3125C2.75751 17.3125 3.02011 17.5049 3.02011 17.8255V18.7232C2.95446 18.9797 2.75751 19.172 2.49492 19.172Z" fill="black"/>
<path d="M15.8212 10.581H14.9021C14.6395 10.581 14.377 10.3886 14.377 10.1321C14.377 9.87563 14.5739 9.61914 14.9021 9.61914H15.8212C16.0838 9.61914 16.3464 9.81151 16.3464 10.1321C16.3464 10.3886 16.1495 10.581 15.8212 10.581Z" fill="black"/>
<path d="M18.9072 10.581H17.9881C17.7255 10.581 17.4629 10.3886 17.4629 10.1321C17.4629 9.87563 17.6598 9.61914 17.9881 9.61914H18.9072C19.1698 9.61914 19.4324 9.81151 19.4324 10.1321C19.3667 10.3886 19.1698 10.581 18.9072 10.581Z" fill="black"/>
<path d="M16.9373 12.5037C16.6747 12.5037 16.4121 12.3114 16.4121 11.9908V11.0931C16.4121 10.8366 16.6091 10.5801 16.9373 10.5801C17.1999 10.5801 17.4625 10.7724 17.4625 11.0931V11.9908C17.3968 12.3114 17.1999 12.5037 16.9373 12.5037Z" fill="black"/>
<path d="M16.9373 9.55452C16.6747 9.55452 16.4121 9.36216 16.4121 9.04155V8.14384C16.4121 7.88735 16.6091 7.63086 16.9373 7.63086C17.1999 7.63086 17.4625 7.82323 17.4625 8.14384V9.04155C17.3968 9.29804 17.1999 9.55452 16.9373 9.55452Z" fill="black"/>
<path d="M10.5693 2.88566H9.65019C9.3876 2.88566 9.125 2.69329 9.125 2.37268C9.19065 2.11619 9.3876 1.92383 9.71584 1.92383H10.6349C10.8975 1.92383 11.1601 2.11619 11.1601 2.43681C11.0945 2.69329 10.8319 2.88566 10.5693 2.88566Z" fill="black"/>
<path d="M13.6552 2.88566H12.7361C12.4735 2.88566 12.2109 2.69329 12.2109 2.37268C12.2109 2.11619 12.4735 1.92383 12.7361 1.92383H13.6552C13.9178 1.92383 14.1804 2.11619 14.1804 2.43681C14.1148 2.69329 13.9178 2.88566 13.6552 2.88566Z" fill="black"/>
<path d="M11.6853 4.80876C11.4228 4.80876 11.1602 4.61639 11.1602 4.29578V3.4622C11.1602 3.20571 11.3571 2.94922 11.6853 2.94922C11.9479 2.94922 12.2105 3.14159 12.2105 3.4622V4.35991C12.1449 4.61639 11.9479 4.80876 11.6853 4.80876Z" fill="black"/>
<path d="M11.6853 1.85954C11.4228 1.85954 11.1602 1.66718 11.1602 1.34656V0.512977C11.1602 0.192366 11.3571 0 11.6853 0C11.9479 0 12.2105 0.192366 12.2105 0.512977V1.41069C12.1449 1.60305 11.9479 1.85954 11.6853 1.85954Z" fill="black"/>
<path d="M35.5156 17.6334H34.5965C34.3339 17.6334 34.0713 17.441 34.0713 17.1204C34.0713 16.8639 34.2682 16.6074 34.5965 16.6074H35.5156C35.7782 16.6074 36.0408 16.7998 36.0408 17.1204C36.0408 17.441 35.8438 17.6334 35.5156 17.6334Z" fill="black"/>
<path d="M38.6015 17.6334H37.6824C37.4198 17.6334 37.1572 17.441 37.1572 17.1204C37.1572 16.8639 37.3542 16.6074 37.6824 16.6074H38.6015C38.8641 16.6074 39.1267 16.7998 39.1267 17.1204C39.061 17.441 38.8641 17.6334 38.6015 17.6334Z" fill="black"/>
<path d="M36.6316 19.5565C36.369 19.5565 36.1064 19.3641 36.1064 19.0435V18.1458C36.1064 17.8893 36.3034 17.6328 36.6316 17.6328C36.8942 17.6328 37.1568 17.8252 37.1568 18.1458V19.0435C37.0912 19.3641 36.8942 19.5565 36.6316 19.5565Z" fill="black"/>
<path d="M36.6316 16.6073C36.369 16.6073 36.1064 16.4149 36.1064 16.0943V15.1966C36.1064 14.9401 36.3034 14.6836 36.6316 14.6836C36.8942 14.6836 37.1568 14.876 37.1568 15.1966V16.0943C37.0912 16.4149 36.8942 16.6073 36.6316 16.6073Z" fill="black"/>
<path d="M23.8963 39.4342H14.8367C14.5741 39.4342 14.3115 39.2418 14.3115 38.9212C14.3115 38.6647 14.5085 38.4082 14.8367 38.4082H23.8963C24.1589 38.4082 24.4214 38.6006 24.4214 38.9212C24.3558 39.2418 24.1589 39.4342 23.8963 39.4342Z" fill="black"/>
<path d="M12.2107 39.4342H10.7664C10.5038 39.4342 10.2412 39.2418 10.2412 38.9212C10.2412 38.6647 10.4382 38.4082 10.7664 38.4082H12.2107C12.4733 38.4082 12.7359 38.6006 12.7359 38.9212C12.6702 39.2418 12.4733 39.4342 12.2107 39.4342Z" fill="black"/>
</svg>
