<svg width="41" height="41" viewBox="0 0 41 41" fill="none" xmlns="http://www.w3.org/2000/svg">
<path d="M35.5544 0.5V39.3092C35.5544 39.9977 34.9911 40.5611 34.3025 40.5611H1.75288C1.06434 40.5611 0.500977 39.9977 0.500977 39.3092V5.50763C0.500977 2.75344 2.75441 0.5 5.50861 0.5H35.5544Z" fill="#F48C06"/>
<path d="M32.3621 0.5V36.8053C32.3621 37.4939 31.7988 38.0573 31.1102 38.0573H0.438477V5.50763C0.438477 2.75344 2.69191 0.5 5.44611 0.5H32.3621Z" fill="white"/>
<path d="M34.3023 41H1.75267C0.81374 41 0 40.2489 0 39.2473V5.4458C0 2.44122 2.44122 0 5.5084 0H35.5542C35.8046 0 36.055 0.187786 36.055 0.500763V39.3099C35.9924 40.2489 35.2412 41 34.3023 41ZM5.5084 0.938931C3.00458 0.938931 1.00153 3.00458 1.00153 5.4458V39.2473C1.00153 39.6855 1.3771 39.9985 1.75267 39.9985H34.3023C34.7405 39.9985 35.0534 39.6229 35.0534 39.2473V0.938931H5.5084Z" fill="black"/>
<path d="M5.50879 0.5C8.26299 0.5 10.5164 2.75343 10.5164 5.50763H40.5622C40.5622 2.75343 38.3088 0.5 35.5546 0.5H5.50879Z" fill="#F48C06"/>
<path d="M31.7354 0.5H5.44531C7.57356 0.5 9.32623 1.8145 10.0774 3.62977H36.0545C36.1797 3.62977 36.3049 3.50458 36.2423 3.37939C35.4911 1.62672 33.7384 0.5 31.7354 0.5Z" fill="white"/>
<path d="M40.562 5.94657H10.5162C10.2658 5.94657 10.0154 5.75878 10.0154 5.4458C10.0154 2.94198 7.9498 0.938931 5.50858 0.938931C5.1956 0.938931 5.00781 0.751145 5.00781 0.500763C5.00781 0.187786 5.1956 0 5.50858 0H35.5544C38.559 0 41.0628 2.44122 41.0628 5.5084C41.0002 5.75878 40.8124 5.94657 40.562 5.94657ZM10.9544 5.00763H40.0612C39.8109 2.7542 37.8704 0.938931 35.5544 0.938931H8.51316C9.89025 1.81527 10.7666 3.31756 10.9544 5.00763Z" fill="black"/>
<path d="M23.6615 10.9547H12.3943C12.1439 10.9547 11.8936 10.7669 11.8936 10.4539C11.8936 10.2035 12.0813 9.95312 12.3943 9.95312H23.6615C23.9119 9.95312 24.1623 10.1409 24.1623 10.4539C24.0997 10.7669 23.9119 10.9547 23.6615 10.9547Z" fill="black"/>
<path d="M29.9209 14.7105H24.0369C23.7865 14.7105 23.5361 14.5227 23.5361 14.2097C23.5361 13.9594 23.7239 13.709 24.0369 13.709H29.9209C30.1712 13.709 30.4216 13.8968 30.4216 14.2097C30.359 14.5227 30.1712 14.7105 29.9209 14.7105Z" fill="black"/>
<path d="M21.4707 14.7105H13.0203C12.7699 14.7105 12.5195 14.5227 12.5195 14.2097C12.5195 13.9594 12.7073 13.709 13.0203 13.709H21.5333C21.7837 13.709 22.034 13.8968 22.034 14.2097C21.9714 14.5227 21.7211 14.7105 21.4707 14.7105Z" fill="black"/>
<path d="M10.5162 14.7104H6.13455C5.88417 14.7104 5.63379 14.5226 5.63379 14.2097C5.63379 13.9593 5.82158 13.7715 6.13455 13.7715H10.5162C10.7666 13.7715 11.017 13.9593 11.017 14.2722C10.9544 14.5226 10.7666 14.7104 10.5162 14.7104Z" fill="black"/>
<path d="M29.67 18.4664H21.157C20.9066 18.4664 20.6562 18.2786 20.6562 17.9656C20.6562 17.7152 20.844 17.4648 21.157 17.4648H29.67C29.9204 17.4648 30.1708 17.6526 30.1708 17.9656C30.1082 18.2786 29.9204 18.4664 29.67 18.4664Z" fill="black"/>
<path d="M18.6536 18.4663H6.13455C5.88417 18.4663 5.63379 18.2785 5.63379 17.9655C5.63379 17.7151 5.82158 17.5273 6.13455 17.5273H18.6536C18.904 17.5273 19.1544 17.7151 19.1544 18.0281C19.0918 18.2785 18.904 18.4663 18.6536 18.4663Z" fill="black"/>
<path d="M26.3523 22.2222H16.7752C16.5248 22.2222 16.2744 22.0344 16.2744 21.7215C16.2744 21.4711 16.4622 21.2207 16.7752 21.2207H26.2897C26.5401 21.2207 26.7904 21.4085 26.7904 21.7215C26.7904 22.0344 26.6027 22.2222 26.3523 22.2222Z" fill="black"/>
<path d="M14.272 22.2221H6.13455C5.88417 22.2221 5.63379 22.0343 5.63379 21.7214C5.63379 21.471 5.82158 21.2832 6.13455 21.2832H14.3346C14.5849 21.2832 14.8353 21.471 14.8353 21.784C14.7727 22.0343 14.5223 22.2221 14.272 22.2221Z" fill="black"/>
<path d="M8.76358 36.8057C7.69946 36.8057 6.63534 36.4301 5.759 35.5538C5.57122 35.366 5.57122 35.053 5.759 34.8652C5.94679 34.6774 6.25977 34.6774 6.44755 34.8652C7.94984 36.4301 10.2659 35.8667 11.8934 34.8026C14.3972 33.1751 16.8384 33.5507 18.3407 35.8668C18.4659 36.0545 18.4033 36.3675 18.2155 36.4927C18.0277 36.6179 17.7147 36.5553 17.5895 36.3675C15.8995 33.8637 13.646 34.8026 12.3941 35.5538C11.3926 36.3049 10.0781 36.8057 8.76358 36.8057Z" fill="black"/>
<path d="M38.6844 36.4941C38.434 36.4941 38.1836 36.3063 38.1836 35.9934V28.0437C38.1836 27.7934 38.3714 27.543 38.6844 27.543C38.9347 27.543 39.1851 27.7308 39.1851 28.0437V36.0559C39.1225 36.3063 38.9347 36.4941 38.6844 36.4941Z" fill="black"/>
<path d="M38.6844 40.3747C38.434 40.3747 38.1836 40.1869 38.1836 39.874V38.4969C38.1836 38.2465 38.3714 37.9961 38.6844 37.9961C38.9347 37.9961 39.1851 38.1839 39.1851 38.4969V39.874C39.1225 40.1869 38.9347 40.3747 38.6844 40.3747Z" fill="black"/>
<path d="M37.6197 13.584L20.406 30.8603L18.0273 36.1183L23.2854 33.7397L40.5617 16.526L40.0609 14.0847L37.6197 13.584Z" fill="#F48C06"/>
<path d="M37.62 13.584L20.4063 30.8603L19.0918 33.7397L22.9101 31.6741L40.1239 14.3977L40.0613 14.0847L37.62 13.584Z" fill="white"/>
<path d="M18.0272 36.6178C17.902 36.6178 17.7768 36.5552 17.7142 36.4926C17.589 36.3674 17.5264 36.1171 17.589 35.9919L20.0302 30.6713C20.0302 30.6087 20.0928 30.5461 20.1554 30.5461L37.3692 13.3323C37.4318 13.1445 37.5569 13.1445 37.7447 13.1445L40.1859 13.6453C40.3737 13.7079 40.4989 13.8331 40.5615 14.0209L41.0623 16.4621C41.0623 16.5873 41.0623 16.7751 40.9371 16.9003L23.6608 34.0514C23.5982 34.114 23.5982 34.114 23.5356 34.1766L18.215 36.6178C18.1524 36.6178 18.0898 36.6178 18.0272 36.6178ZM20.7814 31.1094L18.9035 35.1781L22.9722 33.3003L39.9356 16.3369L39.56 14.459L37.6821 14.0835L20.7814 31.1094Z" fill="black"/>
<path d="M25.9146 25.3516L28.2933 25.8523L28.794 28.231L23.2856 33.7393L22.8475 31.2981L20.4062 30.86L25.9146 25.3516Z" fill="white"/>
<path d="M23.2855 34.1773C23.2229 34.1773 23.2229 34.1773 23.1603 34.1773C22.9725 34.1148 22.8473 33.9896 22.8473 33.8018L22.4091 31.6735L20.3435 31.298C20.1557 31.2354 20.0305 31.1102 19.9679 30.985C19.9053 30.7972 19.9679 30.6094 20.0931 30.5468L25.6015 25.0384C25.7267 24.9132 25.8519 24.8506 26.0397 24.9132L28.4809 25.414C28.6687 25.4766 28.7939 25.6018 28.8565 25.7896L29.3572 28.2308C29.3572 28.356 29.3572 28.5438 29.232 28.669L23.7236 34.1773C23.5359 34.1773 23.4107 34.1773 23.2855 34.1773ZM21.345 30.5468L22.9099 30.8598C23.0977 30.9224 23.2229 31.0476 23.2855 31.2354L23.5985 32.8003L28.2931 28.1056L27.9175 26.2277L26.0397 25.8522L21.345 30.5468Z" fill="black"/>
<path d="M32.362 28.9812C32.2368 28.9812 32.1116 28.9186 32.049 28.856C31.8613 28.6683 31.8613 28.3553 32.049 28.1675L39.4979 20.7186L38.9345 17.7767C38.8719 17.5263 39.0597 17.2759 39.3101 17.2133C39.5605 17.1507 39.8109 17.3385 39.8735 17.5889L40.4994 20.7812C40.4994 20.9064 40.4994 21.0942 40.3742 21.2194L32.7376 28.856C32.6124 28.9186 32.4872 28.9812 32.362 28.9812Z" fill="black"/>
<path d="M6.1347 32.3608C6.00951 32.3608 5.88432 32.2982 5.82172 32.2356C5.63393 32.0478 5.63393 31.7348 5.75913 31.547C6.1347 31.1089 6.57287 30.6081 6.94844 30.1073C6.32248 29.4814 5.94691 28.7302 6.0721 27.7913C6.1347 27.2905 6.38508 26.7898 6.82325 26.5394C7.13622 26.3516 7.5118 26.2264 7.82477 26.3516C8.13775 26.4142 8.45073 26.602 8.63851 26.915C8.95149 27.4157 8.95149 28.1043 8.8263 28.5425C8.70111 29.0432 8.51332 29.4814 8.26294 29.857C8.45073 29.9821 8.70111 30.0447 8.8889 30.1073C10.0156 30.4203 11.5179 30.1073 12.2065 29.3562C12.3316 29.231 12.5194 29.0432 12.6446 28.8554C11.8309 28.1669 11.3301 27.2279 11.4553 26.1012C11.5179 25.5379 11.8309 25.0371 12.269 24.7241C12.582 24.4737 13.0202 24.4112 13.3958 24.4737C13.8339 24.5363 14.1469 24.8493 14.3973 25.2249C14.7103 25.7257 14.7729 26.3516 14.6477 26.8524C14.5225 27.4157 14.2721 27.9791 13.9591 28.5425C14.1469 28.6676 14.3973 28.7302 14.5851 28.7928C15.8996 29.1058 17.3393 28.7302 18.3408 27.8539C18.5286 27.6661 18.8416 27.6661 19.0294 27.8539C19.2171 28.0417 19.2171 28.3547 19.0294 28.5425C17.84 29.6692 16.0248 30.1073 14.3973 29.7318C14.0843 29.6692 13.7713 29.544 13.4584 29.3562C13.2706 29.6066 13.0828 29.7944 12.895 29.9821C11.9561 30.9211 10.1408 31.2967 8.70111 30.9211C8.38813 30.8585 8.07516 30.7333 7.76218 30.5455C7.38661 31.1089 6.88584 31.6096 6.51027 32.0478C6.38508 32.2982 6.25989 32.3608 6.1347 32.3608ZM7.57439 27.2905C7.5118 27.2905 7.4492 27.2905 7.38661 27.3531C7.19882 27.4783 7.07363 27.7287 7.01103 27.9791C6.94844 28.4799 7.13622 28.9806 7.5118 29.3562C7.69958 29.0432 7.82477 28.7302 7.88737 28.3547C7.94997 28.0417 7.94997 27.6661 7.82477 27.4783C7.76218 27.2905 7.63699 27.2905 7.57439 27.2905ZM13.0828 25.4753C13.0202 25.4753 12.895 25.5379 12.8324 25.6005C12.6446 25.7257 12.4568 26.0386 12.3942 26.3516C12.3316 27.0402 12.6446 27.6661 13.208 28.1669C13.4584 27.7287 13.6461 27.2279 13.7713 26.7898C13.8339 26.4768 13.7713 26.1012 13.6461 25.8508C13.5836 25.7257 13.4584 25.6005 13.208 25.5379C13.1454 25.4753 13.0828 25.4753 13.0828 25.4753Z" fill="black"/>
<path d="M29.9205 36.6187H24.2869C24.0365 36.6187 23.7861 36.4309 23.7861 36.118C23.7861 35.8676 23.9739 35.6172 24.2869 35.6172H29.9205C30.1709 35.6172 30.4212 35.805 30.4212 36.118C30.3587 36.4309 30.1709 36.6187 29.9205 36.6187Z" fill="black"/>
<path d="M29.9206 33.4879H27.4168C27.1664 33.4879 26.916 33.3001 26.916 32.9871C26.916 32.6741 27.1038 32.4863 27.4168 32.4863H29.9206C30.171 32.4863 30.4214 32.6741 30.4214 32.9871C30.4214 33.3001 30.171 33.4879 29.9206 33.4879Z" fill="black"/>
</svg>
