<svg width="42" height="42" viewBox="0 0 42 42" fill="none" xmlns="http://www.w3.org/2000/svg">
<path d="M21.0318 41.5518C32.3642 41.5518 41.5509 32.3651 41.5509 21.0328C41.5509 9.70038 32.3642 0.513672 21.0318 0.513672C9.6994 0.513672 0.512695 9.70038 0.512695 21.0328C0.512695 32.3651 9.6994 41.5518 21.0318 41.5518Z" fill="white"/>
<path d="M41.5515 21.0328C41.5515 9.68314 32.382 0.513672 21.0324 0.513672C15.9026 0.513672 11.2217 2.37321 7.63086 5.45108C9.04155 5.13047 10.5164 5.00222 12.0553 5.00222C23.4049 5.00222 32.5744 14.1717 32.5744 25.5213C32.5744 31.7412 29.8171 37.3198 25.4568 41.103C34.6263 39.0511 41.5515 30.8434 41.5515 21.0328Z" fill="#F48C06"/>
<path d="M21.0321 42C9.42595 42 0 32.574 0 21.0321C0 9.49008 9.42595 0 21.0321 0C32.6382 0 42.0641 9.42595 42.0641 21.0321C42.0641 32.6382 32.574 42 21.0321 42ZM21.0321 0.961832C10.0031 0.961832 1.02595 9.93893 1.02595 20.9679C0.961832 32.0611 9.93893 41.0382 21.0321 41.0382C32.0611 41.0382 41.0382 32.0611 41.0382 21.0321C41.0382 9.93893 32.0611 0.961832 21.0321 0.961832Z" fill="black"/>
<path d="M28.7265 9.49027L32.9585 4.29638C31.8684 3.52691 30.7142 2.82157 29.4318 2.30859L23.5967 9.49027H28.7265Z" fill="white"/>
<path d="M26.1621 9.49004H28.727L32.9591 4.29615C32.5102 3.97554 32.0613 3.65493 31.5484 3.39844L26.1621 9.49004Z" fill="#F48C06"/>
<path d="M28.7272 9.94001H23.5974C23.4051 9.94001 23.2127 9.81176 23.1486 9.68352C23.0844 9.49115 23.0844 9.29878 23.2127 9.17054L29.0478 1.98886C29.176 1.79649 29.4325 1.79649 29.6249 1.86062C30.9073 2.43771 32.0615 3.14306 33.2157 3.91252C33.2799 3.97665 33.344 4.10489 33.344 4.23313C33.344 4.36138 33.344 4.48962 33.2157 4.61787L28.9837 9.81176C28.9837 9.87588 28.8554 9.94001 28.7272 9.94001ZM24.5593 8.97817H28.4707L32.1898 4.36138C31.3562 3.78428 30.4585 3.2713 29.5608 2.82245L24.5593 8.97817Z" fill="black"/>
<path d="M31.9329 13.1448H20.3909C20.1344 13.1448 19.8779 12.9524 19.8779 12.6318V10.0669C19.8779 9.10507 20.6474 8.27148 21.6733 8.27148H30.6504C31.6123 8.27148 32.4459 9.04095 32.4459 10.0669V12.6318C32.3817 12.9524 32.1894 13.1448 31.9329 13.1448ZM20.8398 12.1829H31.4199V10.131C31.4199 9.68217 31.0352 9.36156 30.6504 9.36156H21.6733C21.2245 9.36156 20.9039 9.74629 20.9039 10.131V12.1829H20.8398Z" fill="black"/>
<path d="M28.7268 9.49077L21.4169 0.513672C21.2887 0.513672 21.1604 0.513672 21.0322 0.513672C19.5574 0.513672 18.0826 0.706038 16.6719 0.962527L23.5971 9.49077H28.7268Z" fill="white"/>
<path d="M21.4171 0.513672C21.2889 0.513672 21.1606 0.513672 21.0324 0.513672C20.2629 0.513672 19.4934 0.577794 18.7881 0.641916L26.1621 9.49077H28.727L21.4171 0.513672Z" fill="#F48C06"/>
<path d="M28.7266 9.93983H23.5968C23.4686 9.93983 23.3403 9.87571 23.2121 9.74746L16.2869 1.28334C16.1587 1.1551 16.1587 0.96273 16.2228 0.834486C16.2869 0.706242 16.4151 0.577997 16.5434 0.513875C18.0823 0.193265 19.6854 0.000898145 21.2243 0.0650203H21.3526C21.4808 0.0650203 21.609 0.129142 21.7373 0.257387L29.0472 9.23449C29.1755 9.36273 29.1755 9.5551 29.1113 9.74746C29.0472 9.81159 28.8548 9.93983 28.7266 9.93983ZM23.7892 8.978H27.7006L21.1602 0.96273C19.9419 0.898608 18.7235 1.02685 17.5052 1.28334L23.7892 8.978Z" fill="black"/>
<path d="M39.7563 12.6953H12.0555C10.9654 12.6953 10.1318 13.5289 10.1318 14.619V32.5732C10.1318 33.6633 10.9654 34.4968 12.0555 34.4968H36.486C39.628 30.906 41.5517 26.161 41.5517 21.0312C41.5517 18.0175 40.9105 15.1961 39.7563 12.6953Z" fill="#F48C06"/>
<path d="M35.9089 12.6953H12.0555C10.9654 12.6953 10.1318 13.5289 10.1318 14.619V32.5732C10.1318 33.6633 10.9654 34.4968 12.0555 34.4968H32.6387C35.7807 30.906 37.7044 26.161 37.7044 21.0312C37.6402 18.0175 37.0631 15.1961 35.9089 12.6953Z" fill="white"/>
<path d="M36.4857 34.9466H12.0551C10.7086 34.9466 9.68262 33.8565 9.68262 32.51V14.5558C9.68262 13.2092 10.7727 12.1191 12.0551 12.1191H39.7559C39.9483 12.1191 40.1406 12.2474 40.2048 12.3756C41.4231 15.0688 42.0002 17.9543 42.0002 20.9039C42.0002 25.9695 40.1406 30.8428 36.8063 34.6901C36.7422 34.8825 36.6139 34.9466 36.4857 34.9466ZM12.0551 13.1451C11.2857 13.1451 10.6444 13.7863 10.6444 14.5558V32.51C10.6444 33.2794 11.2857 33.9207 12.0551 33.9207H36.2933C39.3712 30.2657 41.1025 25.713 41.1025 20.9039C41.1025 18.2107 40.5895 15.5176 39.4994 13.081H12.0551V13.1451Z" fill="black"/>
<path d="M38.9862 24.6861H30.0091C29.7526 24.6861 29.4961 24.4937 29.4961 24.1731C29.4961 23.8525 29.6885 23.6602 30.0091 23.6602H38.9862C39.2427 23.6602 39.4991 23.8525 39.4991 24.1731C39.4991 24.4937 39.2427 24.6861 38.9862 24.6861Z" fill="black"/>
<path d="M37.6397 27.8931H34.7542C34.4977 27.8931 34.2412 27.7008 34.2412 27.3802C34.2412 27.1237 34.4336 26.8672 34.7542 26.8672H37.6397C37.8962 26.8672 38.1527 27.0596 38.1527 27.3802C38.1527 27.7008 37.9603 27.8931 37.6397 27.8931Z" fill="black"/>
<path d="M32.2533 27.8931H30.0091C29.7526 27.8931 29.4961 27.7008 29.4961 27.3802C29.4961 27.1237 29.6885 26.8672 30.0091 26.8672H32.2533C32.5098 26.8672 32.7663 27.0596 32.7663 27.3802C32.7022 27.7008 32.5098 27.8931 32.2533 27.8931Z" fill="black"/>
<path d="M36.3568 31.0982H29.9446C29.6881 31.0982 29.4316 30.9059 29.4316 30.5852C29.4316 30.3288 29.624 30.0723 29.9446 30.0723H36.3568C36.6133 30.0723 36.8698 30.2646 36.8698 30.5852C36.8698 30.9059 36.6774 31.0982 36.3568 31.0982Z" fill="black"/>
<path d="M25.3278 24.4951L23.0194 23.918H20.3904H17.7614L15.3889 24.4951C14.4912 24.7516 13.9141 25.521 13.9141 26.4187V30.6508H26.7385V26.4187C26.8026 25.521 26.1614 24.6874 25.3278 24.4951Z" fill="white"/>
<path d="M25.3278 24.4954L24.8148 24.3672C24.8148 24.4313 24.8148 24.4313 24.8148 24.4954C24.8148 25.7779 23.853 26.868 22.5064 26.9962L13.9141 27.8298V30.587H26.7385V26.355C26.8026 25.5214 26.1614 24.6878 25.3278 24.4954Z" fill="#F48C06"/>
<path d="M26.8032 31.099H13.9788C13.7223 31.099 13.4658 30.9066 13.4658 30.586V26.3539C13.4658 25.2638 14.2353 24.2379 15.3254 23.9814L17.6338 23.4043C17.6979 23.4043 17.6979 23.4043 17.762 23.4043H23.0841C23.1483 23.4043 23.1483 23.4043 23.2124 23.4043L25.5208 23.9814C26.6109 24.2379 27.3803 25.2638 27.3803 26.3539V30.586C27.2521 30.9066 27.0597 31.099 26.8032 31.099ZM14.4277 30.1371H26.2902V26.418C26.2902 25.7127 25.8414 25.1356 25.2002 25.0073L22.9559 24.3661H17.762L15.5177 24.9432C14.8765 25.1356 14.4277 25.7127 14.4277 26.3539V30.1371Z" fill="black"/>
<path d="M22.315 24.8158C22.6998 24.5593 23.0204 24.2387 23.0204 23.854C22.4433 23.5975 22.0585 23.0845 21.9303 22.4433C21.9303 22.3792 21.9303 21.738 21.8662 21.6738H18.8524C18.8524 21.8021 18.8524 22.3792 18.7883 22.5074C18.6601 23.1486 18.2753 23.5975 17.6982 23.9181C17.6982 24.3028 18.0189 24.6234 18.4036 24.8799C19.5578 25.6494 21.1608 25.6494 22.315 24.8158Z" fill="white"/>
<path d="M21.994 25.0082C22.1223 24.9441 22.1864 24.8799 22.3146 24.8158C22.6994 24.5593 23.02 24.2387 23.02 23.854C22.4429 23.5975 22.0581 23.0845 21.9299 22.4433C21.9299 22.3792 21.9299 21.738 21.8658 21.6738H20.6475C20.6475 22.0586 20.7116 22.6998 20.7116 22.828C20.8398 23.7257 21.3528 24.4952 21.994 25.0082Z" fill="#F48C06"/>
<path d="M20.391 25.9697C19.6215 25.9697 18.8521 25.7132 18.1467 25.2643C17.5696 24.8796 17.249 24.4307 17.249 23.9177C17.249 23.7254 17.3773 23.533 17.5055 23.4689C17.9544 23.2765 18.2109 22.8918 18.3391 22.4429C18.3391 22.3788 18.3391 22.1864 18.3391 21.9941C18.3391 21.8658 18.3391 21.7376 18.3391 21.6735C18.3391 21.417 18.5956 21.2246 18.788 21.2246H21.8017C22.0582 21.2246 22.2506 21.417 22.2506 21.6735C22.2506 21.7376 22.2506 21.8658 22.2506 21.9941C22.2506 22.1223 22.2506 22.3147 22.2506 22.3788C22.3147 22.8277 22.6353 23.2124 23.0841 23.4689C23.2765 23.533 23.3406 23.7254 23.3406 23.9177C23.3406 24.3666 23.02 24.8796 22.4429 25.2643C21.9299 25.7132 21.1605 25.9697 20.391 25.9697ZM18.275 24.1101C18.3391 24.1742 18.4673 24.3025 18.6597 24.4307C19.6857 25.1361 21.0322 25.1361 21.9941 24.4307C22.1864 24.3025 22.3147 24.1742 22.3788 24.046C21.8658 23.6613 21.4811 23.0842 21.417 22.5071C21.417 22.4429 21.417 22.3147 21.417 22.1223H19.3009C19.3009 22.3788 19.3009 22.4429 19.2368 22.5712C19.1727 23.2124 18.788 23.7254 18.275 24.1101Z" fill="black"/>
<path d="M23.4682 19.1085C23.4682 17.0565 22.0575 15.9023 20.3904 15.9023C18.6591 15.9023 17.3125 17.0565 17.3125 19.1085C17.3125 21.1604 18.7232 22.8275 20.3904 22.8275C22.0575 22.7634 23.4682 21.0962 23.4682 19.1085Z" fill="white"/>
<path d="M22.7635 16.9922C22.7635 17.0563 22.7635 17.0563 22.7635 17.1204C22.7635 19.1723 21.3528 20.8395 19.6857 20.8395C18.7238 20.8395 17.8261 20.2624 17.249 19.4288C17.3773 21.2884 18.7238 22.7632 20.3269 22.7632C22.0582 22.7632 23.4047 21.096 23.4047 19.0441C23.4689 18.2105 23.2124 17.5693 22.7635 16.9922Z" fill="#F48C06"/>
<path d="M20.3906 23.2757C18.4029 23.2757 16.7998 21.4162 16.7998 19.1078C16.7998 16.9276 18.2746 15.3887 20.3906 15.3887C22.5067 15.3887 23.9815 16.9276 23.9815 19.1078C23.9174 21.352 22.3143 23.2757 20.3906 23.2757ZM20.3906 16.3505C18.7876 16.3505 17.7616 17.4406 17.7616 19.0436C17.7616 20.8391 18.9158 22.2497 20.3906 22.2497C21.8013 22.2497 23.0197 20.7749 23.0197 19.0436C22.9555 17.4406 21.9296 16.3505 20.3906 16.3505Z" fill="black"/>
<path d="M20.3909 31.0988C20.1344 31.0988 19.8779 30.9064 19.8779 30.5858V25.3919C19.8779 25.1354 20.0703 24.8789 20.3909 24.8789C20.6474 24.8789 20.9039 25.0713 20.9039 25.3919V30.5858C20.8398 30.9064 20.6474 31.0988 20.3909 31.0988Z" fill="black"/>
<path d="M30.0088 18.4674V20.3911C30.0088 20.7758 30.2653 21.0323 30.65 21.0323H41.5508C41.5508 19.9422 41.4867 18.8521 41.2943 17.8262H30.65C30.2653 17.8262 30.0088 18.0827 30.0088 18.4674Z" fill="#F48C06"/>
<path d="M30.0088 18.4674V20.3911C30.0088 20.7758 30.2653 21.0323 30.65 21.0323H38.9859C38.9859 19.9422 38.9218 18.8521 38.7294 17.8262H30.65C30.2653 17.8262 30.0088 18.0827 30.0088 18.4674Z" fill="white"/>
<path d="M41.5511 21.4801H30.6503C30.0091 21.4801 29.4961 20.9671 29.4961 20.3259V18.4022C29.4961 17.761 30.0091 17.248 30.6503 17.248H41.2946C41.5511 17.248 41.7434 17.4404 41.7434 17.6328C41.9358 18.7229 41.9999 19.8129 41.9999 20.903C41.9999 21.2877 41.8075 21.4801 41.5511 21.4801ZM30.6503 18.274C30.5862 18.274 30.522 18.3381 30.522 18.4022V20.3259C30.522 20.39 30.5862 20.4542 30.6503 20.4542H41.0381C41.0381 19.6847 40.974 18.9793 40.8457 18.2099H30.6503V18.274Z" fill="black"/>
<path d="M38.2805 5.00043C38.9888 5.00043 39.5629 4.42626 39.5629 3.71799C39.5629 3.00972 38.9888 2.43555 38.2805 2.43555C37.5722 2.43555 36.998 3.00972 36.998 3.71799C36.998 4.42626 37.5722 5.00043 38.2805 5.00043Z" fill="white"/>
<path d="M38.3452 5.45055C37.3834 5.45055 36.5498 4.68108 36.5498 3.65513C36.5498 2.69329 37.3193 1.92383 38.3452 1.92383C39.3712 1.92383 40.1406 2.69329 40.1406 3.65513C40.0765 4.68108 39.3071 5.45055 38.3452 5.45055ZM38.3452 2.88566C37.8964 2.88566 37.5758 3.27039 37.5758 3.65513C37.5758 4.10398 37.9605 4.42459 38.3452 4.42459C38.73 4.48871 39.1147 4.10398 39.1147 3.71925C39.1147 3.27039 38.73 2.88566 38.3452 2.88566Z" fill="black"/>
<path d="M40.2688 37.7036C40.977 37.7036 41.5512 37.1294 41.5512 36.4211C41.5512 35.7128 40.977 35.1387 40.2688 35.1387C39.5605 35.1387 38.9863 35.7128 38.9863 36.4211C38.9863 37.1294 39.5605 37.7036 40.2688 37.7036Z" fill="white"/>
<path d="M40.2691 38.1533C39.3072 38.1533 38.4736 37.3839 38.4736 36.3579C38.4736 35.3961 39.2431 34.5625 40.2691 34.5625C41.295 34.5625 42.0645 35.332 42.0645 36.3579C42.0004 37.3839 41.2309 38.1533 40.2691 38.1533ZM40.2691 35.5885C39.8202 35.5885 39.4996 35.9732 39.4996 36.3579C39.4996 36.8068 39.8843 37.1274 40.2691 37.1274C40.7179 37.1274 41.0385 36.7427 41.0385 36.3579C41.0385 35.9732 40.6538 35.5885 40.2691 35.5885Z" fill="black"/>
<path d="M35.716 41.5512C36.4243 41.5512 36.9985 40.977 36.9985 40.2688C36.9985 39.5605 36.4243 38.9863 35.716 38.9863C35.0078 38.9863 34.4336 39.5605 34.4336 40.2688C34.4336 40.977 35.0078 41.5512 35.716 41.5512Z" fill="white"/>
<path d="M35.7163 41.999C34.7545 41.999 33.9209 41.2296 33.9209 40.2036C33.9209 39.2418 34.6904 38.4082 35.7163 38.4082C36.6782 38.4082 37.5117 39.1777 37.5117 40.2036C37.5117 41.2296 36.7423 41.999 35.7163 41.999ZM35.7163 39.4342C35.2675 39.4342 34.9469 39.8189 34.9469 40.2036C34.9469 40.6525 35.3316 40.9731 35.7163 40.9731C36.1011 40.9731 36.4858 40.5884 36.4858 40.2036C36.5499 39.8189 36.1652 39.4342 35.7163 39.4342Z" fill="black"/>
<path d="M5.64279 3.07856C6.35107 3.07856 6.92524 2.50439 6.92524 1.79611C6.92524 1.08784 6.35107 0.513672 5.64279 0.513672C4.93452 0.513672 4.36035 1.08784 4.36035 1.79611C4.36035 2.50439 4.93452 3.07856 5.64279 3.07856Z" fill="white"/>
<path d="M5.64308 3.52672C4.61712 3.52672 3.84766 2.75725 3.84766 1.79542C3.84766 0.769466 4.61712 0 5.64308 0C6.66903 0 7.4385 0.769466 7.4385 1.79542C7.37437 2.75725 6.60491 3.52672 5.64308 3.52672ZM5.64308 0.961832C5.19422 0.961832 4.87361 1.34656 4.87361 1.79542C4.80949 2.18015 5.19422 2.56489 5.64308 2.56489C6.02781 2.56489 6.41254 2.18015 6.41254 1.79542C6.41254 1.34656 6.02781 0.961832 5.64308 0.961832Z" fill="black"/>
<path d="M1.79514 8.20746C2.50341 8.20746 3.07758 7.63329 3.07758 6.92502C3.07758 6.21675 2.50341 5.64258 1.79514 5.64258C1.08686 5.64258 0.512695 6.21675 0.512695 6.92502C0.512695 7.63329 1.08686 8.20746 1.79514 8.20746Z" fill="white"/>
<path d="M1.79542 8.65562C0.833588 8.65562 0 7.88616 0 6.8602C0 5.89837 0.769466 5.12891 1.79542 5.12891C2.82137 5.12891 3.59084 5.89837 3.59084 6.92433C3.52672 7.88616 2.75725 8.65562 1.79542 8.65562ZM1.79542 6.09074C1.34656 6.09074 1.02595 6.47547 1.02595 6.8602C1.02595 7.30906 1.41069 7.62967 1.79542 7.62967C2.18015 7.69379 2.56489 7.30906 2.56489 6.92433C2.56489 6.47547 2.18015 6.09074 1.79542 6.09074Z" fill="black"/>
<path d="M5.00119 40.9106C5.70947 40.9106 6.28364 40.3364 6.28364 39.6281C6.28364 38.9199 5.70947 38.3457 5.00119 38.3457C4.29292 38.3457 3.71875 38.9199 3.71875 39.6281C3.71875 40.3364 4.29292 40.9106 5.00119 40.9106Z" fill="white"/>
<path d="M5.00147 41.3587C4.03964 41.3587 3.20605 40.5893 3.20605 39.5633C3.20605 38.6015 3.97552 37.832 5.00147 37.832C6.02743 37.832 6.79689 38.6015 6.79689 39.6274C6.73277 40.5893 5.96331 41.3587 5.00147 41.3587ZM5.00147 38.7939C4.55262 38.7939 4.23201 39.1786 4.23201 39.5633C4.23201 40.0122 4.61674 40.3328 5.00147 40.3328C5.38621 40.3969 5.77094 40.0122 5.77094 39.6274C5.77094 39.1786 5.38621 38.7939 5.00147 38.7939Z" fill="black"/>
<path d="M7.56669 27.1229C7.3102 27.1229 7.05371 26.9305 7.05371 26.6099V17.761C7.05371 17.5045 7.24608 17.248 7.56669 17.248C7.82318 17.248 8.07967 17.4404 8.07967 17.761V26.6099C8.01554 26.8664 7.82318 27.1229 7.56669 27.1229Z" fill="black"/>
<path d="M7.56669 31.0988C7.3102 31.0988 7.05371 30.9064 7.05371 30.5858V29.1751C7.05371 28.9186 7.24608 28.6621 7.56669 28.6621C7.82318 28.6621 8.07967 28.8545 8.07967 29.1751V30.5858C8.01554 30.8423 7.82318 31.0988 7.56669 31.0988Z" fill="black"/>
</svg>
