<svg width="42" height="42" viewBox="0 0 42 42" fill="none" xmlns="http://www.w3.org/2000/svg">
<path d="M33.8567 37.7031H8.20784C7.11777 37.7031 6.28418 38.5367 6.28418 39.6268V41.5505H35.7804V39.6268C35.7804 38.5367 34.8827 37.7031 33.8567 37.7031Z" fill="#F48C06"/>
<path d="M30.0094 37.7031H8.20784C7.11777 37.7031 6.28418 38.5367 6.28418 39.6268V41.5505H31.933V39.6268C31.933 38.5367 31.0353 37.7031 30.0094 37.7031Z" fill="white"/>
<path d="M35.7797 42.0002H6.28349C6.027 42.0002 5.77051 41.8079 5.77051 41.4873V39.5636C5.77051 38.217 6.86058 37.127 8.20715 37.127H33.856C35.2026 37.127 36.2926 38.217 36.2926 39.5636V41.4873C36.2285 41.8079 36.0362 42.0002 35.7797 42.0002ZM6.73234 41.0384H35.2667V39.6277C35.2667 38.8583 34.6255 38.217 33.856 38.217H8.20715C7.43768 38.217 6.79646 38.8583 6.79646 39.6277V41.0384H6.73234Z" fill="black"/>
<path d="M22.9557 5.00195H19.1084V37.7042H22.9557V5.00195Z" fill="#F48C06"/>
<path d="M21.0321 5.00195H19.1084V37.7042H21.0321V5.00195Z" fill="white"/>
<path d="M22.956 38.1524H19.1087C18.8522 38.1524 18.5957 37.96 18.5957 37.6394V4.93714C18.5957 4.68065 18.7881 4.48828 19.1087 4.48828H22.956C23.2125 4.48828 23.469 4.68065 23.469 5.00126V37.7035C23.4049 37.96 23.2125 38.1524 22.956 38.1524ZM19.5575 37.1906H22.443V5.45011H19.5575V37.1906Z" fill="black"/>
<path d="M21.0325 33.2148C18.5317 33.2148 16.5439 35.2026 16.5439 37.7034H25.521C25.521 35.2026 23.4691 33.2148 21.0325 33.2148Z" fill="white"/>
<path d="M21.0324 33.2148C20.5836 33.2148 20.1347 33.279 19.75 33.4072C21.6095 33.9843 22.9561 35.6515 22.9561 37.7034H25.521C25.521 35.2026 23.4691 33.2148 21.0324 33.2148Z" fill="#F48C06"/>
<path d="M25.5203 38.1532H16.5433C16.2868 38.1532 16.0303 37.9608 16.0303 37.6402C16.0303 34.8829 18.2745 32.6387 21.0318 32.6387C23.7891 32.6387 26.0333 34.8829 26.0333 37.6402C25.9692 37.9608 25.7768 38.1532 25.5203 38.1532ZM17.0562 37.1913H25.0074C24.7509 35.2036 23.0837 33.6646 21.0318 33.6646C18.9799 33.6646 17.2486 35.2036 17.0562 37.1913Z" fill="black"/>
<path d="M38.3453 18.9158H30.6507C30.5224 18.9158 30.3301 18.8516 30.2659 18.7234C30.1377 18.5952 30.1377 18.4669 30.1377 18.2745L33.985 4.80889C34.0491 4.61653 34.2415 4.48828 34.498 4.48828C34.6904 4.48828 34.8827 4.61653 34.9469 4.80889L38.7942 18.2745C38.8583 18.4028 38.7942 18.5952 38.7301 18.7234C38.6018 18.8516 38.4736 18.9158 38.3453 18.9158ZM31.2919 17.9539H37.7041L34.498 6.73256L31.2919 17.9539Z" fill="black"/>
<path d="M38.3451 32.5737H30.6504C28.855 32.5737 27.4443 31.163 27.4443 29.3676V21.6729C27.4443 19.8775 28.855 18.4668 30.6504 18.4668H38.3451C40.1405 18.4668 41.5512 19.8775 41.5512 21.6729V29.3676C41.5512 31.0989 40.0764 32.5737 38.3451 32.5737Z" fill="#F48C06"/>
<path d="M37.7039 30.65H30.0092C28.5985 30.65 27.4443 29.4958 27.4443 28.0851V21.6729C27.4443 19.8775 28.855 18.4668 30.6504 18.4668H37.0627C38.4733 18.4668 39.6275 19.621 39.6275 21.0317V28.7263C39.6275 29.7523 38.7298 30.65 37.7039 30.65Z" fill="white"/>
<path d="M38.3454 33.0238H30.6507C28.5988 33.0238 26.9316 31.3566 26.9316 29.3047V21.61C26.9316 19.5581 28.5988 17.9551 30.6507 17.9551H38.3454C40.3973 17.9551 42.0003 19.6223 42.0003 21.61V29.3047C42.0003 31.3566 40.3332 33.0238 38.3454 33.0238ZM30.6507 18.9169C29.1759 18.9169 27.9576 20.1352 27.9576 21.61V29.3047C27.9576 30.7795 29.1759 31.9978 30.6507 31.9978H38.3454C39.8202 31.9978 41.0385 30.7795 41.0385 29.3047V21.61C41.0385 20.1352 39.8202 18.9169 38.3454 18.9169H30.6507Z" fill="black"/>
<path d="M36.4855 25.5205L38.2168 23.7892C38.4733 23.5327 38.4733 23.148 38.2168 22.8915L37.0626 21.7373C36.8061 21.4808 36.4214 21.4808 36.1649 21.7373L34.4336 23.4686L32.7023 21.7373C32.4458 21.4808 32.0611 21.4808 31.8046 21.7373L30.6504 22.8915C30.3939 23.148 30.3939 23.5327 30.6504 23.7892L32.3817 25.5205L30.6504 27.2518C30.3939 27.5083 30.3939 27.893 30.6504 28.1495L31.8046 29.3037C32.0611 29.5602 32.4458 29.5602 32.7023 29.3037L34.4336 27.5724L36.1649 29.3037C36.4214 29.5602 36.8061 29.5602 37.0626 29.3037L38.2168 28.1495C38.4733 27.893 38.4733 27.5083 38.2168 27.2518L36.4855 25.5205Z" fill="white"/>
<path d="M36.4855 25.5205L38.2168 23.7892C38.4733 23.5327 38.4733 23.148 38.2168 22.8915L37.0626 21.7373C36.8061 21.4808 36.4214 21.4808 36.1649 21.7373L35.6519 22.2503L36.4855 23.0839C36.6138 23.2121 36.6138 23.4045 36.4855 23.5327L35.0107 25.0075C34.7542 25.264 34.7542 25.6487 35.0107 25.9052L36.4855 27.38C36.6138 27.5083 36.6138 27.7006 36.4855 27.8289L35.6519 28.6625L36.1649 29.1755C36.4214 29.4319 36.8061 29.4319 37.0626 29.1755L38.2168 28.0213C38.4733 27.7648 38.4733 27.38 38.2168 27.1235L36.4855 25.5205Z" fill="#F48C06"/>
<path d="M32.3179 29.8808C32.0614 29.8808 31.7408 29.7526 31.5485 29.5602L30.3943 28.406C29.9454 27.9572 29.9454 27.2518 30.3943 26.803L31.7408 25.4564L30.3943 24.1098C30.2019 23.9175 30.0736 23.5969 30.0736 23.3404C30.0736 23.0198 30.2019 22.7633 30.3943 22.5709L31.5485 21.4167C31.9973 20.9679 32.7027 20.9679 33.1515 21.4167L34.4981 22.7633L35.8446 21.4167C36.2935 20.9679 36.9988 20.9679 37.4477 21.4167L38.6019 22.5709C39.0507 23.0198 39.0507 23.7251 38.6019 24.174L37.1912 25.5205L38.5378 26.8671C38.9866 27.316 38.9866 28.0213 38.5378 28.4702L37.3836 29.6243C36.9347 30.0732 36.2294 30.0732 35.7805 29.6243L34.4981 28.2137L33.1515 29.5602C32.895 29.8167 32.5744 29.8808 32.3179 29.8808ZM32.3179 22.0579C32.2538 22.0579 32.2538 22.0579 32.1897 22.1221L31.0355 23.2763C30.9714 23.3404 30.9714 23.3404 30.9714 23.4045C30.9714 23.4045 30.9714 23.4686 31.0355 23.5327L32.7668 25.264C32.8309 25.3282 32.895 25.4564 32.895 25.5847C32.895 25.7129 32.8309 25.8411 32.7668 25.9053L31.0355 27.6366C30.9714 27.7007 30.9714 27.8289 31.0355 27.8931L32.1897 29.0472C32.2538 29.1114 32.382 29.1114 32.4462 29.0472L34.1775 27.316C34.3698 27.1236 34.6904 27.1236 34.8828 27.316L36.6141 29.0472C36.6782 29.1114 36.8065 29.1114 36.8706 29.0472L38.0248 27.8931C38.0889 27.8289 38.0889 27.7007 38.0248 27.6366L36.2935 25.9053C36.2294 25.8411 36.1653 25.7129 36.1653 25.5847C36.1653 25.4564 36.2294 25.3282 36.2935 25.264L38.0248 23.5327C38.0889 23.4686 38.0889 23.3404 38.0248 23.2763L36.8706 22.1221C36.8065 22.0579 36.6782 22.0579 36.6141 22.1221L34.8828 23.8534C34.6904 24.0457 34.3698 24.0457 34.1775 23.8534L32.4462 22.1221C32.382 22.0579 32.382 22.0579 32.3179 22.0579Z" fill="black"/>
<path d="M11.4137 18.9158H3.71903C3.59079 18.9158 3.39842 18.8516 3.3343 18.7234C3.20605 18.5952 3.20605 18.4669 3.20605 18.2745L7.05338 4.80889C7.11751 4.61653 7.30987 4.48828 7.56636 4.48828C7.75873 4.48828 7.95109 4.61653 8.01522 4.80889L11.8625 18.2745C11.9267 18.4028 11.8625 18.5952 11.7984 18.7234C11.6702 18.8516 11.5419 18.9158 11.4137 18.9158ZM4.36025 17.9539H10.7725L7.56636 6.73256L4.36025 17.9539Z" fill="black"/>
<path d="M11.4135 32.5737H3.7188C1.92338 32.5737 0.512695 31.163 0.512695 29.3676V21.6729C0.512695 19.8775 1.92338 18.4668 3.7188 18.4668H11.4135C13.2089 18.4668 14.6196 19.8775 14.6196 21.6729V29.3676C14.6196 31.0989 13.1448 32.5737 11.4135 32.5737Z" fill="#F48C06"/>
<path d="M10.7722 30.65H3.07758C1.66689 30.65 0.512695 29.4958 0.512695 28.0851V21.6729C0.512695 19.8775 1.92338 18.4668 3.7188 18.4668H10.131C11.5417 18.4668 12.6959 19.621 12.6959 21.0317V28.7263C12.6959 29.7523 11.7982 30.65 10.7722 30.65Z" fill="white"/>
<path d="M11.4137 33.0238H3.71908C1.66718 33.0238 0 31.3566 0 29.3047V21.61C0 19.6223 1.66718 17.9551 3.71908 17.9551H11.4137C13.4656 17.9551 15.1328 19.6223 15.1328 21.61V29.3047C15.0687 31.3566 13.4015 33.0238 11.4137 33.0238ZM3.71908 18.9169C2.24427 18.9169 1.02595 20.1352 1.02595 21.61V29.3047C1.02595 30.7795 2.24427 31.9978 3.71908 31.9978H11.4137C12.8885 31.9978 14.1069 30.7795 14.1069 29.3047V21.61C14.1069 20.1352 12.8885 18.9169 11.4137 18.9169H3.71908Z" fill="black"/>
<path d="M12.6319 24.046L10.58 21.9941L6.66858 25.9056L4.48843 23.7254L2.43652 25.7773L6.66858 30.0094L12.6319 24.046Z" fill="white"/>
<path d="M5.77054 27.3805L3.26978 24.8797L2.37207 25.7774L6.60413 30.0095L12.5675 24.0461L11.6698 23.1484L7.43772 27.3805C7.05299 27.8294 6.28352 27.8294 5.77054 27.3805Z" fill="#F48C06"/>
<path d="M6.66863 30.5224C6.54038 30.5224 6.41214 30.4583 6.34802 30.3942L2.11595 26.1621C1.92359 25.9698 1.92359 25.6491 2.11595 25.4568L4.16786 23.4049C4.36023 23.2125 4.68084 23.2125 4.87321 23.4049L6.73275 25.2644L10.3236 21.6736C10.516 21.4812 10.8366 21.4812 11.0289 21.6736L13.0808 23.7255C13.145 23.7896 13.2091 23.9178 13.2091 24.0461C13.2091 24.1743 13.145 24.3026 13.0808 24.3667L7.11748 30.3301C6.86099 30.4583 6.79687 30.5224 6.66863 30.5224ZM3.07779 25.7774L6.6045 29.3041L11.9266 23.982L10.5801 22.6354L6.98924 26.2904C6.79687 26.4827 6.47626 26.4827 6.28389 26.2904L4.48847 24.4308L3.07779 25.7774Z" fill="black"/>
<path d="M32.5745 5.45011H9.49052C9.23403 5.45011 8.97754 5.25775 8.97754 4.93714C8.97754 4.68065 9.16991 4.48828 9.49052 4.48828H32.5745C32.831 4.48828 33.0875 4.68065 33.0875 5.00126C33.0233 5.25775 32.831 5.45011 32.5745 5.45011Z" fill="black"/>
<path d="M7.56624 6.92545C8.62865 6.92545 9.48991 6.0642 9.48991 5.00179C9.48991 3.93938 8.62865 3.07812 7.56624 3.07812C6.50383 3.07812 5.64258 3.93938 5.64258 5.00179C5.64258 6.0642 6.50383 6.92545 7.56624 6.92545Z" fill="white"/>
<path d="M7.69518 3.07812C8.01579 3.39874 8.20816 3.84759 8.20816 4.36057C8.20816 5.45064 7.37457 6.28423 6.28449 6.28423C6.22037 6.28423 6.15625 6.28423 6.15625 6.28423C6.47686 6.66896 6.98984 6.92545 7.56694 6.92545C8.65701 6.92545 9.4906 6.09187 9.4906 5.00179C9.4906 3.97583 8.65701 3.14225 7.69518 3.07812Z" fill="#F48C06"/>
<path d="M7.56652 7.37361C6.21996 7.37361 5.12988 6.28354 5.12988 5.00109C5.12988 3.65453 6.21996 2.56445 7.56652 2.56445C8.91309 2.56445 10.0032 3.65453 10.0032 5.00109C9.93904 6.28354 8.84897 7.37361 7.56652 7.37361ZM7.56652 3.52629C6.79706 3.52629 6.15584 4.16751 6.15584 4.93697C6.15584 5.70644 6.79706 6.34766 7.56652 6.34766C8.33599 6.41178 8.97721 5.77056 8.97721 5.00109C8.97721 4.16751 8.33599 3.52629 7.56652 3.52629Z" fill="black"/>
<path d="M34.4979 6.92545C35.5603 6.92545 36.4215 6.0642 36.4215 5.00179C36.4215 3.93938 35.5603 3.07812 34.4979 3.07812C33.4355 3.07812 32.5742 3.93938 32.5742 5.00179C32.5742 6.0642 33.4355 6.92545 34.4979 6.92545Z" fill="white"/>
<path d="M34.6258 3.07812C34.9465 3.39874 35.1388 3.84759 35.1388 4.36057C35.1388 5.45064 34.3052 6.28423 33.2152 6.28423C33.151 6.28423 33.0869 6.28423 33.0869 6.28423C33.4075 6.66896 33.9205 6.92545 34.4976 6.92545C35.5877 6.92545 36.4213 6.09187 36.4213 5.00179C36.4213 3.97583 35.5877 3.14225 34.6258 3.07812Z" fill="#F48C06"/>
<path d="M34.4982 7.37361C33.1516 7.37361 32.0615 6.28354 32.0615 4.93697C32.0615 3.65453 33.1516 2.56445 34.4982 2.56445C35.8447 2.56445 36.9348 3.65453 36.9348 5.00109C36.8707 6.28354 35.7806 7.37361 34.4982 7.37361ZM34.4982 3.52629C33.7287 3.52629 33.0875 4.16751 33.0875 4.93697C33.0875 5.70644 33.7287 6.34766 34.4982 6.34766C35.2676 6.41178 35.9089 5.77056 35.9089 5.00109C35.9089 4.16751 35.2676 3.52629 34.4982 3.52629Z" fill="black"/>
<path d="M21.0325 9.49077C23.5115 9.49077 25.521 7.48118 25.521 5.00222C25.521 2.52326 23.5115 0.513672 21.0325 0.513672C18.5535 0.513672 16.5439 2.52326 16.5439 5.00222C16.5439 7.48118 18.5535 9.49077 21.0325 9.49077Z" fill="white"/>
<path d="M17.6338 1.98815C18.0826 1.85991 18.5956 1.73166 19.0445 1.73166C21.5452 1.73166 23.533 3.71945 23.533 6.22021C23.533 7.37441 23.0842 8.40036 22.3788 9.16983C24.1742 8.59273 25.4567 6.92555 25.4567 4.93777C25.4567 2.437 23.4689 0.449219 20.9681 0.449219C19.6857 0.513341 18.4674 1.09044 17.6338 1.98815Z" fill="#F48C06"/>
<path d="M21.0318 9.93893C18.2745 9.93893 16.0303 7.69466 16.0303 4.9374C16.0303 2.18015 18.2745 0 21.0318 0C23.7891 0 26.0333 2.24427 26.0333 5.00153C26.0333 7.75878 23.7249 9.93893 21.0318 9.93893ZM21.0318 0.961832C18.8516 0.961832 16.9921 2.75725 16.9921 4.9374C16.9921 7.11756 18.7875 8.91298 21.0318 8.91298C23.212 8.91298 25.0074 7.11756 25.0074 4.9374C25.0074 2.75725 23.212 0.961832 21.0318 0.961832Z" fill="black"/>
<path d="M21.0318 5.64182C21.386 5.64182 21.6731 5.35473 21.6731 5.0006C21.6731 4.64646 21.386 4.35938 21.0318 4.35938C20.6777 4.35938 20.3906 4.64646 20.3906 5.0006C20.3906 5.35473 20.6777 5.64182 21.0318 5.64182Z" fill="black"/>
<path d="M40.2688 11.4125C40.977 11.4125 41.5512 10.8384 41.5512 10.1301C41.5512 9.42183 40.977 8.84766 40.2688 8.84766C39.5605 8.84766 38.9863 9.42183 38.9863 10.1301C38.9863 10.8384 39.5605 11.4125 40.2688 11.4125Z" fill="white"/>
<path d="M40.2691 11.8627C39.3072 11.8627 38.4736 11.0932 38.4736 10.1314C38.4736 9.16953 39.2431 8.33594 40.2691 8.33594C41.2309 8.33594 42.0004 9.1054 42.0004 10.1314C42.0004 11.1573 41.2309 11.8627 40.2691 11.8627ZM40.2691 9.29777C39.8202 9.29777 39.4996 9.6825 39.4996 10.0672C39.4996 10.5161 39.8843 10.8367 40.2691 10.8367C40.7179 10.8367 41.0385 10.452 41.0385 10.0672C41.0385 9.6825 40.6538 9.29777 40.2691 9.29777Z" fill="black"/>
<path d="M38.9865 37.7036C39.6948 37.7036 40.269 37.1294 40.269 36.4211C40.269 35.7128 39.6948 35.1387 38.9865 35.1387C38.2783 35.1387 37.7041 35.7128 37.7041 36.4211C37.7041 37.1294 38.2783 37.7036 38.9865 37.7036Z" fill="white"/>
<path d="M38.9858 38.1533C38.024 38.1533 37.1904 37.3839 37.1904 36.3579C37.1904 35.3961 37.9599 34.5625 38.9858 34.5625C39.9477 34.5625 40.7813 35.332 40.7813 36.3579C40.7171 37.3839 39.9477 38.1533 38.9858 38.1533ZM38.9858 35.5885C38.537 35.5885 38.2164 35.9732 38.2164 36.3579C38.2164 36.8068 38.6011 37.1274 38.9858 37.1274C39.4347 37.1274 39.7553 36.7427 39.7553 36.3579C39.7553 35.9732 39.3706 35.5885 38.9858 35.5885Z" fill="black"/>
<path d="M1.79514 39.6274C2.50341 39.6274 3.07758 39.0532 3.07758 38.3449C3.07758 37.6367 2.50341 37.0625 1.79514 37.0625C1.08686 37.0625 0.512695 37.6367 0.512695 38.3449C0.512695 39.0532 1.08686 39.6274 1.79514 39.6274Z" fill="white"/>
<path d="M1.79542 40.0755C0.833588 40.0755 0 39.3061 0 38.2801C0 37.3183 0.769466 36.5488 1.79542 36.5488C2.82137 36.5488 3.59084 37.3183 3.59084 38.3442C3.52672 39.3061 2.75725 40.0755 1.79542 40.0755ZM1.79542 37.5107C1.34656 37.5107 1.02595 37.8954 1.02595 38.2801C1.02595 38.729 1.41069 39.0496 1.79542 39.0496C2.18015 39.0496 2.56489 38.729 2.56489 38.3442C2.56489 37.8954 2.18015 37.5107 1.79542 37.5107Z" fill="black"/>
<path d="M27.4446 15.9028C28.1528 15.9028 28.727 15.3286 28.727 14.6203C28.727 13.9121 28.1528 13.3379 27.4446 13.3379C26.7363 13.3379 26.1621 13.9121 26.1621 14.6203C26.1621 15.3286 26.7363 15.9028 27.4446 15.9028Z" fill="white"/>
<path d="M27.4439 16.3506C26.482 16.3506 25.6484 15.5811 25.6484 14.5552C25.6484 13.5934 26.4179 12.7598 27.4439 12.7598C28.4057 12.7598 29.2393 13.5292 29.2393 14.5552C29.1752 15.5811 28.4057 16.3506 27.4439 16.3506ZM27.4439 13.7857C26.995 13.7857 26.6744 14.1705 26.6744 14.5552C26.6744 15.004 27.0591 15.3247 27.4439 15.3247C27.8927 15.3247 28.2133 14.9399 28.2133 14.5552C28.2133 14.1705 27.8286 13.7857 27.4439 13.7857Z" fill="black"/>
<path d="M13.3371 13.3364C14.0454 13.3364 14.6196 12.7622 14.6196 12.0539C14.6196 11.3457 14.0454 10.7715 13.3371 10.7715C12.6289 10.7715 12.0547 11.3457 12.0547 12.0539C12.0547 12.7622 12.6289 13.3364 13.3371 13.3364Z" fill="white"/>
<path d="M13.3374 13.7862C12.3756 13.7862 11.542 13.0167 11.542 11.9907C11.542 11.0289 12.3115 10.1953 13.3374 10.1953C14.2992 10.1953 15.1328 10.9648 15.1328 11.9907C15.0687 13.0167 14.2992 13.7862 13.3374 13.7862ZM13.3374 11.2213C12.8886 11.2213 12.5679 11.606 12.5679 11.9907C12.5679 12.4396 12.9527 12.7602 13.3374 12.7602C13.7863 12.7602 14.1069 12.3755 14.1069 11.9907C14.1069 11.606 13.7221 11.2213 13.3374 11.2213Z" fill="black"/>
<path d="M1.79514 8.84809C2.50341 8.84809 3.07758 8.27392 3.07758 7.56565C3.07758 6.85737 2.50341 6.2832 1.79514 6.2832C1.08686 6.2832 0.512695 6.85737 0.512695 7.56565C0.512695 8.27392 1.08686 8.84809 1.79514 8.84809Z" fill="white"/>
<path d="M1.79542 9.2982C0.833588 9.2982 0 8.52874 0 7.50278C0 6.54095 0.769466 5.77148 1.79542 5.77148C2.82137 5.77148 3.59084 6.54095 3.59084 7.5669C3.52672 8.52874 2.75725 9.2982 1.79542 9.2982ZM1.79542 6.73332C1.34656 6.73332 1.02595 7.11805 1.02595 7.50278C1.02595 7.95164 1.41069 8.27225 1.79542 8.27225C2.18015 8.27225 2.56489 7.95164 2.56489 7.5669C2.56489 7.11805 2.18015 6.73332 1.79542 6.73332Z" fill="black"/>
</svg>
