<svg width="43" height="43" viewBox="0 0 43 43" fill="none" xmlns="http://www.w3.org/2000/svg">
<path d="M31.2845 41.7644H1.17793C0.785233 41.7644 0.523438 41.5067 0.523438 41.12V6.96569C3.07595 4.45245 4.51583 3.03473 7.06834 0.521484H31.2845C31.6772 0.521484 31.939 0.779253 31.939 1.16591V41.12C31.939 41.4422 31.6772 41.7644 31.2845 41.7644Z" fill="#F48C06"/>
<path d="M26.703 37.8334H0.523438V6.90124C3.07595 4.388 4.51583 2.97027 7.06834 0.457031H28.012V36.5446C28.012 37.3179 27.4884 37.8334 26.703 37.8334Z" fill="white"/>
<path d="M31.2846 42.2154H1.17808C0.523592 42.2154 0 41.6999 0 41.0555V6.90116C0 6.77228 0.065449 6.64339 0.130898 6.57895L6.6758 0.134744C6.87214 0.0703015 7.00304 0.00585938 7.13394 0.00585938H31.3501C32.0046 0.00585938 32.5281 0.521396 32.5281 1.16582V41.1199C32.4627 41.6999 31.9391 42.2154 31.2846 42.2154ZM1.04718 7.15893V41.1199C1.04718 41.1844 1.11263 41.2488 1.17808 41.2488H31.2846C31.3501 41.2488 31.4155 41.1844 31.4155 41.1199V1.16582C31.4155 1.10137 31.3501 1.03693 31.2846 1.03693H7.33029L1.04718 7.15893Z" fill="black"/>
<path d="M0.523438 6.96569L7.06834 0.521484V6.96569H0.523438Z" fill="#F48C06"/>
<path d="M0.523438 6.96429L3.79589 3.74219L7.06834 6.96429H0.523438Z" fill="white"/>
<path d="M7.13398 7.41665H0.589083C0.392736 7.41665 0.196389 7.28777 0.13094 7.09444C0.0654914 6.90111 0.0654914 6.70779 0.261838 6.5789L6.80674 0.134695C6.87219 0.00581074 7.13398 -0.0586313 7.26488 0.0702528C7.46123 0.134695 7.59213 0.328021 7.59213 0.521347V6.96556C7.59213 7.22333 7.39578 7.41665 7.13398 7.41665ZM1.76717 6.45002H6.61039V1.68131L1.76717 6.45002Z" fill="black"/>
<path d="M10.3413 32.5487H5.75992C5.49812 32.5487 5.23633 32.3553 5.23633 32.0331C5.30178 31.7754 5.49812 31.582 5.82537 31.582H10.4068C10.6686 31.582 10.9304 31.7754 10.9304 32.0976C10.8649 32.3553 10.6686 32.5487 10.3413 32.5487Z" fill="black"/>
<path d="M8.37788 35.7694H5.75992C5.49812 35.7694 5.23633 35.576 5.23633 35.2538C5.30178 34.9961 5.49812 34.8027 5.82537 34.8027H8.44333C8.70513 34.8027 8.96692 34.9961 8.96692 35.3183C8.90147 35.576 8.70513 35.7694 8.37788 35.7694Z" fill="black"/>
<path d="M23.4312 10.6405H18.8498C18.588 10.6405 18.3262 10.4471 18.3262 10.1894C18.3262 9.9316 18.5225 9.67383 18.8498 9.67383H23.4312C23.693 9.67383 23.9548 9.86715 23.9548 10.1894C23.9548 10.4471 23.7584 10.6405 23.4312 10.6405Z" fill="black"/>
<path d="M15.6427 10.6405H5.82535C5.56355 10.6405 5.30176 10.4471 5.30176 10.1894C5.30176 9.86715 5.4981 9.67383 5.82535 9.67383H15.6427C15.9045 9.67383 16.1663 9.86715 16.1663 10.1894C16.1008 10.4471 15.9045 10.6405 15.6427 10.6405Z" fill="black"/>
<path d="M23.4304 13.8612H14.922C14.6602 13.8612 14.3984 13.6678 14.3984 13.3456C14.3984 13.0878 14.5948 12.8301 14.922 12.8301H23.4304C23.6922 12.8301 23.954 13.0234 23.954 13.3456C23.954 13.6678 23.7576 13.8612 23.4304 13.8612Z" fill="black"/>
<path d="M11.7158 13.8612H5.82535C5.56355 13.8612 5.30176 13.6678 5.30176 13.3456C5.30176 13.0879 5.4981 12.8945 5.82535 12.8945H11.7158C11.9776 12.8945 12.2394 13.0879 12.2394 13.4101C12.1739 13.6678 11.9776 13.8612 11.7158 13.8612Z" fill="black"/>
<path d="M23.431 17.0838H19.5041C19.2423 17.0838 18.9805 16.8905 18.9805 16.5683C18.9805 16.3105 19.1768 16.0527 19.5041 16.0527H23.431C23.6928 16.0527 23.9546 16.2461 23.9546 16.5683C23.9546 16.8905 23.7582 17.0838 23.431 17.0838Z" fill="black"/>
<path d="M16.2972 17.0819H5.82535C5.56355 17.0819 5.30176 16.8885 5.30176 16.5663C5.30176 16.3086 5.4981 16.1152 5.82535 16.1152H16.2972C16.559 16.1152 16.8208 16.3086 16.8208 16.6308C16.7553 16.8885 16.559 17.0819 16.2972 17.0819Z" fill="black"/>
<path d="M21.4673 20.3065H16.8859C16.6241 20.3065 16.3623 20.1131 16.3623 19.7909C16.3623 19.5332 16.5587 19.2754 16.8859 19.2754H21.4673C21.7291 19.2754 21.9909 19.4687 21.9909 19.7909C21.9909 20.1131 21.7946 20.3065 21.4673 20.3065Z" fill="black"/>
<path d="M13.6792 20.3065H5.82535C5.56355 20.3065 5.30176 20.1131 5.30176 19.7909C5.30176 19.5332 5.4981 19.3398 5.82535 19.3398H13.6792C13.941 19.3398 14.2028 19.5332 14.2028 19.8554C14.1374 20.1131 13.941 20.3065 13.6792 20.3065Z" fill="black"/>
<path d="M21.4673 23.5272H13.6134C13.3516 23.5272 13.0898 23.3338 13.0898 23.0116C13.0898 22.7539 13.2862 22.4961 13.6134 22.4961H21.4673C21.7291 22.4961 21.9909 22.6894 21.9909 23.0116C21.9909 23.3338 21.7946 23.5272 21.4673 23.5272Z" fill="black"/>
<path d="M10.4068 23.5272H5.82535C5.56355 23.5272 5.30176 23.3339 5.30176 23.0116C5.30176 22.7539 5.4981 22.5605 5.82535 22.5605H10.4068C10.6686 22.5605 10.9304 22.7539 10.9304 23.0761C10.8649 23.3339 10.6686 23.5272 10.4068 23.5272Z" fill="black"/>
<path d="M16.2318 26.7498H5.75992C5.49812 26.7498 5.23633 26.5565 5.23633 26.2343C5.30178 25.9765 5.49812 25.7832 5.82537 25.7832H16.2972C16.559 25.7832 16.8208 25.9765 16.8208 26.2987C16.7554 26.5565 16.559 26.7498 16.2318 26.7498Z" fill="black"/>
<path d="M20.8784 7.41584H13.0246C12.7628 7.41584 12.501 7.22251 12.501 6.9003C12.501 6.64253 12.6973 6.38477 13.0246 6.38477H20.8784C21.1402 6.38477 21.3366 6.57809 21.3366 6.9003C21.3366 7.22251 21.1402 7.41584 20.8784 7.41584Z" fill="black"/>
<path d="M40.5126 19.8535H26.1139C25.0012 19.8535 24.1504 20.6913 24.1504 21.7868V35.3196L28.7318 32.0975H40.5126C41.6253 32.0975 42.4761 31.2598 42.4761 30.1642V21.7868C42.4761 20.6913 41.5598 19.8535 40.5126 19.8535Z" fill="#F48C06"/>
<path d="M39.8582 19.8535H26.1139C25.0012 19.8535 24.1504 20.6913 24.1504 21.7868V32.2264L27.2265 30.0354C27.7501 29.6487 28.47 29.4554 29.1245 29.4554H38.5492C39.2691 29.4554 39.8582 28.8754 39.8582 28.1665V19.8535Z" fill="white"/>
<path d="M24.1505 35.7726C24.0851 35.7726 24.0196 35.7726 23.9542 35.7081C23.7579 35.6437 23.627 35.4504 23.627 35.3215V21.7886C23.627 20.4354 24.7396 19.3398 26.114 19.3398H40.5128C41.8872 19.3398 42.9344 20.4354 42.9344 21.7886V30.1661C42.9344 31.5194 41.8218 32.6149 40.5128 32.6149H28.8629L24.4123 35.7726C24.3469 35.7726 24.216 35.7726 24.1505 35.7726ZM26.114 20.3065C25.3286 20.3065 24.6741 20.9509 24.6741 21.7886V34.3549L28.4702 31.6483C28.5356 31.5838 28.6665 31.5838 28.732 31.5838H40.5128C41.2982 31.5838 41.9527 30.9394 41.9527 30.1661V21.7886C41.9527 21.0153 41.2982 20.3065 40.5128 20.3065H26.114Z" fill="black"/>
<path d="M35.9316 6.90039H30.6957C28.1432 6.90039 26.1143 8.8981 26.1143 11.4113V15.2779H29.3867V12.0558C29.3867 10.9602 30.2375 10.1225 31.3502 10.1225H35.2771C36.3898 10.1225 37.2406 10.9602 37.2406 12.0558V19.7888H40.513V11.4113C40.513 8.96254 38.4187 6.90039 35.9316 6.90039Z" fill="white"/>
<path d="M35.9316 6.90039H32.6592C35.2117 6.90039 37.2406 8.8981 37.2406 11.4113V12.0558V19.7888H40.5131V11.4113C40.5131 8.96254 38.4187 6.90039 35.9316 6.90039Z" fill="#F48C06"/>
<path d="M40.5132 20.3043H37.2407C36.9789 20.3043 36.7172 20.1109 36.7172 19.7887V12.0557C36.7172 11.2824 36.0627 10.6379 35.2773 10.6379H31.3503C30.5649 10.6379 29.9105 11.2824 29.9105 12.0557V15.2778C29.9105 15.5355 29.7141 15.7933 29.3869 15.7933H26.1144C25.8526 15.7933 25.5908 15.6 25.5908 15.2778V11.4112C25.5908 8.64024 27.8815 6.38477 30.6958 6.38477H35.9318C38.7461 6.38477 41.0368 8.64024 41.0368 11.4112V19.7887C40.9713 20.1109 40.775 20.3043 40.5132 20.3043ZM37.6989 19.3376H39.9896V11.4112C39.9896 9.22022 38.157 7.41584 35.9318 7.41584H30.6958C28.4706 7.41584 26.638 9.22022 26.638 11.4112V14.8267H28.8633V12.0557C28.8633 10.7024 29.9759 9.60687 31.3503 9.60687H35.2773C36.6517 9.60687 37.7643 10.7024 37.7643 12.0557V19.3376H37.6989Z" fill="black"/>
<path d="M33.314 27.5873C34.2176 27.5873 34.9502 26.866 34.9502 25.9763C34.9502 25.0865 34.2176 24.3652 33.314 24.3652C32.4103 24.3652 31.6777 25.0865 31.6777 25.9763C31.6777 26.866 32.4103 27.5873 33.314 27.5873Z" fill="white"/>
<path d="M33.3131 28.0383C32.135 28.0383 31.2188 27.0717 31.2188 25.9762C31.2188 24.8807 32.135 23.8496 33.3131 23.8496C34.4912 23.8496 35.4075 24.8162 35.4075 25.9118C35.4075 27.0073 34.4258 28.0383 33.3131 28.0383ZM33.3131 24.8162C32.6586 24.8162 32.135 25.3318 32.135 25.9762C32.135 26.6206 32.6586 27.1362 33.3131 27.1362C33.9676 27.1362 34.4912 26.6206 34.4912 25.9762C34.4258 25.3318 33.9022 24.8162 33.3131 24.8162Z" fill="black"/>
<path d="M16.8861 39.1235C19.4164 39.1235 21.4675 37.1038 21.4675 34.6125C21.4675 32.1212 19.4164 30.1016 16.8861 30.1016C14.3559 30.1016 12.3047 32.1212 12.3047 34.6125C12.3047 37.1038 14.3559 39.1235 16.8861 39.1235Z" fill="white"/>
<path d="M19.0458 30.6152C19.373 31.2597 19.5694 31.9685 19.5694 32.6774C19.5694 35.1906 17.5404 37.1883 14.9879 37.1883C14.2025 37.1883 13.4826 36.995 12.8936 36.6728C13.6789 38.0905 15.1843 39.1216 16.9514 39.1216C19.5039 39.1216 21.5328 37.1239 21.5328 34.6106C21.4674 32.8707 20.4856 31.3885 19.0458 30.6152Z" fill="#F48C06"/>
<path d="M16.9517 39.6389C14.1374 39.6389 11.8467 37.3834 11.8467 34.6124C11.8467 31.8414 14.1374 29.5859 16.9517 29.5859C19.766 29.5859 21.9913 31.8414 21.9913 34.6124C21.9913 37.3834 19.7006 39.6389 16.9517 39.6389ZM16.9517 30.617C14.7264 30.617 12.8939 32.4214 12.8939 34.6124C12.8939 36.8035 14.7264 38.6078 16.9517 38.6078C19.177 38.6078 21.0095 36.8035 21.0095 34.6124C21.0095 32.4214 19.177 30.617 16.9517 30.617Z" fill="black"/>
<path d="M16.8857 37.7043C16.6239 37.7043 16.4275 37.511 16.4275 37.1887C16.4275 36.931 16.6239 36.6732 16.9511 36.7376C17.2129 36.7376 17.4747 36.931 17.4747 37.2532C17.4093 37.511 17.2129 37.7043 16.8857 37.7043ZM18.391 36.8021C18.1947 36.6088 18.1947 36.2866 18.391 36.0932C18.5873 35.8999 18.9146 35.8999 19.1109 36.0932C19.3073 36.2866 19.3073 36.6088 19.1109 36.8021C19.0455 36.8665 18.9146 36.931 18.7837 36.931C18.6528 36.931 18.5219 36.931 18.391 36.8021ZM14.7259 36.8021C14.5295 36.6088 14.5295 36.2866 14.7259 36.0932C14.9222 35.8999 15.2494 35.8999 15.4458 36.0932C15.6421 36.2866 15.6421 36.6088 15.4458 36.8021C15.3803 36.931 15.2494 36.931 15.1186 36.931C14.9222 36.931 14.7913 36.931 14.7259 36.8021ZM19.5036 35.1266C19.2418 35.1266 19.0455 34.9333 19.0455 34.6111C19.0455 34.3533 19.2418 34.16 19.5691 34.16C19.8309 34.16 20.0927 34.3533 20.0927 34.6755C20.0272 34.9333 19.8309 35.1266 19.5036 35.1266ZM13.8096 34.6755C13.8096 34.6111 13.8096 34.6111 13.8096 34.6755C13.8096 34.3533 14.0059 34.16 14.3332 34.16C14.595 34.16 14.7913 34.3533 14.7913 34.6755C14.7913 34.9333 14.595 35.191 14.2677 35.191C14.0059 35.1266 13.8096 34.9333 13.8096 34.6755ZM18.4564 33.1933C18.2601 33 18.2601 32.6778 18.4564 32.4845C18.6528 32.2911 18.98 32.2911 19.1764 32.4845C19.3727 32.6778 19.3727 33 19.1764 33.1933C19.1109 33.3222 18.98 33.3222 18.8491 33.3222C18.6528 33.3222 18.5219 33.2578 18.4564 33.1933ZM14.7259 33.1289C14.5295 32.9356 14.5295 32.6134 14.7259 32.42C14.9222 32.2267 15.2494 32.2267 15.4458 32.42C15.6421 32.6134 15.6421 32.9356 15.4458 33.1289C15.3803 33.1933 15.2494 33.2578 15.1186 33.2578C14.9877 33.2578 14.8568 33.2578 14.7259 33.1289ZM16.9511 32.5489C16.6893 32.5489 16.4275 32.3556 16.4275 32.0334C16.4275 31.7756 16.6893 31.5178 16.9511 31.5823C17.2129 31.5823 17.4747 31.7756 17.4093 32.0978C17.4093 32.3556 17.2129 32.5489 16.9511 32.5489Z" fill="black"/>
<path d="M37.2402 40.9276H34.6222C34.3604 40.9276 34.0986 40.7342 34.0986 40.412C34.0986 40.1543 34.295 39.8965 34.6222 39.8965H37.2402C37.502 39.8965 37.7638 40.0898 37.7638 40.412C37.6983 40.7342 37.502 40.9276 37.2402 40.9276Z" fill="black"/>
<path d="M35.9318 42.2142C35.67 42.2142 35.4082 42.0209 35.4082 41.6987V39.121C35.4082 38.8632 35.6045 38.6055 35.9318 38.6055C36.1936 38.6055 36.4554 38.7988 36.4554 39.121V41.6987C36.3899 42.0209 36.1936 42.2142 35.9318 42.2142Z" fill="black"/>
<path d="M42.4765 36.4158H39.8586C39.5968 36.4158 39.335 36.2225 39.335 35.9003C39.335 35.6425 39.5313 35.3848 39.8586 35.3848H42.4765C42.7383 35.3848 43.0001 35.5781 43.0001 35.9003C42.9347 36.2225 42.7383 36.4158 42.4765 36.4158Z" fill="black"/>
<path d="M41.1671 37.7045C40.9054 37.7045 40.6436 37.5111 40.6436 37.1889V34.6112C40.6436 34.3535 40.8399 34.0957 41.1671 34.0957C41.4289 34.0957 41.6907 34.289 41.6907 34.6112V37.1889C41.6253 37.5111 41.4289 37.7045 41.1671 37.7045Z" fill="black"/>
<path d="M39.204 3.55062H36.5861C36.3243 3.55062 36.0625 3.35729 36.0625 3.03508C36.0625 2.77731 36.2588 2.58398 36.5861 2.58398H39.204C39.4658 2.58398 39.7276 2.77731 39.7276 3.09952C39.6622 3.35729 39.4658 3.55062 39.204 3.55062Z" fill="black"/>
<path d="M37.8947 4.83924C37.6329 4.83924 37.3711 4.64591 37.3711 4.3237V1.74602C37.3711 1.48825 37.5674 1.29492 37.8947 1.29492C38.2219 1.29492 38.4183 1.48825 38.4183 1.81046V4.38814C38.3528 4.64591 38.1565 4.83924 37.8947 4.83924Z" fill="black"/>
</svg>
