<svg width="22" height="30" viewBox="0 0 22 30" fill="none" xmlns="http://www.w3.org/2000/svg">
<path d="M14.4913 29.2696H0.478261C0.23913 29.2696 0 29.0783 0 28.7913V0.478261C0 0.23913 0.191304 0 0.478261 0H21.5217C21.6652 0 21.7609 0.0478261 21.8565 0.143478C21.9522 0.23913 22 0.334783 22 0.478261L21.9043 21.8087C21.9043 21.9522 21.8565 22.0478 21.7609 22.1435L14.8261 29.1261C14.7304 29.2217 14.6348 29.2696 14.4913 29.2696ZM0.908696 28.3609H14.3L20.9478 21.6174L21.0435 0.908696H0.908696V28.3609Z" fill="#B0B0B0"/>
<path d="M14.4919 29.2692C14.4441 29.2692 14.3963 29.2692 14.3006 29.2214C14.1093 29.1736 14.0137 28.9823 14.0137 28.7909V25.2996C14.0137 22.5257 15.2093 21.3301 17.9354 21.3301H21.3789C21.5702 21.3301 21.7137 21.4257 21.8093 21.617C21.8572 21.8083 21.8572 21.9996 21.7137 22.0953L14.8267 29.1257C14.7311 29.2214 14.6354 29.2692 14.4919 29.2692ZM17.9832 22.2388C15.7832 22.2388 14.9702 23.0518 14.9702 25.2996V27.6909L20.3267 22.2388H17.9832Z" fill="#B0B0B0"/>
<path d="M21.4732 0.478516H0.525391V7.55678H21.4732V0.478516Z" fill="#B0B0B0"/>
<path d="M6.79156 6.02618H5.97852V5.30879H6.79156V6.02618ZM8.36982 4.54357V6.02618H7.55678V2.00879H9.13504C9.6133 2.00879 9.94808 2.15227 10.235 2.3914C10.522 2.5827 10.6655 2.86966 10.6655 3.30009C10.6655 3.6827 10.522 4.01748 10.2829 4.20879C9.99591 4.44792 9.66112 4.54357 9.18286 4.54357H8.36982ZM8.36982 3.92183H9.18286C9.42199 3.92183 9.56547 3.87401 9.66112 3.73053C9.75678 3.63488 9.85243 3.44357 9.85243 3.25227C9.85243 3.06096 9.8046 2.91748 9.66112 2.77401C9.56547 2.63053 9.37417 2.5827 9.18286 2.5827H8.36982V3.92183ZM11.2394 6.02618V2.00879H12.6263C13.1046 2.00879 13.535 2.15227 13.822 2.48705C14.1568 2.77401 14.3003 3.20444 14.3003 3.6827V4.35227C14.3003 4.83053 14.1568 5.26096 13.822 5.54792C13.4872 5.8827 13.1046 6.02618 12.6263 6.02618H11.2394ZM12.0524 2.63053V5.40444H12.5785C12.8655 5.40444 13.1046 5.30879 13.2481 5.11748C13.3916 4.92618 13.4872 4.68705 13.4872 4.35227V3.6827C13.4872 3.34792 13.3916 3.10879 13.2481 2.91748C13.1046 2.72618 12.8655 2.63053 12.5785 2.63053H12.0524ZM17.3611 4.35227H15.6872V6.02618H14.8742V2.00879H17.6003V2.63053H15.6394V3.73053H17.3133V4.35227H17.3611Z" fill="#FEFEFE"/>
<path d="M14.7784 17.8389C14.3479 17.8389 13.774 17.8867 13.1523 18.0302C12.2436 17.0737 11.3349 15.6867 10.7132 14.3476C11.3349 11.5737 11.0479 11.191 10.9045 11.0476C10.761 10.8563 10.5218 10.5215 10.2827 10.5215C10.1871 10.5215 9.90011 10.5693 9.80446 10.6171C9.5175 10.7128 9.37402 10.9519 9.23055 11.191C8.89576 12.0041 9.37402 13.391 9.85228 14.4432C9.42185 16.1171 8.75228 18.078 8.03489 19.7041C6.2175 20.565 5.21315 21.378 5.16533 22.191C5.1175 22.478 5.21315 22.9084 5.69141 23.291C5.83489 23.3867 5.97837 23.4345 6.16968 23.4345C6.60011 23.4345 7.03055 23.0997 7.50881 22.3824C7.84359 21.8563 8.27402 21.1867 8.65663 20.3258C9.94794 19.7519 11.574 19.2258 12.9132 18.9389C13.6784 19.6563 14.3479 20.0389 14.9697 20.0389C15.4001 20.0389 15.7827 19.8476 16.0218 19.465C16.3088 19.0824 16.3566 18.6997 16.2132 18.4128C15.974 18.0302 15.5436 17.8389 14.7784 17.8389ZM6.12185 22.5737C5.88272 22.3824 5.93055 22.2867 5.93055 22.2389C5.97837 21.9519 6.36098 21.4737 7.41315 20.8997C6.60011 22.3345 6.16968 22.5258 6.12185 22.5737ZM10.0914 11.3345C10.1392 11.3345 10.6175 11.8606 10.1392 12.9128C9.42185 12.1954 10.0436 11.3824 10.0914 11.3345ZM9.08707 19.178C9.56533 17.9824 10.0436 16.6911 10.3784 15.4954C10.9045 16.4997 11.574 17.4563 12.2436 18.2215C11.1914 18.4606 10.0914 18.7954 9.08707 19.178ZM15.3523 18.9389C15.2088 19.1302 14.874 19.1302 14.7784 19.1302C14.5392 19.1302 14.4436 18.9867 14.0132 18.6519C14.3479 18.6041 14.6349 18.6041 14.874 18.6041C15.3045 18.6041 15.3523 18.6519 15.4479 18.6997C15.4479 18.7954 15.4001 18.8432 15.3523 18.9389Z" fill="#B0B0B0"/>
</svg>
