<svg width="42" height="43" viewBox="0 0 42 43" fill="none" xmlns="http://www.w3.org/2000/svg">
<path d="M29.5655 42.5407H4.43164V7.09028L29.5655 0.525391V42.5407Z" fill="#F48C06"/>
<path d="M26.9198 42.5416H4.43164V9.65154L26.06 4.00574C26.4568 3.87444 26.9198 4.20268 26.9198 4.66222V42.5416Z" fill="white"/>
<path d="M29.5653 43H4.43148C4.16691 43 3.90234 42.8031 3.90234 42.4748V7.02443C3.90234 6.82748 4.03463 6.63053 4.29919 6.56489L29.4331 0C29.6315 0 29.7638 0 29.896 0.131298C30.0283 0.196947 30.0945 0.393893 30.0945 0.525191V42.5405C30.0945 42.8031 29.896 43 29.5653 43ZM4.96061 42.0153H29.1023V1.11603L4.96061 7.41832V42.0153Z" fill="black"/>
<path d="M36.1797 7.0918H4.43164V42.5422H36.1797V7.0918Z" fill="#F48C06"/>
<path d="M33.534 42.5412H4.43164V9.7168H32.8726C33.2694 9.7168 33.534 9.97939 33.534 10.3733V42.5412Z" fill="white"/>
<path d="M36.1795 43.0015H4.43148C4.16691 43.0015 3.90234 42.8046 3.90234 42.4763V7.02595C3.96849 6.76335 4.16691 6.56641 4.43148 6.56641H36.1795C36.4441 6.56641 36.7086 6.76335 36.7086 7.0916V42.542C36.7086 42.8046 36.5102 43.0015 36.1795 43.0015ZM4.96061 42.0168H35.7165V7.55114H4.96061V42.0168Z" fill="black"/>
<path d="M28.9042 38.603H11.7073C11.3105 38.603 11.0459 38.3404 11.0459 37.9465V35.3206C11.0459 34.9267 11.3105 34.6641 11.7073 34.6641H28.9042C29.301 34.6641 29.5656 34.9267 29.5656 35.3206V37.9465C29.5656 38.2747 29.301 38.603 28.9042 38.603Z" fill="#F48C06"/>
<path d="M26.2585 38.603H11.7073C11.3105 38.603 11.0459 38.3404 11.0459 37.9465V35.3206C11.0459 34.9267 11.3105 34.6641 11.7073 34.6641H26.2585V38.603Z" fill="white"/>
<path d="M28.904 39.0616H11.7072C11.0457 39.0616 10.5166 38.5364 10.5166 37.8799V35.2539C10.5166 34.5975 11.0457 34.0723 11.7072 34.0723H28.904C29.5654 34.0723 30.0946 34.5975 30.0946 35.2539V37.8799C30.0946 38.5364 29.5654 39.0616 28.904 39.0616ZM11.7072 35.1226C11.641 35.1226 11.5749 35.1883 11.5749 35.2539V37.8799C11.5749 37.9455 11.641 38.0112 11.7072 38.0112H28.904C28.9701 38.0112 29.0363 37.9455 29.0363 37.8799V35.2539C29.0363 35.1883 28.9701 35.1226 28.904 35.1226H11.7072Z" fill="black"/>
<path d="M13.4932 16.6091C14.8821 15.6243 16.5357 15.0335 18.3215 15.0335C22.8853 15.0335 26.5231 18.7098 26.5231 23.1739C26.5231 24.9465 25.9278 26.5877 24.9357 27.9663C26.9861 26.4564 28.3089 24.093 28.3089 21.3358C28.3089 16.806 24.605 13.1953 20.1073 13.1953C17.3955 13.261 15.0144 14.5739 13.4932 16.6091Z" fill="#F48C06"/>
<path d="M18.8506 17.4626L20.3718 18.7756L22.4884 19.2351L23.0175 21.3359L24.3404 22.9115L25.7293 21.3359L24.3404 19.6947L24.2081 17.5939L22.0915 17.4626L20.438 16.084L18.8506 17.4626Z" fill="#F48C06"/>
<path d="M26.1917 21.3368C26.1917 21.4681 26.1255 21.5338 26.0594 21.5994L24.8027 23.1093L24.6704 25.0788C24.6704 25.2758 24.472 25.4727 24.2736 25.4727L22.2893 25.604L20.7019 26.917C20.5696 27.0483 20.3051 27.0483 20.1066 26.917L18.6515 25.604L16.6673 25.4727C16.4688 25.4727 16.2704 25.2758 16.2704 25.0788L16.1381 23.1093L14.8814 21.5994C14.7492 21.4681 14.7492 21.2055 14.8814 21.0086L16.1381 19.4987L16.2704 17.5292C16.2704 17.3322 16.4688 17.1353 16.6673 17.1353L18.6515 17.004L20.1728 15.7567C20.3051 15.6254 20.5696 15.6254 20.7681 15.7567L22.2893 17.004L24.2736 17.1353C24.472 17.1353 24.6704 17.3322 24.6704 17.5292L24.8027 19.4987L26.0594 21.0086C26.1255 21.1399 26.1917 21.2055 26.1917 21.3368ZM23.7444 24.6193L23.8767 22.9124C23.8767 22.8468 23.9429 22.7155 24.009 22.6498L25.1334 21.3368L24.009 20.0239C23.9429 19.9582 23.9429 19.8926 23.8767 19.7613L23.7444 18.0544L22.0247 17.9231C21.9586 17.9231 21.8263 17.8574 21.7602 17.7918L20.4373 16.6758L19.1145 17.7918C19.0484 17.8574 18.9822 17.8574 18.8499 17.9231L17.1303 18.0544L16.998 19.7613C16.998 19.8269 16.9318 19.9582 16.8657 20.0239L15.7413 21.3368L16.8657 22.6498C16.9318 22.7155 16.9318 22.7811 16.998 22.9124L17.1303 24.6193L18.8499 24.7506C18.9161 24.7506 19.0484 24.8162 19.1145 24.8819L20.4373 25.9979L21.7602 24.8819C21.8263 24.8162 21.8925 24.8162 22.0247 24.7506L23.7444 24.6193Z" fill="black"/>
<path d="M2.44718 33.1542C2.31489 33.1542 2.18261 33.0886 2.11647 33.0229L0.132217 31.0534C-0.0662079 30.8565 -0.0662079 30.5283 0.132217 30.3313C0.330643 30.1344 0.661351 30.1344 0.859776 30.3313L2.84403 32.3008C3.04245 32.4977 3.04245 32.826 2.84403 33.0229C2.71175 33.0886 2.57946 33.1542 2.44718 33.1542Z" fill="#2B5185"/>
<path d="M0.462926 33.1542C0.330643 33.1542 0.198359 33.0886 0.132217 33.0229C-0.0662079 32.826 -0.0662079 32.4977 0.132217 32.3008L2.11647 30.3313C2.31489 30.1344 2.6456 30.1344 2.84403 30.3313C3.04245 30.5283 3.04245 30.8565 2.84403 31.0534L0.859776 33.0229C0.727493 33.0886 0.59521 33.1542 0.462926 33.1542Z" fill="black"/>
<path d="M40.2138 37.748C40.0815 37.748 39.9492 37.6823 39.8831 37.6167L37.8988 35.6472C37.7004 35.4502 37.7004 35.122 37.8988 34.9251C38.0972 34.7281 38.428 34.7281 38.6264 34.9251L40.6106 36.8945C40.8091 37.0915 40.8091 37.4197 40.6106 37.6167C40.4122 37.6823 40.2799 37.748 40.2138 37.748Z" fill="black"/>
<path d="M38.2295 37.748C38.0972 37.748 37.965 37.6823 37.8988 37.6167C37.7004 37.4197 37.7004 37.0915 37.8988 36.8945L39.8831 34.9251C40.0815 34.7281 40.4122 34.7281 40.6106 34.9251C40.8091 35.122 40.8091 35.4502 40.6106 35.6472L38.6264 37.6167C38.428 37.6823 38.2957 37.748 38.2295 37.748Z" fill="black"/>
<path d="M41.537 28.5585C41.4047 28.5585 41.2725 28.4929 41.2063 28.4272L39.2221 26.4577C39.0236 26.2608 39.0236 25.9325 39.2221 25.7356C39.4205 25.5387 39.7512 25.5387 39.9496 25.7356L41.9339 27.7051C42.1323 27.902 42.1323 28.2303 41.9339 28.4272C41.7354 28.4929 41.6032 28.5585 41.537 28.5585Z" fill="black"/>
<path d="M39.5528 28.5585C39.4205 28.5585 39.2882 28.4929 39.2221 28.4272C39.0236 28.2303 39.0236 27.902 39.2221 27.7051L41.2063 25.7356C41.4047 25.5387 41.7354 25.5387 41.9339 25.7356C42.1323 25.9325 42.1323 26.2608 41.9339 26.4577L39.9496 28.4272C39.7512 28.4929 39.6189 28.5585 39.5528 28.5585Z" fill="black"/>
<path d="M34.2616 4.92374C34.1293 4.92374 33.9971 4.85809 33.9309 4.79244L31.9467 2.82297C31.7482 2.62603 31.7482 2.29778 31.9467 2.10083C32.1451 1.90389 32.4758 1.90389 32.6742 2.10083L34.6585 4.0703C34.8569 4.26725 34.8569 4.59549 34.6585 4.79244C34.4601 4.85809 34.3278 4.92374 34.2616 4.92374Z" fill="black"/>
<path d="M32.2774 4.92374C32.1451 4.92374 32.0128 4.85809 31.9467 4.79244C31.7482 4.59549 31.7482 4.26725 31.9467 4.0703L33.9309 2.10083C34.1293 1.90389 34.4601 1.90389 34.6585 2.10083C34.8569 2.29778 34.8569 2.62603 34.6585 2.82297L32.6742 4.79244C32.4758 4.85809 32.3435 4.92374 32.2774 4.92374Z" fill="black"/>
<path d="M11.1122 2.95499C10.9799 2.95499 10.8476 2.88934 10.7815 2.82369L8.79726 0.854222C8.59883 0.657276 8.59883 0.329031 8.79726 0.132085C8.99568 -0.0648616 9.32639 -0.0648616 9.52481 0.132085L11.5091 2.10155C11.7075 2.2985 11.7075 2.62674 11.5091 2.82369C11.3106 2.88934 11.1784 2.95499 11.1122 2.95499Z" fill="black"/>
<path d="M9.12797 2.95499C8.99568 2.95499 8.8634 2.88934 8.79726 2.82369C8.59883 2.62674 8.59883 2.2985 8.79726 2.10155L10.7815 0.132085C10.9799 -0.0648616 11.3106 -0.0648616 11.5091 0.132085C11.7075 0.329031 11.7075 0.657276 11.5091 0.854222L9.52481 2.82369C9.32639 2.88934 9.19411 2.95499 9.12797 2.95499Z" fill="black"/>
<path d="M29.0359 21.5336C29.0359 26.2603 25.1335 30.1336 20.3713 30.1336C15.6091 30.1336 11.6406 26.2603 11.6406 21.5336C11.6406 16.8069 15.543 12.9336 20.3052 12.9336C25.0674 12.9336 29.0359 16.7412 29.0359 21.5336ZM12.5666 21.5336C12.5666 25.8008 16.0721 29.2802 20.3713 29.2802C24.6705 29.2802 28.1761 25.8008 28.1761 21.5336C28.1761 17.2664 24.6705 13.787 20.3713 13.787C16.0721 13.787 12.5666 17.2664 12.5666 21.5336Z" fill="black"/>
</svg>
