<svg width="158" height="44" viewBox="0 0 158 44" fill="none" xmlns="http://www.w3.org/2000/svg">
<g clip-path="url(#clip0)">
<path d="M6.29998 2.70039C6.29998 3.00039 6.09998 3.20039 5.59998 3.30039C5.09998 3.40039 4.79998 3.50039 4.59998 3.60039C3.19998 5.00039 2.59998 6.90039 2.59998 9.10039C2.59998 10.2004 2.79998 11.2004 3.09998 12.1004C3.39998 12.9004 3.59998 13.4004 3.69998 13.6004C3.99998 14.2004 4.39998 14.6004 4.79998 14.9004C4.99998 15.0004 5.19998 15.1004 5.29998 15.1004C5.49998 15.2004 5.59998 15.4004 5.59998 15.6004C5.59998 15.8004 5.49998 16.0004 5.39998 16.1004C5.29998 16.3004 5.09998 16.3004 4.99998 16.3004C4.79998 16.3004 4.59998 16.2004 4.29998 16.1004C3.69998 15.8004 3.09998 15.0004 2.39998 13.9004C2.19998 13.6004 2.09998 13.3004 1.89998 13.0004C1.69998 12.7004 1.59998 12.4004 1.49998 12.2004C1.39998 12.0004 1.29998 11.2004 1.19998 9.90039C1.19998 9.50039 1.09998 9.10039 1.09998 8.70039C1.09998 6.60039 1.69998 4.70039 2.99998 3.20039C3.69998 2.30039 4.49998 1.90039 5.29998 1.90039C5.59998 1.90039 5.89998 2.00039 6.19998 2.20039C6.29998 2.30039 6.29998 2.40039 6.29998 2.70039Z" fill="#DADADA"/>
<path d="M13.5 13.7006C13.5 13.7006 13.6 13.8006 13.6 13.9006C13.6 14.2006 13.3 14.4006 12.7 14.5006C12.1 14.0006 11.3 13.2006 10.3 12.2006C9.2 11.1006 8.4 10.3006 7.9 9.80059C7.9 10.1006 7.8 10.9006 7.7 12.3006C7.6 13.3006 7.5 14.1006 7.4 14.7006C7.4 14.7006 7.3 14.7006 7.2 14.8006C7.1 14.9006 7 14.9006 6.9 14.9006C6.3 14.7006 6 14.4006 6 13.7006C6 13.5006 6 13.3006 6.1 13.0006C6.1 12.6006 6.2 12.4006 6.2 12.3006C6.2 11.6006 6.3 10.8006 6.3 9.80059V7.80059C6.3 6.20059 6.4 4.80059 6.6 3.60059C6.7 2.80059 7.4 2.50059 8.7 2.60059C9.4 2.60059 9.9 3.00059 10.4 3.60059C10.8 4.20059 11 4.90059 11 5.60059C11 6.20059 10.8 6.70059 10.4 7.30059C10 7.80059 9.6 8.20059 9.1 8.50059C8.8 8.60059 8.7 8.70059 8.7 8.90059C8.7 9.10059 8.8 9.20059 9.1 9.50059C9.3 9.70059 9.5 9.80059 9.7 10.0006C9.7 10.0006 10.4 10.6006 11.7 11.8006C12.5 12.5006 13.1 13.1006 13.5 13.7006ZM9.6 5.60059C9.6 5.40059 9.6 5.20059 9.6 5.00059C9.6 4.70059 9.5 4.50059 9.3 4.30059C9.1 4.10059 8.9 4.00059 8.5 4.00059C8.2 4.00059 8 4.10059 8 4.30059C7.9 4.60059 7.9 4.90059 7.9 5.30059C7.9 5.50059 7.9 5.90059 8 6.50059C8 7.00059 8 7.40059 8 7.70059C8.9 7.00059 9.5 6.30059 9.6 5.60059Z" fill="#DADADA"/>
<path d="M18.8 4.50078C18.4 4.70078 17.7 4.90078 16.8 5.10078C15.9 5.30078 15.3 5.60078 14.8 5.70078C14.7 6.00078 14.6 6.70078 14.6 7.80078C14.8 8.00078 15 8.00078 15.3 8.00078C15.5 8.00078 15.8 8.00078 16.2 7.90078C16.6 7.80078 16.9 7.80078 17.1 7.80078C17.4 7.80078 17.7 7.90078 18 8.00078C18.2 8.20078 18.3 8.40078 18.3 8.50078C18.3 8.60078 18.3 8.70078 18.2 8.70078C18.2 8.70078 18.1 8.80078 17.9 9.00078C17.8 9.10078 17.7 9.20078 17.5 9.10078C17.2 9.20078 16.8 9.20078 16.1 9.20078C15.5 9.20078 15.1 9.30078 14.7 9.40078C14.5 10.3008 14.4 11.0008 14.4 11.5008C14.4 11.9008 14.4 12.1008 14.5 12.3008C15.1 12.7008 16.1 12.9008 17.5 12.8008C17.6 12.8008 17.7 12.8008 17.8 12.7008C17.9 12.6008 18 12.6008 18.1 12.6008C18.4 12.5008 18.7 12.8008 18.8 13.4008C18.8 13.6008 18.8 13.8008 18.7 13.9008C18.6 14.1008 18.4 14.2008 18.3 14.2008C16.8 14.2008 15.6 14.1008 14.5 13.9008C14.2 13.8008 13.9 13.6008 13.6 13.3008C13.3 13.0008 13.2 12.7008 13.1 12.3008C13 11.2008 13 10.3008 13.1 9.50078C12.8 9.30078 12.6 9.00078 12.6 8.80078C12.6 8.70078 12.7 8.60078 12.9 8.50078C13.1 8.40078 13.2 8.30078 13.2 8.20078C13.2 8.10078 13.3 7.50078 13.3 6.50078C12.6 6.40078 12.3 6.10078 12.3 5.70078C12.3 5.30078 12.5 5.10078 12.9 4.90078C13.3 4.70078 13.7 4.60078 14.1 4.40078C14.6 4.20078 15.1 4.00078 15.8 3.80078C16.4 3.60078 17 3.50078 17.6 3.30078C17.7 3.30078 17.7 3.30078 17.8 3.30078C18.1 3.30078 18.5 3.40078 18.9 3.70078C18.9 3.70078 18.9 3.80078 19 4.00078C19.1 4.20078 19.1 4.20078 19.1 4.30078C18.9 4.40078 18.9 4.50078 18.8 4.50078Z" fill="#DADADA"/>
<path d="M25.7001 12.7C25.8001 12.9 25.8 13.1 25.8 13.2C25.8 13.4 25.7 13.7 25.5 13.8C25.3 14 25.2 14.1 25.1 14.1C24.5001 14 24.1 13.5 24 12.7C23.8 11.8 23.6 11 23.4 10.4C23 10.4 22.6001 10.5 22.2001 10.5C21.7001 10.6 21.4 10.7 21.1 10.9C21.0001 11.3 20.8001 11.9 20.6 12.9C20.4 13.8 20.2 14.5 20 14.9C19.9 15.1 19.7 15.2 19.4 15.1C19 15 18.8 14.8 18.8 14.6C18.8 14.1 18.9001 13.5 19.2001 12.7C19.6001 11.8 19.8 11.2 19.8 10.8C19.8 10.7 19.7 10.6 19.6 10.4C19.4 10.3 19.3 10.2 19.3 10.1C19.3 10 19.3 10 19.4 9.9C19.5 9.8 19.6 9.8 19.8 9.7C20 9.7 20.1 9.6 20.1 9.5C20.3001 8.9 20.7 7.8 21.1 6.1C21.5001 4.7 21.9001 3.6 22.2001 2.8C22.3001 2.6 22.4001 2.5 22.7001 2.5C22.9001 2.5 23.0001 2.6 23.2001 2.7C23.5001 3 23.8 3.4 23.9 4C24 4.5 24.0001 5 24.1 5.5C24.4001 8.5 25.1001 10.9 25.7001 12.7ZM23.1 9.3C23.1 8.9 23 8.3 22.9 7.8C22.8 7.3 22.7 6.8 22.6 6.3C22.2 7.3 21.9001 8.3 21.7001 9.3C21.7001 9.3 22.3001 9.3 23.1 9.3Z" fill="#DADADA"/>
<path d="M29.3 11.7008C28.9 13.4008 28.8001 14.3008 28.7001 14.4008C28.5001 15.4008 28.2 16.3008 27.8 17.0008C27.7 17.1008 27.6 17.2008 27.4 17.2008C27.2 17.2008 26.9001 17.1008 26.7001 17.0008C26.5001 16.9008 26.3 16.7008 26.3 16.4008C26.3 16.2008 26.3 16.0008 26.4 15.7008C26.5 15.5008 26.6 15.3008 26.6 15.1008C26.9 14.0008 27.1001 13.3008 27.2001 13.0008C27.4001 12.2008 27.5 11.5008 27.6 10.9008C27.6 10.6008 27.7 10.4008 27.9 10.4008C28 10.4008 28.1001 10.3008 28.2001 10.3008C28.5001 10.3008 28.8 10.4008 29 10.6008C29.4 10.7008 29.4 11.1008 29.3 11.7008Z" fill="#DADADA"/>
<path d="M41.9001 3.7C41.8001 4.5 41.6001 5.7 41.2001 7.1C40.7001 9 40.3 10.2 40.3 10.6C40 11.8 39.5 12.9 38.8 13.9C38.3 14.5 37.8001 14.9 37.2001 14.8C36.7001 14.8 36.2 14.4 36 13.8C35.5 12.7 35.3 11.3 35.3 9.8C35.3 8.9 35.4 7.8 35.6 6.4C35.6 6.5 35.6 6.1 35.6 5.3C35.6 4.5 35.9 4.2 36.5 4.2C36.6 4.2 36.8001 4.2 36.9001 4.3C37.0001 4.4 37.2 4.4 37.3 4.5C37.3 5.1 37.3001 6 37.2001 7.2C37.1001 8.5 37.1 9.4 37.1 10C37.1 10.6 37.1001 11.2 37.2001 11.7C37.2001 12 37.3 12.4 37.5 13.2C38 12.6 38.4001 11.9 38.7001 10.9C38.8001 10.6 39 9.7 39.3 8.3C39.5 7.2 39.8 6.4 40.1 5.8C40.2 5.6 40.3 5.3 40.3 4.8C40.4 4.3 40.4 4 40.5 3.8C40.6 3.5 40.9001 3.4 41.2001 3.4C41.4001 3.3 41.7001 3.4 41.9001 3.7ZM41.1 0.8C41.1 1.6 40.8 2.2 40.3 2.8C39.9 3.4 39.4 4 39 4.5C38.8 4.8 38.4001 4.8 37.9001 4.7C37.7001 4.7 37.6 4.6 37.6 4.4C37.6 4.3 37.7 4.1 37.8 3.8C38.2 2.9 39.0001 1.7 39.9001 0.1C40.0001 0.1 40.1001 0 40.2001 0C40.4001 0 40.6 0.1 40.8 0.3C41 0.5 41.1 0.7 41.1 0.8Z" fill="#DADADA"/>
<path d="M50.0999 2.59922C49.8999 4.19922 49.7999 5.89922 49.5999 7.49922C49.3999 9.39922 49.2999 11.0992 49.2999 12.2992C49.2999 12.6992 49.2999 13.0992 49.2999 13.5992C49.2999 13.7992 49.1999 13.9992 49.0999 14.0992C48.8999 14.1992 48.7999 14.2992 48.5999 14.2992C48.1999 14.2992 47.9 13.9992 47.7 13.4992C46.9 11.9992 45.9999 9.69922 44.7999 6.39922C44.7999 6.29922 44.7 6.29922 44.7 6.29922C44.6 6.29922 44.6 6.39922 44.5 6.59922C44.3 8.29922 44.2 10.1992 44.2 12.0992C44.2 12.9992 44.1999 13.9992 44.2999 14.8992C44.2999 15.1992 44.2 15.4992 44 15.5992C43.9 15.6992 43.8 15.6992 43.7 15.6992C43.6 15.6992 43.5 15.6992 43.4 15.5992C43.2 15.4992 43.0999 15.4992 43.0999 15.3992C42.8999 15.3992 42.7999 15.1992 42.7999 14.9992C42.7999 14.7992 42.7999 14.5992 42.7999 14.3992C42.7999 13.6992 42.7 12.9992 42.7 12.2992C42.7 10.9992 42.8 9.39922 42.9 7.49922C43.1 4.59922 43.2999 2.89922 43.2999 2.59922C43.2999 2.29922 43.5 2.19922 44 2.19922C44.2 2.19922 44.5 2.29922 44.9 2.69922C45.3 3.39922 45.7999 4.59922 46.2999 6.29922C46.7999 7.89922 47.2999 9.09922 47.7999 9.89922C47.9999 8.29922 48.3 5.89922 48.7 2.59922C48.7 2.39922 48.9 2.19922 49.2 2.19922C49.3 2.19922 49.3999 2.19922 49.5999 2.29922C49.7999 2.29922 49.9 2.39922 49.9 2.39922C50 2.39922 50.0999 2.49922 50.0999 2.59922Z" fill="#DADADA"/>
<path d="M57.3 4.50078C56.9 4.70078 56.2 4.90078 55.3 5.10078C54.4 5.30078 53.8 5.60078 53.3 5.70078C53.2 6.00078 53.1 6.70078 53.1 7.80078C53.3 8.00078 53.5 8.00078 53.8 8.00078C54 8.00078 54.3 8.00078 54.7 7.90078C55.1 7.80078 55.4 7.80078 55.6 7.80078C55.9 7.80078 56.2 7.90078 56.5 8.00078C56.7 8.20078 56.8 8.40078 56.8 8.50078C56.8 8.60078 56.8 8.70078 56.7 8.70078C56.7 8.70078 56.6 8.80078 56.4 9.00078C56.3 9.10078 56.2 9.20078 56 9.10078C55.7 9.20078 55.3 9.20078 54.6 9.20078C54 9.20078 53.6 9.30078 53.2 9.40078C53 10.3008 52.9 11.0008 52.9 11.5008C52.9 11.9008 52.9 12.1008 53 12.3008C53.6 12.7008 54.6 12.9008 56 12.8008C56.1 12.8008 56.2 12.8008 56.3 12.7008C56.4 12.6008 56.5 12.6008 56.6 12.6008C56.9 12.5008 57.2 12.8008 57.3 13.4008C57.3 13.6008 57.3 13.8008 57.2 13.9008C57.1 14.1008 56.9 14.2008 56.8 14.2008C55.3 14.2008 54.1 14.1008 53 13.9008C52.7 13.8008 52.4 13.6008 52.1 13.3008C51.8 13.0008 51.7 12.7008 51.6 12.3008C51.5 11.2008 51.5 10.3008 51.6 9.50078C51 9.20078 50.9 9.00078 50.9 8.80078C50.9 8.70078 51 8.60078 51.2 8.50078C51.4 8.40078 51.5 8.30078 51.5 8.20078C51.5 8.10078 51.6 7.50078 51.6 6.50078C50.9 6.40078 50.6 6.10078 50.6 5.70078C50.6 5.30078 50.8 5.10078 51.2 4.90078C51.6 4.70078 52 4.60078 52.4 4.40078C52.9 4.20078 53.4 4.00078 54.1 3.80078C54.7 3.60078 55.3 3.50078 55.9 3.30078C56 3.30078 56 3.30078 56.1 3.30078C56.4 3.30078 56.8 3.40078 57.2 3.70078C57.2 3.70078 57.2 3.80078 57.3 4.00078C57.4 4.20078 57.4 4.20078 57.4 4.30078C57.4 4.40078 57.4 4.50078 57.3 4.50078Z" fill="#DADADA"/>
<path d="M66.9 2.29922C66.8 2.69922 66.6 2.99922 66.3 3.09922C65.5 3.29922 64.1 3.49922 62.2 3.89922C62 6.89922 61.8 9.39922 61.8 11.3992C61.8 12.1992 61.8 12.8992 61.8 13.6992C61.8 13.8992 61.8 14.0992 61.8 14.1992C61.7 14.3992 61.6 14.4992 61.4 14.4992C61 14.4992 60.8 14.2992 60.5 14.0992C60.3 13.7992 60.1 13.4992 60.1 13.0992C60.1 12.6992 60.1 12.1992 60.1 11.6992C60.1 10.8992 60.2 9.59922 60.3 7.89922C60.4 6.19922 60.5 4.99922 60.4 4.09922C60.1 4.09922 59.6 4.09922 59 4.19922C58.3 4.29922 57.9 4.29922 57.6 4.29922C57 4.29922 56.5 4.09922 56.1 3.79922C56.1 3.39922 56 3.29922 56 3.29922C56 3.19922 56 3.09922 56.1 2.99922C56.5 2.89922 57.3 2.69922 58.5 2.59922C59.6 2.49922 60.3 2.29922 60.9 1.99922C61.3 2.09922 61.8 2.19922 62.4 2.19922C63 2.19922 63.5 2.09922 64 1.99922C64 1.99922 64.4 1.99922 65 1.79922C65.4 1.69922 65.8 1.69922 66.1 1.69922C66.3 1.69922 66.4 1.79922 66.4 1.99922C66.7 1.99922 66.9 2.09922 66.9 2.29922Z" fill="#DADADA"/>
<path d="M70.7 4.50078C70.3 4.70078 69.6 4.90078 68.7 5.10078C67.8 5.30078 67.2 5.60078 66.7 5.70078C66.6 6.00078 66.5 6.70078 66.5 7.80078C66.7 8.00078 66.9 8.00078 67.1 8.00078C67.3 8.00078 67.6 8.00078 68 7.90078C68.4 7.80078 68.7 7.80078 68.9 7.80078C69.2 7.80078 69.5 7.90078 69.8 8.00078C69.9 8.30078 70 8.40078 70 8.50078C70 8.60078 70 8.70078 69.9 8.70078C69.9 8.70078 69.8 8.80078 69.6 9.00078C69.5 9.10078 69.4 9.20078 69.2 9.10078C68.9 9.20078 68.5 9.20078 67.8 9.20078C67.2 9.20078 66.8 9.30078 66.4 9.40078C66.2 10.3008 66.1 11.0008 66.1 11.5008C66.1 11.9008 66.1 12.1008 66.2 12.3008C66.8 12.7008 67.8 12.9008 69.2 12.8008C69.3 12.8008 69.4 12.8008 69.5 12.7008C69.6 12.6008 69.7 12.6008 69.8 12.6008C70.1 12.5008 70.4 12.8008 70.5 13.4008C70.5 13.6008 70.5 13.8008 70.4 13.9008C70.3 14.1008 70.1 14.2008 70 14.2008C68.5 14.2008 67.3 14.1008 66.2 13.9008C65.9 13.8008 65.6 13.6008 65.3 13.3008C65 13.0008 64.9 12.7008 64.8 12.3008C64.7 11.2008 64.7 10.3008 64.8 9.50078C64.5 9.30078 64.3 9.00078 64.3 8.80078C64.3 8.70078 64.4 8.60078 64.6 8.50078C64.8 8.40078 64.9 8.30078 64.9 8.20078C64.9 8.10078 65 7.50078 65 6.50078C64.3 6.40078 64 6.10078 64 5.70078C64 5.30078 64.2 5.10078 64.6 4.90078C65 4.70078 65.4 4.60078 65.8 4.40078C66.3 4.20078 66.8 4.00078 67.5 3.80078C68.1 3.60078 68.7 3.50078 69.3 3.30078C69.4 3.30078 69.4 3.30078 69.5 3.30078C69.8 3.30078 70.2 3.40078 70.6 3.70078C70.6 3.70078 70.6 3.80078 70.7 4.00078C70.7 4.10078 70.8 4.20078 70.8 4.30078C70.8 4.40078 70.8 4.50078 70.7 4.50078Z" fill="#DADADA"/>
<path d="M81.8 9.7C81.1 11.3 80.1 12.3 78.8 12.6C78.6 12.6 78.5 12.7 78.3 12.7C77.6 12.7 76.9 12.3 76.2 11.6C75.7 11.1 75.5 10.4 75.5 9.6C75.5 8.7 75.8 7.7 76.3 6.7C76.5 6.3 76.8 5.9 77.1 5.6C77.5 5.2 77.8 5 78.2 5C78.4 5 78.6 5.1 78.7 5.2C78.8 5.3 79.3 5.5 80.1 5.8C80.7 6 81.1 6.3 81.3 6.8C81.8 7.5 82 8.2 82 8.8C82 9.1 81.9 9.4 81.8 9.7ZM80.3 8.6C80.2 7.7 80 7.1 79.6 7C79.5 7 79.5 7 79.4 7C79.3 7 79.1 7.1 78.9 7.4C78.7 7.7 78.5 7.8 78.3 7.9C78.2 7.9 78.1 7.9 77.9 7.8C77.7 7.7 77.6 7.6 77.6 7.6H77.5C77.2 7.9 77 8.5 77 9.2C77 9.7 77.1 10.2 77.4 10.5C77.7 11 78 11.2 78.3 11.2C78.8 11.2 79.3 10.9 79.8 10.2C80.2 9.7 80.4 9.1 80.3 8.6Z" fill="#DADADA"/>
<path d="M89.2 4.40078C89.2 4.80078 89.2 5.10078 89.2 5.50078C89.2 6.30078 89.1 7.60078 88.9 9.20078C88.7 10.9008 88.6 12.1008 88.6 13.0008C88.6 13.3008 88.6 13.6008 88.6 13.9008C88.5 14.2008 88.3 14.4008 87.9 14.4008C87.4 14.4008 87.1 14.2008 87 13.7008C87 13.3008 86.9 12.8008 86.9 12.4008C86.9 11.6008 87 10.3008 87.2 8.70078C87.4 7.10078 87.5 5.80078 87.5 5.00078C87.5 4.70078 87.5 4.40078 87.5 4.10078C87.6 3.90078 87.8 3.80078 88.1 3.80078C88.3 3.80078 88.6 3.90078 88.8 4.00078L88.9 3.90078C88.9 3.90078 89 4.00078 89 4.10078C89.1 4.20078 89.1 4.30078 89.2 4.40078C89.1 4.40078 89.2 4.40078 89.2 4.40078Z" fill="#DADADA"/>
<path d="M97.9 2.59961C97.7 4.19961 97.6 5.89961 97.4 7.49961C97.2 9.39961 97.1 11.0996 97.1 12.2996C97.1 12.6996 97.1 13.0996 97.1 13.5996C97.1 13.7996 97 13.9996 96.9 14.0996C96.7 14.1996 96.6 14.2996 96.4 14.2996C96 14.2996 95.7 13.9996 95.5 13.4996C94.7 11.9996 93.8 9.59961 92.6 6.39961C92.6 6.29961 92.5 6.29961 92.5 6.29961C92.4 6.29961 92.4 6.39961 92.3 6.59961C92.1 8.29961 92 10.0996 92 11.9996C92 12.8996 92 13.8996 92.1 14.7996C92.1 15.0996 92 15.3996 91.8 15.4996C91.7 15.5996 91.6 15.5996 91.5 15.5996C91.4 15.5996 91.3 15.5996 91.2 15.4996C91 15.3996 90.9 15.3996 90.9 15.2996C90.7 15.2996 90.6 15.0996 90.6 14.8996C90.6 14.6996 90.6 14.4996 90.6 14.2996C90.6 13.5996 90.5 12.8996 90.5 12.1996C90.5 10.8996 90.6 9.29961 90.7 7.39961C90.9 4.49961 91.1 2.79961 91.1 2.49961C91.1 2.19961 91.3 2.09961 91.8 2.09961C92 2.09961 92.3 2.19961 92.7 2.59961C93.1 3.29961 93.6 4.49961 94.1 6.19961C94.6 7.79961 95.1 8.99961 95.6 9.79961C95.8 8.19961 96.1 5.79961 96.5 2.49961C96.5 2.29961 96.7 2.09961 97 2.09961C97.1 2.09961 97.2 2.09961 97.4 2.19961C97.6 2.19961 97.7 2.29961 97.7 2.29961C97.8 2.39961 97.9 2.49961 97.9 2.59961Z" fill="#DADADA"/>
<path d="M102.7 2.60078C102.7 2.80078 102.5 3.10078 102.2 3.20078C102.1 3.20078 102 3.30078 101.9 3.20078C101.7 3.20078 101.6 3.10078 101.6 3.10078C101.5 3.10078 101.5 3.10078 101.4 3.20078C100.7 3.90078 100.4 4.70078 100.4 5.60078C100.4 6.00078 100.5 6.30078 100.6 6.60078C100.6 6.70078 101.1 7.70078 102 9.40078C102.6 10.6008 102.9 11.5008 102.9 12.4008C102.9 13.1008 102.7 13.7008 102.4 14.3008C102.3 14.5008 102 14.8008 101.6 15.1008C101.2 15.4008 100.9 15.5008 100.7 15.5008C100.6 15.5008 100.5 15.5008 100.4 15.4008C100 15.2008 99.9 15.0008 99.9 14.8008C99.9 14.7008 100 14.5008 100.2 14.3008C100.2 14.2008 100.4 14.2008 100.5 14.2008C100.7 14.2008 100.8 14.1008 100.9 14.0008C101.2 13.5008 101.3 12.9008 101.3 12.4008C101.3 11.6008 100.9 10.5008 100.1 9.00078C99.3 7.50078 98.9 6.30078 98.9 5.40078C98.9 4.70078 99 4.00078 99.3 3.40078C99.6 2.70078 100.1 2.30078 100.7 2.00078C101 1.90078 101.2 1.80078 101.5 1.80078C102 1.80078 102.4 1.90078 102.6 2.20078C102.7 2.30078 102.7 2.50078 102.7 2.60078Z" fill="#DADADA"/>
<path d="M108.8 2.7C108.8 3 108.6 3.2 108.1 3.3C107.5 3.4 107.2 3.5 107 3.7C105.6 5.1 105 7 105 9.2C105 10.3 105.2 11.3 105.5 12.2C105.8 13 106 13.5 106.1 13.7C106.4 14.3 106.8 14.7 107.2 15C107.4 15.1 107.6 15.2 107.7 15.2C107.9 15.3 108 15.5 108 15.7C108 15.9 107.9 16.1 107.8 16.2C107.7 16.4 107.5 16.4 107.4 16.4C107.2 16.4 107 16.3 106.7 16.2C106.1 15.9 105.5 15.1 104.8 14C104.6 13.7 104.5 13.4 104.3 13.1C104.1 12.8 104 12.5 103.9 12.3C103.8 12.1 103.7 11.3 103.6 10C103.6 9.6 103.5 9.2 103.5 8.8C103.5 6.7 104.1 4.8 105.4 3.3C106.1 2.4 106.9 2 107.7 2C108 2 108.3 2.1 108.6 2.3C108.8 2.3 108.8 2.4 108.8 2.7Z" fill="#DADADA"/>
<path d="M116 13.7002C116 13.7002 116.1 13.8002 116.1 13.9002C116.1 14.2002 115.8 14.4002 115.2 14.5002C114.6 14.0002 113.8 13.2002 112.8 12.2002C111.7 11.1002 110.9 10.3002 110.4 9.8002C110.4 10.1002 110.3 10.9002 110.2 12.3002C110.1 13.3002 110 14.1002 109.9 14.7002C109.9 14.7002 109.8 14.7002 109.7 14.8002C109.6 14.9002 109.5 14.9002 109.4 14.9002C108.9 14.8002 108.6 14.4002 108.6 13.8002C108.6 13.6002 108.6 13.4002 108.7 13.1002C108.7 12.7002 108.8 12.5002 108.8 12.4002C108.8 11.7002 108.9 10.9002 108.9 9.9002V7.9002C108.9 6.3002 109 4.9002 109.2 3.7002C109.3 2.9002 110 2.6002 111.3 2.7002C112 2.7002 112.5 3.1002 113 3.7002C113.4 4.3002 113.7 4.9002 113.7 5.6002C113.7 6.2002 113.5 6.7002 113.1 7.3002C112.7 7.8002 112.3 8.2002 111.8 8.5002C111.6 8.6002 111.5 8.8002 111.5 8.9002C111.5 9.1002 111.6 9.2002 111.9 9.5002C112.1 9.7002 112.3 9.8002 112.5 10.0002C112.5 10.0002 113.2 10.6002 114.5 11.8002C115 12.5002 115.6 13.1002 116 13.7002ZM112.1 5.6002C112.1 5.4002 112.1 5.2002 112.1 5.0002C112.1 4.7002 112 4.5002 111.8 4.3002C111.7 4.1002 111.4 4.0002 111 4.0002C110.7 4.0002 110.5 4.1002 110.5 4.3002C110.4 4.6002 110.4 4.9002 110.4 5.3002C110.4 5.5002 110.4 5.9002 110.5 6.5002C110.5 7.0002 110.5 7.4002 110.5 7.7002C111.4 7.0002 112 6.3002 112.1 5.6002Z" fill="#DADADA"/>
<path d="M117.1 4.40078C117.1 4.80078 117.1 5.10078 117.1 5.50078C117.1 6.30078 117 7.60078 116.8 9.20078C116.6 10.9008 116.5 12.1008 116.5 13.0008C116.5 13.3008 116.5 13.6008 116.5 13.9008C116.4 14.2008 116.2 14.4008 115.8 14.4008C115.3 14.4008 115 14.2008 114.9 13.7008C114.9 13.3008 114.8 12.8008 114.8 12.4008C114.8 11.6008 114.9 10.3008 115.1 8.70078C115.3 7.10078 115.4 5.80078 115.4 5.00078C115.4 4.70078 115.4 4.40078 115.4 4.10078C115.5 3.90078 115.7 3.80078 116 3.80078C116.2 3.80078 116.5 3.90078 116.7 4.00078L116.8 3.90078C116.8 3.90078 116.9 4.00078 116.9 4.10078C117 4.20078 117 4.30078 117.1 4.40078Z" fill="#DADADA"/>
<path d="M124.4 5.70078C124.2 6.40078 123.8 6.90078 123.2 7.50078C122.6 7.90078 122 8.40078 121.3 8.80078C121.3 9.00078 121.5 9.10078 121.7 9.20078C121.9 9.30078 122.1 9.40078 122.3 9.50078C123.3 10.2008 123.8 10.9008 123.8 11.8008C123.8 12.5008 123.6 13.1008 123.1 13.7008C122.7 14.1008 122.2 14.6008 121.5 15.0008C120.9 15.3008 120.3 15.7008 119.8 16.0008C119.7 16.1008 119.5 16.1008 119.3 16.1008C118.9 16.1008 118.6 15.9008 118.5 15.6008C118.5 14.6008 118.5 13.6008 118.6 12.6008C118.6 11.4008 118.7 10.4008 118.8 9.60078C118.5 9.40078 118.4 9.20078 118.4 9.00078C118.4 8.90078 118.4 8.80078 118.5 8.70078C118.6 8.60078 118.7 8.50078 118.9 8.40078C119 6.60078 119.1 4.90078 119 3.30078C118.4 3.20078 118.1 2.90078 117.9 2.50078C117.9 2.50078 117.9 2.40078 118 2.30078C118.1 2.20078 118.1 2.10078 118.1 2.10078C118.4 1.90078 118.7 1.80078 119 1.80078C119.2 1.80078 119.4 1.80078 119.6 1.90078C120 2.00078 120.2 2.00078 120.3 2.00078C120.9 2.10078 121.5 2.30078 122 2.50078C123.3 3.20078 124.1 3.80078 124.3 4.50078C124.4 5.00078 124.4 5.40078 124.4 5.70078ZM122.1 11.9008C122.1 11.8008 122.1 11.6008 122.1 11.5008C122.1 11.1008 122 10.8008 121.8 10.5008C121.2 10.2008 120.8 10.0008 120.6 10.0008C120.5 10.0008 120.4 10.0008 120.3 10.1008C120.3 10.2008 120.3 10.4008 120.3 10.5008C120.3 10.8008 120.3 11.1008 120.2 11.7008C120.1 12.2008 120.1 12.6008 120.1 12.9008C120.1 13.3008 120.1 13.6008 120.2 14.0008C120.3 13.8008 120.6 13.7008 120.9 13.5008C121.2 13.3008 121.4 13.1008 121.5 13.0008C121.9 12.7008 122 12.3008 122.1 11.9008ZM122.7 4.80078C122.6 4.40078 122.3 4.00078 121.6 3.80078C121.5 3.80078 121.4 3.70078 121.1 3.60078C121 3.50078 120.8 3.50078 120.7 3.50078C120.7 3.50078 120.6 3.50078 120.5 3.50078C120.5 3.70078 120.5 3.90078 120.5 4.20078C120.5 4.50078 120.5 5.00078 120.6 5.80078C120.6 6.50078 120.6 7.00078 120.6 7.40078C120.7 7.40078 120.8 7.30078 121 7.20078C121.2 7.10078 121.3 7.00078 121.3 7.00078C121.7 6.80078 122 6.50078 122.3 6.10078C122.6 5.60078 122.7 5.20078 122.7 4.80078Z" fill="#DADADA"/>
<path d="M131.3 4.49922C130.9 4.69922 130.2 4.89922 129.3 5.09922C128.4 5.29922 127.8 5.59922 127.3 5.69922C127.2 5.99922 127.1 6.69922 127.1 7.79922C127.3 7.89922 127.5 7.89922 127.8 7.89922C128 7.89922 128.3 7.89922 128.7 7.79922C129.1 7.69922 129.4 7.69922 129.6 7.69922C129.9 7.69922 130.2 7.79922 130.5 7.89922C130.7 8.09922 130.8 8.29922 130.8 8.39922C130.8 8.49922 130.8 8.59922 130.7 8.59922C130.7 8.59922 130.6 8.69922 130.4 8.89922C130.3 8.99922 130.2 9.09922 130 8.99922C129.7 9.09922 129.3 9.09922 128.6 9.09922C128 9.09922 127.6 9.19922 127.2 9.29922C127 10.1992 126.9 10.8992 126.9 11.3992C126.9 11.7992 126.9 11.9992 127 12.1992C127.6 12.5992 128.6 12.7992 130 12.6992C130.1 12.6992 130.2 12.6992 130.3 12.5992C130.4 12.4992 130.5 12.4992 130.6 12.4992C130.9 12.3992 131.2 12.6992 131.3 13.2992C131.3 13.4992 131.3 13.6992 131.2 13.7992C131.1 13.9992 130.9 14.0992 130.8 14.0992C129.3 14.0992 128.1 13.9992 127 13.7992C126.7 13.6992 126.4 13.4992 126.1 13.1992C125.8 12.8992 125.7 12.5992 125.6 12.1992C125.5 11.0992 125.5 10.1992 125.6 9.39922C125.3 9.19922 125.1 8.89922 125.1 8.69922C125.1 8.59922 125.2 8.49922 125.4 8.39922C125.6 8.29922 125.7 8.19922 125.7 8.09922C125.7 7.99922 125.8 7.39922 125.8 6.39922C125.1 6.29922 124.8 5.99922 124.8 5.59922C124.8 5.19922 125 4.99922 125.4 4.79922C125.8 4.59922 126.2 4.49922 126.6 4.29922C127.1 4.09922 127.6 3.89922 128.3 3.69922C128.9 3.49922 129.5 3.39922 130.1 3.19922C130.2 3.19922 130.2 3.19922 130.3 3.19922C130.6 3.19922 131 3.29922 131.4 3.59922C131.4 3.59922 131.4 3.69922 131.5 3.89922C131.5 3.99922 131.6 4.09922 131.6 4.19922C131.5 4.39922 131.4 4.49922 131.3 4.49922Z" fill="#DADADA"/>
<path d="M9.2 23.4004C9.1 24.6004 8.8 26.1004 8.2 28.0004C7.5 30.6004 7 32.2004 6.9 32.7004C6.5 34.4004 5.8 35.9004 4.8 37.3004C4.2 38.2004 3.4 38.6004 2.6 38.6004C1.9 38.6004 1.3 38.1004 0.9 37.2004C0.3 35.7004 0 33.9004 0 31.8004C0 30.6004 0.1 29.0004 0.3 27.1004C0.3 27.3004 0.3 26.8004 0.3 25.6004C0.3 24.6004 0.7 24.1004 1.5 24.1004C1.7 24.1004 1.8 24.1004 2 24.2004C2.2 24.3004 2.4 24.4004 2.6 24.5004C2.6 25.3004 2.6 26.6004 2.5 28.2004C2.4 30.0004 2.4 31.2004 2.4 32.0004C2.4 32.8004 2.4 33.6004 2.5 34.3004C2.5 34.6004 2.7 35.3004 2.9 36.3004C3.6 35.5004 4.1 34.5004 4.5 33.2004C4.6 32.8004 4.9 31.6004 5.3 29.7004C5.7 28.1004 6 27.0004 6.4 26.1004C6.5 25.9004 6.6 25.4004 6.7 24.8004C6.8 24.2004 6.9 23.7004 7 23.5004C7.2 23.1004 7.5 22.9004 7.9 22.9004C8.6 22.9004 9 23.1004 9.2 23.4004Z" fill="#DADADA"/>
<path d="M20.5 21.9004C20.3 24.1004 20 26.3004 19.8 28.6004C19.5 31.2004 19.4 33.5004 19.4 35.2004C19.4 35.8004 19.4 36.4004 19.4 36.9004C19.4 37.2004 19.3 37.4004 19.1 37.6004C18.9 37.8004 18.7 37.9004 18.4 37.9004C17.9 37.9004 17.5 37.6004 17.1 36.9004C16 34.8004 14.7 31.6004 13.2 27.2004C13.2 27.1004 13.1 27.1004 13.1 27.1004C13 27.1004 12.9 27.2004 12.9 27.4004C12.6 29.8004 12.5 32.3004 12.5 34.9004C12.5 36.2004 12.5 37.4004 12.6 38.8004C12.6 39.3004 12.5 39.6004 12.2 39.8004C12.1 39.9004 12 40.0004 11.8 40.0004C11.7 40.0004 11.5 39.9004 11.4 39.8004C11.2 39.7004 11 39.6004 10.9 39.6004C10.7 39.5004 10.6 39.3004 10.5 39.0004C10.5 38.7004 10.5 38.5004 10.5 38.2004C10.4 37.3004 10.4 36.3004 10.4 35.3004C10.4 33.5004 10.5 31.4004 10.7 28.7004C11 24.7004 11.2 22.5004 11.2 22.0004C11.2 21.6004 11.5 21.5004 12.1 21.5004C12.4 21.5004 12.8 21.7004 13.3 22.1004C13.8 23.1004 14.5 24.8004 15.3 27.0004C16 29.2004 16.7 30.8004 17.3 31.9004C17.5 29.7004 17.9 26.4004 18.5 21.9004C18.5 21.6004 18.8 21.4004 19.2 21.4004C19.3 21.4004 19.5 21.4004 19.7 21.5004C20 21.6004 20.1 21.6004 20.2 21.6004C20.3 21.6004 20.4 21.8004 20.5 21.9004Z" fill="#DADADA"/>
<path d="M30.7 35.8C30.8 36.1 30.9 36.3 30.9 36.5C30.9 36.8 30.8 37.1 30.5 37.4C30.2 37.6 30 37.8 29.9 37.7C29.0999 37.6 28.5999 36.9 28.4 35.7C28.2 34.4 27.9 33.4 27.6 32.5C27 32.5 26.4999 32.6 25.9 32.6C25.3 32.7 24.8 32.9 24.4 33.2C24.1999 33.7 24 34.6 23.7 35.9C23.4 37.1 23.1 38 22.9 38.7C22.8 39 22.5 39.1 22.1 38.9C21.6 38.7 21.3 38.5 21.2 38.2C21.2 37.6 21.3 36.7 21.7 35.7C22.2 34.5 22.5 33.6 22.5 33.1C22.5 32.9 22.4 32.8 22.2 32.6C22 32.4 21.9 32.3 21.9 32.2C21.9 32.1 21.9 32 22 31.9C22.1 31.8 22.2 31.7 22.5 31.7C22.8 31.6 22.9 31.6 23 31.4C23.3 30.6 23.8 29 24.4 26.8C24.9 24.8 25.4 23.3 25.9 22.3C25.9999 22.1 26.2 22 26.5 22C26.7 22 26.9 22.1 27.1 22.2C27.6 22.6 27.9 23.2 28 24C28.1 24.7 28.1999 25.4 28.2999 26C28.8999 30 29.8 33.3 30.7 35.8ZM27.1 31C27.1 30.4 26.8999 29.7 26.7999 28.9C26.5999 28.2 26.4999 27.6 26.2999 26.9C25.7999 28.3 25.4 29.6 25 31C25.3 31.1 25.9 31 27.1 31Z" fill="#DADADA"/>
<path d="M44.6 21.9992C44.6 22.3992 44.3 22.6992 43.7 22.7992C42.9 22.9992 42.4 23.0992 42.3 23.2992C40.4 25.2992 39.5 27.7992 39.5 30.8992C39.5 32.3992 39.7 33.6992 40.2 34.9992C40.6 36.0992 40.9 36.7992 41 37.0992C41.4 37.8992 41.9 38.4992 42.5 38.7992C42.7 38.8992 43 38.9992 43.2 39.0992C43.5 39.1992 43.6 39.4992 43.6 39.6992C43.6 39.9992 43.5 40.1992 43.3 40.3992C43.1 40.5992 42.9 40.6992 42.7 40.5992C42.5 40.5992 42.2 40.4992 41.7 40.2992C40.9 39.7992 40 38.7992 39.1 37.2992C38.9 36.8992 38.6 36.4992 38.4 36.0992C38.2 35.6992 38 35.2992 37.9 34.8992C37.8 34.5992 37.7 33.5992 37.5 31.6992C37.4 31.0992 37.4 30.5992 37.4 29.9992C37.4 27.0992 38.3 24.5992 40 22.4992C41 21.2992 42 20.6992 43.1 20.6992C43.6 20.6992 44 20.7992 44.4 21.0992C44.5 21.4992 44.6 21.6992 44.6 21.9992Z" fill="#DADADA"/>
<path d="M52.7 31.5992C51.7 33.7992 50.3 35.0992 48.6 35.4992C48.4 35.5992 48.2 35.5992 48 35.5992C47.1 35.5992 46.1 35.0992 45.1 34.0992C44.5 33.3992 44.1 32.4992 44.1 31.3992C44.1 30.1992 44.5 28.8992 45.2 27.4992C45.5 26.8992 45.9 26.3992 46.3 25.9992C46.8 25.4992 47.3 25.1992 47.8 25.1992C48.1 25.1992 48.3 25.2992 48.5 25.4992C48.7 25.6992 49.4 25.9992 50.4 26.2992C51.2 26.5992 51.8 26.9992 52.1 27.5992C52.7 28.6992 53 29.6992 53 30.4992C52.9 30.7992 52.8 31.1992 52.7 31.5992ZM50.7 30.0992C50.6 28.8992 50.3 28.1992 49.7 27.8992C49.6 27.8992 49.5 27.8992 49.5 27.8992C49.3 27.8992 49.1 28.0992 48.8 28.3992C48.4 28.6992 48.1 28.9992 48 28.9992C47.9 29.0992 47.7 28.9992 47.5 28.8992C47.3 28.6992 47.1 28.6992 47.1 28.6992H47C46.3 29.1992 46 29.9992 46 30.9992C46 31.6992 46.2 32.2992 46.5 32.7992C47 33.4992 47.4 33.7992 47.7 33.7992C48.4 33.7992 49.1 33.2992 49.8 32.3992C50.5 31.5992 50.8 30.7992 50.7 30.0992Z" fill="#DADADA"/>
<path d="M62.2 31.5992C61.2 33.7992 59.8 35.0992 58.1 35.4992C57.9 35.5992 57.7 35.5992 57.5 35.5992C56.6 35.5992 55.6 35.0992 54.6 34.0992C54 33.3992 53.6 32.4992 53.6 31.3992C53.6 30.1992 54 28.8992 54.7 27.4992C55 26.8992 55.4 26.3992 55.8 25.9992C56.3 25.4992 56.8 25.1992 57.3 25.1992C57.6 25.1992 57.8 25.2992 58 25.4992C58.2 25.6992 58.9 25.9992 59.9 26.2992C60.7 26.5992 61.3 26.9992 61.6 27.5992C62.2 28.6992 62.5 29.6992 62.5 30.4992C62.4 30.7992 62.4 31.1992 62.2 31.5992ZM60.2 30.0992C60.1 28.8992 59.8 28.1992 59.2 27.8992C59.1 27.8992 59 27.8992 59 27.8992C58.8 27.8992 58.6 28.0992 58.3 28.3992C58 28.7992 57.7 28.9992 57.5 29.0992C57.4 29.1992 57.2 29.0992 57 28.9992C56.8 28.7992 56.6 28.7992 56.6 28.7992H56.5C55.9 29.2992 55.6 30.0992 55.6 31.0992C55.6 31.7992 55.8 32.3992 56.1 32.8992C56.6 33.5992 57 33.8992 57.3 33.8992C58 33.8992 58.7 33.3992 59.4 32.4992C60 31.5992 60.3 30.7992 60.2 30.0992Z" fill="#DADADA"/>
<path d="M70.4 28.4008C69.8 29.8008 69.2 30.7008 68.8 31.1008C68.1 31.8008 67.7 32.2008 67.7 32.2008C67.2 32.6008 66.7 32.8008 66.3 32.9008C66.2 33.2008 66.2 33.6008 66.2 34.1008C66.2 34.4008 66.2 34.9008 66.3 35.5008C66.4 36.1008 66.4 36.6008 66.4 36.9008C66.4 38.0008 66.1 38.9008 65.6 39.4008L64.9 39.0008C64.6 38.9008 64.5 38.7008 64.4 38.5008C64.2 37.4008 64.2 36.2008 64.2 34.9008C64.2 34.0008 64.2 32.7008 64.3 31.0008C64.4 29.3008 64.5 27.9008 64.5 27.1008C64.5 25.8008 64.4 24.6008 64.3 23.5008C64.2 23.5008 64 23.5008 63.9 23.3008C63.8 23.1008 63.7 23.0008 63.6 22.9008C63.7 22.4008 63.8 22.1008 64 22.1008C64.2 22.0008 64.8 22.0008 65.5 22.2008C67.7 22.5008 69.3 23.5008 70.4 25.0008C70.7 25.5008 70.9 26.1008 70.9 26.7008C70.8 27.2008 70.6 27.8008 70.4 28.4008ZM68.8 26.5008C68.9 25.8008 68.6 25.3008 68 24.9008C68 24.9008 67.4 24.7008 66.2 24.2008C66.4 27.2008 66.4 29.4008 66.4 30.6008C67.8 29.2008 68.6 27.8008 68.8 26.5008Z" fill="#DADADA"/>
<path d="M80.5 24.6C79.9 24.8 79 25.1 77.8 25.5C76.6 25.8 75.7 26.1 75.1 26.4C75 26.8 74.8 27.8 74.8 29.3C75.1 29.4 75.4 29.4 75.7 29.4C75.9 29.4 76.3 29.4 76.9 29.3C77.4 29.2 77.8 29.2 78.1 29.2C78.6 29.2 79 29.3 79.3 29.5C79.5 29.8 79.6 30 79.6 30.1C79.6 30.2 79.5 30.3 79.4 30.4C79.4 30.4 79.3 30.5 79.1 30.7C79 30.8 78.8 30.9 78.6 30.9C78.3 31 77.6 31 76.7 31C75.9 31 75.3 31.1 74.8 31.3C74.5 32.5 74.3 33.5 74.3 34.2C74.3 34.7 74.4 35.1 74.5 35.3C75.3 35.8 76.6 36.1 78.5 36C78.6 36 78.8 35.9 78.9 35.8C79.1 35.7 79.2 35.6 79.3 35.6C79.8 35.5 80.1 35.8 80.2 36.6C80.2 36.9 80.2 37.1 80.1 37.3C80 37.5 79.8 37.6 79.5 37.7C77.5 37.8 75.8 37.6 74.3 37.2C73.8 37.1 73.4 36.8 73 36.4C72.6 36 72.4 35.6 72.4 35.1C72.2 33.7 72.2 32.4 72.4 31.2C71.9 30.9 71.7 30.6 71.8 30.3C71.8 30.1 71.9 30 72.2 29.9C72.4 29.8 72.6 29.6 72.6 29.5C72.6 29.4 72.7 28.6 72.8 27.1C71.9 26.9 71.4 26.6 71.4 26.1C71.4 25.6 71.7 25.2 72.3 25C72.8 24.8 73.4 24.6 73.9 24.4C74.5 24.1 75.3 23.8 76.2 23.6C77 23.4 77.8 23.2 78.6 23C78.7 23 78.8 23 78.9 23C79.3 23 79.9 23.2 80.5 23.5C80.5 23.6 80.6 23.7 80.6 23.9C80.7 24.1 80.7 24.2 80.7 24.3C80.7 24.4 80.6 24.5 80.5 24.6Z" fill="#DADADA"/>
<path d="M91.2 37.2004C91.2 37.3005 91.3 37.3005 91.3 37.4005C91.3 37.8005 90.9 38.1004 90.1 38.3004C89.2 37.6004 88.1 36.6004 86.8 35.2004C85.3 33.6004 84.3 32.5004 83.5 31.9004C83.4 32.3004 83.4 33.5004 83.2 35.3004C83.1 36.7004 83 37.8004 82.8 38.6004C82.8 38.6004 82.7 38.6004 82.5 38.7004C82.3 38.8004 82.2 38.8004 82.1 38.8004C81.3 38.5004 81 38.0005 81 37.2004C81 37.0005 81 36.6004 81.1 36.2004C81.2 35.7004 81.2 35.4004 81.2 35.3004C81.3 34.3004 81.3 33.2004 81.3 31.9004V29.2004C81.3 26.9004 81.4 25.1004 81.7 23.5004C81.9 22.5004 82.8 22.0004 84.6 22.1004C85.5 22.1004 86.3 22.6004 86.9 23.4004C87.5 24.2004 87.8 25.1004 87.8 26.0004C87.8 26.8004 87.5 27.6004 86.9 28.3004C86.4 29.0004 85.8 29.5004 85.1 29.9004C84.8 30.1004 84.7 30.2004 84.7 30.4004C84.7 30.6004 84.9 30.9004 85.2 31.2004C85.5 31.4004 85.7 31.6004 86 31.8004C86 31.8004 86.9 32.6004 88.7 34.3004C89.9 35.4004 90.7 36.3005 91.2 37.2004ZM85.9 26.0004C85.9 25.7004 86 25.4004 85.9 25.2004C85.9 24.9004 85.7 24.5004 85.5 24.3004C85.3 24.0004 84.9 23.9004 84.3 23.9004C83.9 23.9004 83.7 24.0004 83.6 24.3004C83.5 24.7004 83.5 25.2004 83.5 25.7004C83.5 25.9004 83.5 26.5004 83.6 27.4004C83.6 28.1004 83.6 28.6004 83.6 29.1004C85 27.9004 85.8 26.9004 85.9 26.0004Z" fill="#DADADA"/>
<path d="M102.4 21.5C102.2 22.1 102 22.4 101.6 22.5C100.5 22.8 98.7 23.1 96 23.5C95.7 27.6 95.5 31.1 95.5 33.8C95.5 34.8 95.5 35.9 95.6 36.9C95.6 37.2 95.6 37.5 95.5 37.6C95.4 37.9 95.3 38 95 38C94.5 38 94.1 37.8 93.8 37.4C93.5 37 93.3 36.6 93.3 36.1C93.3 35.5 93.3 34.8 93.3 34.2C93.3 33.1 93.4 31.4 93.5 29C93.6 26.7 93.7 25 93.7 23.8C93.3 23.8 92.6 23.8 91.8 23.9C90.9 24 90.3 24.1 89.9 24.1C89.1 24.1 88.4 23.9 87.9 23.4C87.7 23 87.6 22.7 87.6 22.7C87.6 22.6 87.7 22.5 87.8 22.3C88.3 22.1 89.4 22 91.1 21.8C92.5 21.6 93.6 21.4 94.3 21C94.9 21.2 95.5 21.3 96.3 21.3C97.1 21.3 97.8 21.2 98.4 21C98.6 21 99.1 20.9 99.9 20.7C100.5 20.6 101 20.5 101.4 20.6C101.7 20.6 101.8 20.7 101.8 21C102.2 21.1 102.4 21.2 102.4 21.5Z" fill="#DADADA"/>
<path d="M101.9 24.3996C101.9 24.8996 102 25.3996 102 25.8996C102 26.9996 101.9 28.6996 101.7 30.9996C101.5 33.2996 101.4 34.9996 101.4 36.0996C101.4 36.4996 101.4 36.9996 101.4 37.3996C101.3 37.8996 100.9 38.0996 100.4 38.0996C99.7 38.0996 99.3 37.7996 99.2 37.1996C99.1 36.5996 99.1 35.9996 99.1 35.3996C99.1 34.2996 99.2 32.5996 99.5 30.3996C99.8 28.1996 99.9 26.4996 99.9 25.3996C99.9 24.9996 99.9 24.4996 99.9 24.0996C100.1 23.7996 100.3 23.5996 100.7 23.5996C101 23.5996 101.3 23.6996 101.6 23.8996C101.7 23.7996 101.7 23.7996 101.8 23.7996C101.8 23.7996 101.9 23.8996 101.9 23.9996C101.8 24.1996 101.8 24.2996 101.9 24.3996Z" fill="#DADADA"/>
<path d="M114.3 22.7007C113.7 23.9007 112.7 26.2007 111.5 29.5007C111.2 30.5007 110.7 32.1007 110.3 34.3007C109.8 36.5007 109.4 38.1007 109 39.2007C108.8 39.4007 108.7 39.4007 108.5 39.4007C108.3 39.4007 108 39.3007 107.6 39.0007C107 37.5007 106.2 34.9007 105.3 31.4007C104.5 28.0007 103.7 25.5007 102.9 23.7007C103.1 23.3007 103.3 23.1007 103.4 23.1007C103.5 23.0007 103.7 23.0007 103.8 23.0007C104.1 23.0007 104.5 23.2007 105.2 23.7007C105.8 25.1007 106.4 26.7007 106.9 28.7007C107.3 30.4007 107.8 32.1007 108.2 33.8007C108.8 31.8007 109.4 29.8007 110 27.7007C110.7 25.4007 111.5 23.4007 112.2 21.8007C112.4 21.4007 112.9 21.2007 113.5 21.4007C113.6 21.4007 113.7 21.5007 113.7 21.6007C113.8 21.7007 113.9 21.8007 114.1 21.8007C114.3 21.8007 114.3 21.9007 114.3 22.2007C114.5 22.4007 114.4 22.6007 114.3 22.7007Z" fill="#DADADA"/>
<path d="M123.8 35.8C123.9 36.1 124 36.3 124 36.5C124 36.8 123.9 37.1 123.6 37.4C123.3 37.6 123.1 37.8 123 37.7C122.2 37.6 121.7 36.9 121.5 35.7C121.3 34.4 121 33.4 120.7 32.5C120.1 32.5 119.6 32.6 119 32.6C118.4 32.7 117.9 32.9 117.5 33.2C117.3 33.7 117.1 34.6 116.8 35.9C116.5 37.1 116.2 38 116 38.7C115.9 39 115.6 39.1 115.2 38.9C114.7 38.7 114.4 38.5 114.3 38.2C114.3 37.6 114.4 36.7 114.8 35.7C115.3 34.5 115.6 33.6 115.6 33.1C115.6 32.9 115.5 32.8 115.3 32.6C115.1 32.4 115 32.3 115 32.2C115 32.1 115 32 115.1 31.9C115.2 31.8 115.3 31.7 115.6 31.7C115.9 31.6 116 31.6 116.1 31.4C116.4 30.6 116.9 29 117.5 26.8C118 24.8 118.5 23.3 119 22.3C119.1 22.1 119.3 22 119.6 22C119.8 22 120 22.1 120.2 22.2C120.7 22.6 121 23.2 121.1 24C121.2 24.7 121.3 25.4 121.4 26C122 30 122.9 33.3 123.8 35.8ZM120.1 31C120.1 30.4 119.9 29.7 119.8 28.9C119.6 28.2 119.5 27.6 119.3 26.9C118.8 28.3 118.4 29.6 118 31C118.3 31.1 119 31 120.1 31Z" fill="#DADADA"/>
<path d="M149.2 34.0009C147.6 33.0009 145.8 32.2009 144 31.6009C142.3 31.0009 140.2 30.4009 138.4 30.7009C137.7 30.8009 137.7 31.8009 138.2 32.1009C139.6 32.9009 141.4 33.2009 143 33.8009C144.6 34.4009 146.1 35.2009 147.6 36.1009C149.7 37.4009 152 39.0009 153.7 40.9009C152.3 40.5009 150.9 40.2009 149.6 40.5009C148.7 40.7009 148.8 42.0009 149.6 42.2009C150.7 42.5009 151.9 42.4009 153 42.6009C153.9 42.8009 154.8 43.1009 155.6 43.4009C155.7 43.4009 155.7 43.4009 155.8 43.5009C156 43.6009 156.2 43.6009 156.4 43.7009C156.9 44.0009 157.6 43.6009 157.6 43.0009C157.5 40.7009 157.2 37.3009 155.5 35.6009C155.3 35.4009 154.9 35.6009 154.9 35.8009C154.9 36.9009 155.2 38.0009 155.5 39.1009C155.5 39.3009 155.5 39.5009 155.6 39.6009C153.9 37.3009 151.4 35.4009 149.2 34.0009Z" fill="#DADADA"/>
</g>
<defs>
<clipPath id="clip0">
<rect width="157.5" height="43.7" fill="white"/>
</clipPath>
</defs>
</svg>
