<svg width="76" height="76" viewBox="0 0 76 76" fill="none" xmlns="http://www.w3.org/2000/svg">
<path d="M38 76C58.9868 76 76 58.9868 76 38C76 17.0132 58.9868 0 38 0C17.0132 0 0 17.0132 0 38C0 58.9868 17.0132 76 38 76Z" fill="#F9CEC0"/>
<path opacity="0.5" d="M31.5866 60.5268C30.6295 60.2684 29.8404 60.0495 29.8329 60.0404C29.8198 60.0245 32.6151 49.5589 32.6419 49.5233C32.6491 49.5138 32.8853 49.5923 33.167 49.6978C33.9305 49.9836 34.8313 50.2294 35.6041 50.3626C35.9828 50.4278 36.2986 50.486 36.3059 50.4918C36.3132 50.4977 35.7101 52.7758 34.9658 55.5543C34.2214 58.3328 33.5889 60.6955 33.5602 60.8047C33.5248 60.939 33.4786 61.0022 33.4173 60.9999C33.3674 60.9981 32.5436 60.7852 31.5866 60.5268ZM48.4042 58.8722C48.111 58.394 43.0471 49.6011 43.0587 49.5903C43.0661 49.5834 43.2893 49.4803 43.5548 49.3611C44.362 48.9987 45.3423 48.4178 46.2167 47.7837C46.2924 47.7287 46.6359 48.2979 49.0175 52.425C50.5104 55.0122 51.7319 57.1499 51.7319 57.1756C51.7319 57.2184 48.6148 59.0443 48.5417 59.0443C48.5241 59.0443 48.4622 58.9669 48.4042 58.8722ZM16.8578 49.1659C16.3417 48.2729 15.9391 47.5238 15.9632 47.5014C16.0396 47.4303 25.2944 42.1017 25.3414 42.1017C25.3661 42.1017 25.4792 42.3102 25.5927 42.565C25.9521 43.3718 26.599 44.4653 27.1957 45.2747C27.2548 45.3549 26.7738 45.6459 22.5903 48.0613C20.021 49.5446 17.8912 50.7654 17.8575 50.774C17.8238 50.7826 17.3739 50.059 16.8578 49.1659ZM55.7308 43.7567C52.8468 42.9827 50.4795 42.3435 50.47 42.3363C50.4605 42.329 50.539 42.0928 50.6445 41.8113C50.9243 41.0646 51.1741 40.1556 51.3069 39.4015C51.3709 39.0375 51.43 38.7329 51.4382 38.7247C51.4545 38.7082 61.969 41.5189 61.9996 41.548C62.01 41.5578 61.8353 42.2523 61.6113 43.0913C61.0853 45.0622 61.0531 45.1734 61.0103 45.1682C60.9905 45.1659 58.6147 44.5307 55.7308 43.7567ZM19.2379 33.9796C16.4122 33.2177 14.0649 32.5814 14.0215 32.5655C13.9562 32.5416 14.0257 32.227 14.4241 30.7407C14.8534 29.1396 14.9165 28.9466 15.0062 28.9617C15.105 28.9783 25.425 31.731 25.4451 31.7461C25.4508 31.7503 25.3725 31.9744 25.2712 32.2441C24.9903 32.9915 24.7435 33.8993 24.6098 34.6761C24.5404 35.0795 24.465 35.3749 24.4323 35.3712C24.4011 35.3676 22.0636 34.7414 19.2379 33.9796ZM50.4595 31.7653C50.1811 31.0571 49.4609 29.7797 48.9294 29.0514C48.7809 28.848 48.6655 28.6641 48.673 28.6428C48.6863 28.6043 49.083 28.3727 53.5063 25.8205C54.7589 25.0978 56.3081 24.2026 56.949 23.8314C57.8305 23.3206 58.1289 23.1713 58.1745 23.2179C58.2533 23.2984 60.0615 26.435 60.0385 26.4512C60.0289 26.4581 57.9593 27.6519 55.4395 29.1041C52.9197 30.5563 50.7837 31.7881 50.6928 31.8415L50.5275 31.9385L50.4595 31.7653ZM28.4637 24.3541C27.836 23.2681 26.6062 21.1406 25.7308 19.6263C24.3306 17.2041 24.1495 16.8655 24.2246 16.8093C24.3953 16.6816 27.3729 14.9808 27.392 15.0002C27.4664 15.0758 32.7851 24.3374 32.7903 24.4005C32.7946 24.4519 32.6352 24.5535 32.3409 24.6868C31.5504 25.0449 30.5126 25.6628 29.6984 26.2601C29.6133 26.3225 29.5036 26.1533 28.4637 24.3541Z" fill="white"/>
</svg>
