<svg width="127" height="131" viewBox="0 0 127 131" fill="none" xmlns="http://www.w3.org/2000/svg">
<path d="M102.581 18.0782C102.286 17.8382 102.259 17.4116 102.5 17.1449C102.742 16.8516 103.171 16.825 103.439 17.0649C105.342 18.6114 107.164 20.3179 108.88 22.0778C109.148 22.3444 109.121 22.771 108.853 23.011C108.719 23.1443 108.558 23.1976 108.397 23.1976C108.21 23.1976 108.049 23.1176 107.915 22.9843C106.253 21.2512 104.457 19.598 102.581 18.0782ZM90.3848 10.239C92.556 11.3055 94.6735 12.5054 96.7107 13.8119C96.8179 13.8919 96.9519 13.9186 97.0859 13.9186C97.3004 13.9186 97.5148 13.8119 97.6488 13.6253C97.8365 13.3053 97.7561 12.9054 97.4612 12.692C95.3973 11.3588 93.1993 10.1323 91.0013 9.03908C90.6797 8.8791 90.2776 9.01242 90.09 9.33238C89.9023 9.67902 90.0363 10.079 90.3848 10.239ZM116.76 34.4765C116.895 34.6898 117.109 34.7965 117.323 34.7965C117.431 34.7965 117.565 34.7698 117.672 34.6898C117.994 34.5032 118.101 34.1032 117.913 33.7832C116.653 31.6768 115.233 29.6237 113.732 27.6772C113.517 27.3839 113.088 27.3306 112.793 27.5439C112.499 27.7572 112.445 28.1838 112.659 28.4771C114.134 30.3969 115.501 32.4234 116.76 34.4765ZM76.6877 5.38612C79.0465 5.9194 81.4053 6.61266 83.6569 7.41258C83.7373 7.43924 83.8177 7.43924 83.8713 7.43924C84.1393 7.43924 84.4074 7.27926 84.5146 6.98596C84.6486 6.63932 84.461 6.26603 84.1125 6.13271C81.7805 5.30613 79.3949 4.61286 76.9825 4.05292C76.6341 3.97293 76.2588 4.18624 76.1784 4.55954C76.1248 4.93283 76.3392 5.30613 76.6877 5.38612ZM126.196 62.4203C126.223 62.4203 126.223 62.4203 126.249 62.4203C126.625 62.3937 126.893 62.0737 126.866 61.7004C126.678 59.2473 126.33 56.7942 125.874 54.3678C125.794 53.9945 125.445 53.7812 125.097 53.8345C124.721 53.9145 124.507 54.2611 124.561 54.6078C125.016 56.9542 125.365 59.3806 125.552 61.7804C125.552 62.1537 125.847 62.4203 126.196 62.4203ZM122.738 47.6218C122.818 47.9151 123.086 48.0751 123.381 48.0751C123.462 48.0751 123.515 48.0751 123.596 48.0484C123.944 47.9418 124.132 47.5685 124.025 47.2219C123.274 44.8754 122.389 42.5557 121.371 40.3159C121.21 39.9693 120.808 39.8359 120.486 39.9693C120.138 40.1292 120.004 40.5292 120.165 40.8492C121.103 43.0623 121.987 45.3554 122.738 47.6218ZM123.462 83.3249C122.818 85.6446 122.041 87.9644 121.156 90.1775C121.022 90.5241 121.183 90.8974 121.532 91.0574C121.612 91.0841 121.693 91.1107 121.773 91.1107C122.041 91.1107 122.282 90.9507 122.389 90.6841C123.301 88.4177 124.105 86.0446 124.748 83.6715C124.855 83.3249 124.641 82.9516 124.266 82.8449C123.944 82.7649 123.569 82.9516 123.462 83.3249ZM126.357 68.393C126.008 68.393 125.686 68.6597 125.66 69.033C125.606 70.4195 125.499 71.806 125.365 73.1926C125.258 74.2058 125.124 75.2457 124.963 76.2322C124.909 76.6055 125.15 76.9255 125.526 77.0055C125.552 77.0055 125.606 77.0055 125.633 77.0055C125.954 77.0055 126.249 76.7655 126.303 76.4456C126.464 75.4057 126.598 74.3658 126.705 73.3259C126.839 71.9127 126.946 70.4995 127 69.0863C127.027 68.713 126.732 68.4197 126.357 68.393ZM0.509106 50.7948C0.562715 50.8215 0.616324 50.8215 0.696737 50.8215C0.991588 50.8215 1.25963 50.6348 1.34005 50.3149C1.95655 47.9951 2.73388 45.6754 3.61843 43.4356C3.75246 43.0889 3.59163 42.7157 3.24317 42.5823C2.89471 42.449 2.51945 42.609 2.35862 42.9556C1.44727 45.2487 0.669933 47.5952 0.0266234 49.9682C-0.0805948 50.3415 0.133842 50.6882 0.509106 50.7948ZM14.4743 25.2774C14.6619 25.2774 14.8495 25.1974 14.9836 25.0641C16.5918 23.2776 18.3073 21.5445 20.1032 19.918C20.3713 19.678 20.3981 19.2514 20.1568 18.9847C19.9156 18.7181 19.4867 18.6914 19.2187 18.9314C17.3692 20.5846 15.6269 22.3444 13.9918 24.1842C13.7506 24.4508 13.7774 24.8775 14.0454 25.1174C14.1526 25.2241 14.3135 25.2774 14.4743 25.2774ZM5.7628 37.1695C5.87002 37.2229 5.97724 37.2495 6.08446 37.2495C6.3257 37.2495 6.56694 37.1162 6.67416 36.9029C7.82675 34.7965 9.11337 32.7167 10.4804 30.7435C10.6948 30.4502 10.6144 30.0236 10.3196 29.8103C10.0247 29.597 9.59585 29.677 9.38142 29.9703C7.96077 31.9967 6.67416 34.1032 5.49475 36.263C5.33393 36.5829 5.44115 36.9829 5.7628 37.1695ZM25.4105 15.4918C25.5446 15.4918 25.6786 15.4651 25.7858 15.3584C27.7693 13.9719 29.8333 12.6654 31.9509 11.5188C32.2725 11.3322 32.4065 10.9322 32.2189 10.6123C32.0313 10.2923 31.6292 10.159 31.3076 10.3456C29.1364 11.5188 27.0188 12.852 25.0085 14.2652C24.7136 14.4785 24.6332 14.9051 24.8476 15.1985C24.9817 15.4118 25.1961 15.4918 25.4105 15.4918ZM38.2499 8.45247C38.3303 8.45247 38.4108 8.42581 38.4912 8.39915C40.7428 7.49257 43.0479 6.69265 45.3799 6.05272C45.7284 5.94606 45.9428 5.57277 45.8356 5.22613C45.7284 4.8795 45.3531 4.66619 45.0047 4.77285C42.6191 5.43945 40.2603 6.23937 37.9819 7.1726C37.6334 7.30592 37.4726 7.70588 37.6066 8.05251C37.7406 8.31915 38.0087 8.45247 38.2499 8.45247ZM94.7808 120.814C92.69 122.041 90.5188 123.161 88.3209 124.147C87.9724 124.307 87.8384 124.681 87.9724 125.027C88.0796 125.267 88.3209 125.427 88.5889 125.427C88.6693 125.427 88.7765 125.401 88.8569 125.374C91.1085 124.361 93.3333 123.214 95.4509 121.961C95.7725 121.774 95.8797 121.374 95.6921 121.054C95.5045 120.734 95.1024 120.628 94.7808 120.814ZM52.5368 130.253C52.5636 130.253 52.6172 130.253 52.644 130.253C52.9656 130.253 53.2605 130.013 53.3141 129.693C53.3677 129.32 53.1265 129 52.7512 128.92C50.3656 128.547 47.9532 128.04 45.648 127.4C45.2995 127.294 44.9243 127.507 44.817 127.88C44.7098 128.227 44.9243 128.6 45.2995 128.707C47.6583 129.347 50.0975 129.853 52.5368 130.253ZM74.7309 129.827C77.1433 129.374 79.5826 128.76 81.9414 128.014C82.2898 127.907 82.4775 127.534 82.3702 127.187C82.263 126.84 81.8878 126.654 81.5393 126.76C79.2341 127.48 76.8485 128.094 74.4897 128.547C74.1144 128.627 73.9 128.974 73.9536 129.32C74.0072 129.64 74.3021 129.853 74.6237 129.853C74.6505 129.853 74.6773 129.853 74.7309 129.827ZM67.2525 129.48C64.8401 129.667 62.4008 129.693 59.9884 129.613C59.6668 129.613 59.3183 129.88 59.2915 130.253C59.2647 130.627 59.5596 130.92 59.9348 130.947C60.7926 130.973 61.6503 131 62.4813 131C64.1163 131 65.7514 130.947 67.3597 130.813C67.7349 130.787 68.003 130.467 67.9762 130.093C67.9494 129.72 67.6277 129.453 67.2525 129.48ZM38.2231 126.334C38.3035 126.36 38.384 126.387 38.4644 126.387C38.7324 126.387 38.9737 126.227 39.0809 125.961C39.2149 125.614 39.0541 125.241 38.7056 125.081C36.5076 124.201 34.3097 123.161 32.2189 122.041C31.8972 121.854 31.4952 121.988 31.3076 122.308C31.1199 122.628 31.2539 123.027 31.5756 123.214C33.7468 124.387 35.9715 125.427 38.2231 126.334ZM113.437 87.0578L119.361 94.5237L124.159 98.0434C124.453 98.2567 124.507 98.6833 124.293 98.9766C124.105 99.2166 123.81 99.2966 123.542 99.2166C123.488 99.1899 123.408 99.1632 123.354 99.1366L118.476 95.5369C118.422 95.5103 118.396 95.4569 118.342 95.4036L112.15 87.5911L106.414 84.1248C106.119 83.9381 105.771 83.8048 105.422 83.7515L97.9705 82.5249C97.4344 82.4449 96.8983 82.4983 96.389 82.7382L90.3312 85.4313C89.5807 85.7779 89.2322 86.6578 89.5539 87.4044C89.8755 88.151 90.7601 88.5243 91.5374 88.2044L96.9519 85.9912C97.0859 85.9379 97.22 85.9379 97.354 85.9646L102.983 87.2711C104.189 87.5644 105.261 88.2843 105.958 89.2976L107.486 91.5107C107.969 92.2306 108.263 93.0572 108.344 93.9104C108.451 95.3503 107.969 96.7635 106.95 97.7767C105.958 98.8166 104.564 99.3499 103.117 99.2966L97.622 99.0299C97.1396 99.0033 96.6839 99.1899 96.3354 99.5099C95.987 99.8565 95.7993 100.31 95.7993 100.79C95.8261 101.563 96.3622 102.23 97.1127 102.443C99.8468 103.163 107.245 105.109 116.868 107.882C116.921 107.909 116.975 107.909 117.029 107.936L120.057 109.696L120.191 109.775C120.513 109.962 120.62 110.362 120.433 110.682C120.299 110.895 120.084 111.002 119.843 111.002C119.736 111.002 119.602 110.975 119.495 110.922L116.412 109.136C115.393 108.842 114.375 108.549 113.41 108.282V114.655C113.41 115.028 113.115 115.322 112.74 115.322H69.236C68.8607 115.322 68.5659 115.028 68.5659 114.655V57.2475C68.5659 56.8742 68.8607 56.5809 69.236 56.5809H104.27C104.296 56.5809 104.296 56.5809 104.323 56.5809C104.377 56.5809 104.43 56.6076 104.511 56.6076C104.538 56.6076 104.564 56.6076 104.564 56.6342C104.645 56.6609 104.698 56.7142 104.752 56.7676L113.222 65.1934C113.356 65.3267 113.41 65.4867 113.41 65.6467C113.41 65.7 113.437 65.7533 113.437 65.8066V87.0578ZM97.3004 87.3244L95.5581 88.0444C96.9251 88.4977 98.1045 89.4309 98.855 90.7374C100.168 93.0039 99.9004 95.8303 98.3994 97.7767L100.49 97.8834C101.857 95.457 101.911 92.3639 100.383 89.8042C99.8736 88.9509 99.2035 88.2044 98.453 87.6178L97.3004 87.3244ZM102.688 88.5777L100.865 88.151C101.107 88.4443 101.321 88.7643 101.509 89.0843C103.171 91.8573 103.197 95.1903 101.911 97.91L103.197 97.9634C104.243 98.0167 105.288 97.6167 106.012 96.8435C106.736 96.0969 107.111 95.057 107.03 94.0171C106.977 93.3772 106.762 92.7906 106.414 92.2573L104.886 90.0442C104.377 89.3242 103.599 88.791 102.688 88.5777ZM91.9663 89.4842C91.7786 89.5642 91.591 89.6709 91.4034 89.7775C89.2322 91.1641 88.5353 94.1504 89.8755 96.4169C90.5188 97.5367 91.5374 98.31 92.7436 98.6033C93.8962 98.8966 95.1024 98.6833 96.121 98.0167C98.2922 96.6302 98.9891 93.6438 97.6488 91.3774C97.0055 90.2575 95.987 89.4842 94.7808 89.1909C94.4323 89.1109 94.0838 89.0576 93.7622 89.0576C93.2797 89.0576 92.7972 89.1376 92.3415 89.2976L92.0735 89.4042C92.0199 89.4576 91.9931 89.4576 91.9663 89.4842ZM88.4549 88.1244C85.8548 90.6308 85.2115 94.7637 87.1683 98.0167C88.2404 99.8298 89.9559 101.11 91.9931 101.59C92.8776 101.803 93.7622 101.856 94.6467 101.75C94.5395 101.456 94.4859 101.163 94.4859 100.843C94.4859 100.55 94.5395 100.256 94.6199 99.9898C94.3519 100.016 94.0838 100.043 93.789 100.043C93.3333 100.043 92.8776 99.9898 92.4488 99.8832C90.8941 99.5099 89.5539 98.4966 88.7229 97.0835C87.2487 94.5504 87.758 91.2974 89.7683 89.3776C89.2322 89.1109 88.7497 88.6843 88.4549 88.1244ZM88.2672 85.9646C85.8012 83.5648 81.9682 83.1115 78.9929 84.898C77.2506 85.9379 76.0444 87.6177 75.5619 89.5642C75.0794 91.5373 75.4011 93.5638 76.4464 95.297C78.4032 98.4966 82.397 99.7498 85.828 98.3633C85.0239 96.8701 84.6754 95.2436 84.7022 93.6705L81.1372 97.2168C81.0032 97.3501 80.8424 97.4034 80.6547 97.4034C80.4939 97.4034 80.3063 97.3501 80.1723 97.2168C79.9042 96.9501 79.9042 96.5235 80.1723 96.2835L85.0239 91.4574C85.5332 89.6175 86.5786 87.9111 88.1332 86.6578C88.16 86.4179 88.1868 86.1779 88.2672 85.9646ZM95.8529 81.5117C96.6035 81.1917 97.4076 81.0851 98.2117 81.2184L105.663 82.4449C106.173 82.5249 106.682 82.7116 107.138 82.9782L112.097 85.9912V66.3132H104.27C104.082 66.3132 103.921 66.2333 103.787 66.1266C103.653 65.9933 103.599 65.8333 103.599 65.6467L103.626 57.8874H69.9061V113.962H112.07V107.909C104.645 105.829 99.0695 104.336 96.7643 103.749C96.255 103.616 95.7725 103.349 95.4241 103.003C94.888 103.11 94.3251 103.163 93.789 103.163C93.0921 103.163 92.3683 103.083 91.6714 102.923C89.6075 102.416 87.8116 101.216 86.5249 99.5099C85.3723 100.016 84.1661 100.283 82.9599 100.283C79.931 100.283 76.9825 98.7366 75.2938 96.0169C74.0608 93.9904 73.6856 91.5907 74.2485 89.2976C74.8114 86.9778 76.2588 85.0313 78.296 83.8048C81.7001 81.725 86.0693 82.205 88.991 84.8447C89.2322 84.6047 89.5003 84.4181 89.8219 84.2848L95.8529 81.5117ZM104.94 58.8473V64.98H111.132L104.94 58.8473ZM75.401 64.4468H99.5252C99.9004 64.4468 100.195 64.1535 100.195 63.7802C100.195 63.4069 99.9004 63.1136 99.5252 63.1136H75.401C75.0258 63.1136 74.7309 63.4069 74.7309 63.7802C74.7309 64.1535 75.0258 64.4468 75.401 64.4468ZM75.401 68.6863H91.9663C92.3415 68.6863 92.6364 68.393 92.6364 68.0197C92.6364 67.6465 92.3415 67.3531 91.9663 67.3531H75.401C75.0258 67.3531 74.7309 67.6465 74.7309 68.0197C74.7309 68.393 75.0258 68.6863 75.401 68.6863ZM91.9663 76.2856H75.401C75.0258 76.2856 74.7309 76.5789 74.7309 76.9522C74.7309 77.3255 75.0258 77.6188 75.401 77.6188H91.9663C92.3415 77.6188 92.6364 77.3255 92.6364 76.9522C92.6364 76.5789 92.3147 76.2856 91.9663 76.2856ZM108.237 72.2593C108.237 71.886 107.942 71.5927 107.567 71.5927H75.401C75.0258 71.5927 74.7309 71.886 74.7309 72.2593C74.7309 72.6326 75.0258 72.9259 75.401 72.9259H107.567C107.942 72.9259 108.237 72.6326 108.237 72.2593ZM77.0897 94.2837C77.2238 94.4171 77.3846 94.4704 77.5722 94.4704C77.733 94.4704 77.9207 94.4171 78.0547 94.2837L85.8548 86.5512C86.1229 86.2846 86.1229 85.8579 85.8548 85.618C85.5868 85.3513 85.1579 85.3513 84.9167 85.618L77.1165 93.3505C76.8485 93.6171 76.8485 94.0438 77.0897 94.2837ZM78.1083 110.389C78.2423 110.522 78.4032 110.575 78.5908 110.575C78.7516 110.575 78.9393 110.522 79.0733 110.389L81.5929 107.882L84.1125 110.389C84.2466 110.522 84.4074 110.575 84.595 110.575C84.7559 110.575 84.9435 110.522 85.0775 110.389C85.3455 110.122 85.3455 109.696 85.0775 109.456L82.5579 106.949L85.0775 104.443C85.3455 104.176 85.3455 103.749 85.0775 103.509C84.8095 103.243 84.3806 103.243 84.1393 103.509L81.6197 106.016L79.1001 103.509C78.832 103.243 78.4032 103.243 78.1619 103.509C77.8939 103.776 77.8939 104.203 78.1619 104.443L80.6815 106.949L78.1619 109.456C77.8403 109.696 77.8403 110.122 78.1083 110.389ZM5.1463 60.6605C5.1731 60.6072 5.1999 60.5805 5.22671 60.5272C5.25351 60.5005 5.25351 60.4738 5.28032 60.4738C5.33393 60.4472 5.36073 60.4205 5.41434 60.3939C5.44115 60.3939 5.46795 60.3672 5.46795 60.3672C5.54836 60.3405 5.62878 60.3139 5.70919 60.3139H12.866V57.7541C12.866 57.3808 13.1609 57.0875 13.5361 57.0875C13.9114 57.0875 14.2062 57.3808 14.2062 57.7541V60.3139H21.4435C21.5239 60.3139 21.6043 60.3405 21.6847 60.3672C21.7115 60.3672 21.7383 60.3939 21.7383 60.3939C21.7919 60.4205 21.8187 60.4472 21.8723 60.4738C21.8991 60.5005 21.926 60.5005 21.926 60.5272C21.9528 60.5538 21.9796 60.6072 22.0064 60.6605C22.0332 60.6872 22.0332 60.7138 22.0332 60.7405L22.06 60.7671L26.3487 74.6591C26.3487 74.6857 26.3487 74.7124 26.3487 74.7391C26.3487 74.7924 26.3755 74.819 26.3755 74.8724C26.3755 77.5121 24.2043 79.6719 21.5507 79.6719H21.2826C18.629 79.6719 16.4578 77.5121 16.4578 74.8724C16.4578 74.819 16.4846 74.7924 16.4846 74.7391C16.4846 74.7124 16.4846 74.6857 16.4846 74.6591L20.5053 61.6204H14.2062V81.885H16.4578C16.8331 81.885 17.1279 82.1783 17.1279 82.5516C17.1279 82.9249 16.8331 83.2182 16.4578 83.2182H10.6144C10.2392 83.2182 9.94431 82.9249 9.94431 82.5516C9.94431 82.1783 10.2392 81.885 10.6144 81.885H12.866V61.6204H6.62055L10.6412 74.6591C10.6412 74.6857 10.6412 74.7124 10.6412 74.7391C10.6412 74.7924 10.668 74.819 10.668 74.8724C10.668 77.5121 8.49687 79.6719 5.84321 79.6719H5.57517C2.92152 79.6719 0.750347 77.5121 0.750347 74.8724C0.750347 74.819 0.777151 74.7924 0.777151 74.7391C0.777151 74.7124 0.777151 74.6857 0.777151 74.6591L5.09269 60.7938C5.09269 60.7938 5.09269 60.7671 5.11949 60.7671C5.11949 60.7138 5.11949 60.6872 5.1463 60.6605ZM21.5775 78.3387C23.2662 78.3387 24.6868 77.1388 25.0085 75.539H17.9053C18.2269 77.1388 19.6476 78.3387 21.3363 78.3387H21.5775ZM24.8208 74.2058L21.4435 63.2469L18.0661 74.2058H24.8208ZM5.60197 78.3387H5.87002C7.55871 78.3387 8.97935 77.1388 9.301 75.539H2.17099C2.49264 77.1388 3.91329 78.3387 5.60197 78.3387ZM9.11337 74.2058L5.736 63.2469L2.35862 74.2058H9.11337ZM11.9547 88.8176L20.8806 86.6578C20.7734 85.7513 21.3631 84.898 22.2744 84.6847L23.1322 84.4714C24.1239 84.2314 25.1157 84.8447 25.3569 85.8046L27.2869 93.6971C27.3941 94.1771 27.3137 94.657 27.0724 95.0837C26.8044 95.5103 26.4023 95.8036 25.9466 95.9102L25.0889 96.1236C24.9549 96.1502 24.794 96.1769 24.66 96.1769C23.9631 96.1769 23.3198 95.7769 22.9981 95.137L21.229 95.5636L22.462 100.416L23.4002 100.256C23.9095 100.176 24.4188 100.283 24.8745 100.55C25.3033 100.15 25.8394 99.8832 26.4559 99.8565C26.5899 99.8565 26.6972 99.8565 26.8312 99.8565C27.1528 99.3232 27.5817 98.5766 28.1178 97.6701C29.9673 94.1771 33.1839 91.6973 36.9365 90.7641H36.9633C37.2045 90.7108 37.4726 90.6574 37.7138 90.6041C37.7674 90.6041 37.7943 90.5775 37.8479 90.5775C38.0623 90.5241 38.3035 90.4975 38.518 90.4708C38.6252 90.4441 38.7324 90.4441 38.8128 90.4441C38.9737 90.4175 39.1613 90.4175 39.3221 90.3908C39.3757 90.3908 39.4561 90.3908 39.5097 90.3908V86.8978C38.3571 88.3643 36.5612 89.2443 34.6581 89.2443H32.2993C30.1013 89.2443 28.2786 87.5911 28.1446 85.4846C28.0642 84.3647 28.4663 83.2982 29.2168 82.4716C29.4312 82.2316 29.6725 82.045 29.9405 81.8583C28.8415 81.1384 28.1178 79.9119 28.1178 78.4987C28.1178 77.0588 28.7343 75.8589 29.7261 75.139C29.5384 75.0057 29.3508 74.8457 29.1632 74.6591C28.4127 73.8592 28.0374 72.7126 28.1178 71.5394C28.2518 69.4863 30.0209 67.8598 32.1385 67.7798V66.4999C32.1385 61.3271 36.3468 57.1409 41.5469 57.1409H46.2377C51.4378 57.1409 55.6461 61.3271 55.6461 66.4999V67.7798C57.7905 67.8331 59.5328 69.4596 59.6668 71.5394C59.7472 72.8193 59.3987 73.9658 58.6482 74.7657C58.5142 74.899 58.3802 75.0324 58.2193 75.139C59.1307 75.8323 59.6936 77.0322 59.6936 78.4987C59.6936 79.8852 58.9699 81.1384 57.8709 81.8583C58.1389 82.0183 58.3802 82.2316 58.5946 82.4716C59.3719 83.2982 59.7472 84.3647 59.6668 85.4846C59.5328 87.5911 57.71 89.2443 55.5121 89.2443H53.1265C51.2233 89.2443 49.4274 88.3643 48.2748 86.8978V90.4175C48.4625 90.4441 48.6501 90.4441 48.8377 90.4708C48.9181 90.4708 48.9986 90.4975 49.079 90.4975C49.4542 90.5508 49.8295 90.6308 50.178 90.7108C50.2852 90.7374 50.3924 90.7641 50.5264 90.7908C50.6336 90.8174 50.7141 90.8441 50.8213 90.8708C50.8481 90.8708 50.8481 90.8974 50.8749 90.8974C56.6915 92.5506 60.8998 97.8034 60.8998 104.096V113.588C60.8998 113.962 60.6049 114.255 60.2297 114.255C59.8544 114.255 59.5596 113.962 59.5596 113.588V104.096C59.5596 98.63 56.0214 93.9904 51.0625 92.3373L48.6233 99.1366C48.5429 99.3499 48.3553 99.5099 48.1408 99.5632C47.9264 99.6165 47.6851 99.5365 47.5243 99.3766L43.7449 95.6169L39.9386 99.3232C39.8046 99.4565 39.6438 99.5099 39.4561 99.5099C39.4025 99.5099 39.3489 99.5099 39.2953 99.4832C39.0809 99.4299 38.8932 99.2699 38.8128 99.0299L36.588 92.1506C33.4519 93.1105 30.7715 95.2703 29.2168 98.2567C28.7343 99.0566 28.3322 99.7498 28.0374 100.283C28.091 100.336 28.1714 100.363 28.225 100.416C28.7343 100.843 29.0292 101.456 29.0828 102.123L29.7529 111.322C29.8065 112.095 29.6189 112.842 29.2436 113.482C28.6539 114.468 27.6621 115.162 26.4291 115.322L23.2662 115.695C23.0517 115.748 22.7569 115.775 22.462 115.775C21.5239 115.775 20.3981 115.508 19.9156 114.548C19.5403 114.522 19.1651 114.388 18.8434 114.148C18.3609 113.802 18.0393 113.295 17.9589 112.709C17.8517 112.149 18.0125 111.562 18.3341 111.082C17.8785 110.762 17.5568 110.255 17.4496 109.669C17.3424 109.109 17.5032 108.522 17.8249 108.042C17.3692 107.696 17.0475 107.189 16.9403 106.629C16.8331 106.043 16.9939 105.456 17.3156 105.003C16.8331 104.656 16.5382 104.149 16.431 103.589C16.3238 103.003 16.4846 102.416 16.8063 101.936C16.9403 101.776 17.0743 101.616 17.262 101.483L16.0558 96.7635L13.9918 97.2701C14.0186 98.1233 13.4557 98.8966 12.598 99.1099L11.7402 99.3232C11.6062 99.3499 11.4454 99.3766 11.3113 99.3766C10.4804 99.3766 9.72988 98.8166 9.51544 97.99L7.58551 90.0975C7.34427 89.1109 7.96077 88.1244 8.92574 87.8844L9.78348 87.6711C10.7216 87.4844 11.633 87.9644 11.9547 88.8176ZM23.5342 85.7513C23.5074 85.7513 23.4538 85.7513 23.427 85.7779L22.5693 85.9912C22.3012 86.0446 22.1404 86.3112 22.194 86.5779L24.1239 94.4704C24.1775 94.737 24.4724 94.897 24.7136 94.8437L25.5714 94.6304C25.7054 94.6037 25.8126 94.5237 25.8662 94.4171C25.9466 94.3104 25.9466 94.1771 25.9198 94.0438L24.0167 86.1246C23.9631 85.9113 23.7755 85.7513 23.5342 85.7513ZM23.561 101.59L18.4682 102.416C18.2269 102.443 18.0393 102.576 17.9053 102.763C17.7712 102.95 17.7176 103.189 17.7444 103.403C17.7712 103.643 17.9053 103.829 18.0929 103.963C18.2805 104.096 18.5218 104.149 18.7362 104.123L21.2558 103.723L23.8291 103.296C24.3116 103.216 24.6332 102.763 24.5528 102.31C24.526 102.07 24.392 101.883 24.2043 101.75C24.0435 101.643 23.8827 101.59 23.6951 101.59C23.6682 101.563 23.6146 101.563 23.561 101.59ZM25.7322 101.536C25.8126 101.696 25.8662 101.883 25.893 102.07C26.0002 102.763 25.759 103.456 25.3033 103.936C25.6518 104.256 25.893 104.683 25.9734 105.189C26.0807 105.909 25.8394 106.602 25.3569 107.082C25.7054 107.402 25.9198 107.829 26.0002 108.309C26.1075 109.029 25.8662 109.722 25.3837 110.202C25.7322 110.522 25.9466 110.949 26.0271 111.429C26.2147 112.629 25.4105 113.775 24.2043 113.962L21.6311 114.388C22.2208 114.548 22.9713 114.442 22.9981 114.442L26.2147 114.068C27.5013 113.908 28.4395 112.789 28.359 111.509L27.6889 102.31C27.6621 101.99 27.5281 101.723 27.2869 101.51C27.0456 101.296 26.7508 101.216 26.4291 101.216C26.1879 101.19 25.9198 101.323 25.7322 101.536ZM19.7548 110.202L23.5342 109.589L23.9899 109.509C24.4724 109.429 24.794 108.976 24.7136 108.496C24.6868 108.256 24.5528 108.069 24.3652 107.936C24.2043 107.829 24.0435 107.776 23.8559 107.776C23.8023 107.776 23.7487 107.776 23.7219 107.776L19.4867 108.469C19.2455 108.496 19.0579 108.629 18.9238 108.816C18.7898 109.002 18.7362 109.242 18.763 109.456C18.8434 109.935 19.2991 110.255 19.7548 110.202ZM18.2537 106.443C18.2805 106.682 18.4146 106.869 18.6022 107.002C18.7898 107.136 19.0311 107.189 19.2455 107.162L23.9363 106.389C24.4188 106.309 24.7404 105.856 24.66 105.403C24.6332 105.163 24.4992 104.976 24.3116 104.843C24.1507 104.736 23.9899 104.683 23.8023 104.683C23.7487 104.683 23.6951 104.683 23.6682 104.683L18.9775 105.456C18.495 105.509 18.1733 105.963 18.2537 106.443ZM19.2455 112.495C19.2723 112.735 19.4063 112.922 19.594 113.055C19.7816 113.188 20.0228 113.242 20.2373 113.215L24.0167 112.602C24.4992 112.522 24.8208 112.069 24.7404 111.615C24.7136 111.375 24.5796 111.189 24.392 111.055C24.2311 110.949 24.0703 110.895 23.8827 110.895C23.8291 110.895 23.7755 110.895 23.7487 110.895L19.9692 111.509C19.728 111.535 19.5403 111.669 19.4063 111.855C19.2723 112.042 19.2187 112.282 19.2455 112.495ZM21.095 100.63L19.8888 95.9102L17.3692 96.4968L18.5218 101.03L21.095 100.63ZM11.4454 98.0434L12.3031 97.83C12.5712 97.7767 12.732 97.5101 12.6784 97.2434L10.7216 89.3509C10.668 89.1376 10.4536 88.9776 10.2392 88.9776C10.2124 88.9776 10.1587 88.9776 10.1319 89.0043L9.2742 89.2176C9.00615 89.2709 8.84533 89.5376 8.89893 89.8042L10.8289 97.6967C10.9093 97.9367 11.1773 98.0967 11.4454 98.0434ZM21.1754 87.9644L12.3031 90.0975L13.7506 95.9902L22.6229 93.8571L21.1754 87.9644ZM34.6313 87.8577C36.186 87.8577 37.6334 87.1111 38.5448 85.8846C36.4808 84.4447 35.087 82.0983 34.9798 79.4319C33.1035 79.1386 31.6024 77.6721 31.2807 75.8056C30.1013 76.0989 29.458 77.2721 29.458 78.4454C29.458 79.9385 30.6642 81.1384 32.1653 81.1384C32.5406 81.1384 32.8354 81.4317 32.8354 81.805C32.8354 82.1783 32.5406 82.4716 32.1653 82.4716C31.4148 82.4716 30.7178 82.7649 30.2086 83.3249C29.6993 83.8848 29.4312 84.5781 29.4848 85.3513C29.5653 86.7645 30.7983 87.8577 32.2993 87.8577H34.6313ZM32.2725 69.0596C30.7983 69.0596 29.5653 70.1529 29.458 71.566C29.4044 72.3926 29.6457 73.1659 30.155 73.6992C30.4498 74.0191 30.8251 74.2324 31.2539 74.3391C31.6024 72.3393 33.2911 70.7928 35.355 70.6861C35.4086 70.6595 35.4891 70.6595 35.5427 70.6595C39.8314 70.6595 43.316 68.2331 43.316 65.2467C43.316 64.8734 43.6108 64.5801 43.9861 64.5801C44.3614 64.5801 44.6562 64.8734 44.6562 65.2467C44.6562 68.2331 48.1408 70.6595 52.4295 70.6595C52.51 70.6595 52.5636 70.6595 52.644 70.6861C54.7079 70.7928 56.3966 72.3393 56.7451 74.3391C57.1203 74.2591 57.4152 74.0725 57.6832 73.8058C58.1657 73.2992 58.407 72.4726 58.3534 71.5927C58.2729 70.1795 57.0399 69.0863 55.5389 69.0863H54.976C54.6007 69.0863 54.3059 68.793 54.3059 68.4197V66.4732C54.3059 62.047 50.6872 58.4474 46.2377 58.4474H41.5469C37.0973 58.4474 33.4787 62.047 33.4787 66.4732V68.4197C33.4787 68.793 33.1839 69.0863 32.8086 69.0863H32.2725V69.0596ZM58.3802 78.472C58.3802 77.4054 57.9513 76.1522 56.7719 75.8323C56.4502 77.6988 54.9492 79.1653 53.0729 79.4319C52.9656 82.1783 51.5182 84.5781 49.347 85.9912C50.2584 87.1378 51.679 87.8311 53.1801 87.8311H55.5657C57.0399 87.8311 58.2729 86.7378 58.3802 85.3246C58.4338 84.5781 58.1657 83.8581 57.6564 83.2982C57.1471 82.7382 56.4502 82.4449 55.6997 82.4449C55.3244 82.4449 55.0296 82.1516 55.0296 81.7784C55.0296 81.4051 55.3244 81.1117 55.6997 81.1117C57.1471 81.1384 58.3802 79.9385 58.3802 78.472ZM49.7759 91.9373C49.2398 91.8307 48.7037 91.7507 48.1408 91.6973C47.7387 93.2438 46.4789 94.4704 44.8975 94.8437L47.7119 97.6434L49.7759 91.9373ZM39.7778 97.6167L42.6191 94.7904C41.1448 94.3371 40.019 93.1638 39.617 91.6973C39.0541 91.724 38.4644 91.7773 37.9015 91.884L39.7778 97.6167ZM43.9057 93.6438C45.5944 93.6438 46.9614 92.2839 46.9614 90.6041V87.0845C46.2645 87.2711 45.5408 87.3778 44.7902 87.3778H43.2356C42.4046 87.3778 41.6005 87.2445 40.8232 87.0311V90.6041C40.8232 92.2573 42.217 93.6438 43.9057 93.6438ZM36.2932 78.8186V79.112C36.2932 82.9249 39.4025 86.0179 43.2356 86.0179H44.7902C48.6233 86.0179 51.7326 82.9249 51.7326 79.112V78.8186C51.7326 78.4454 52.0275 78.152 52.4027 78.152C54.1182 78.152 55.4853 76.7655 55.4853 75.0857C55.4853 73.3792 54.0914 72.0193 52.4027 72.0193C52.3491 72.0193 52.2687 72.0193 52.2151 71.9927C48.5161 71.9127 45.3531 70.2062 44.0129 67.8064C42.6727 70.2062 39.5097 71.9393 35.8107 71.9927C35.7571 72.0193 35.7035 72.0193 35.6231 72.0193C33.9076 72.0193 32.5406 73.4059 32.5406 75.0857C32.5406 76.7922 33.9344 78.152 35.6231 78.152C35.9983 78.152 36.2932 78.4454 36.2932 78.8186ZM54.842 102.656C54.842 102.283 54.5471 101.99 54.1718 101.99C53.7966 101.99 53.5017 102.283 53.5017 102.656V113.508V113.535C53.5285 113.882 53.7966 114.175 54.1718 114.175C54.5203 114.175 54.8152 113.882 54.842 113.535V113.508V102.656ZM32.9426 101.99C32.5674 101.99 32.2725 102.283 32.2725 102.656V113.508V113.535C32.2725 113.908 32.5674 114.202 32.9426 114.202C33.3179 114.202 33.6127 113.908 33.6127 113.535V113.508V102.656C33.6127 102.31 33.2911 101.99 32.9426 101.99ZM40.6355 80.3918V78.8986C40.6355 78.5253 40.9304 78.232 41.3057 78.232H46.747C47.1222 78.232 47.4171 78.5253 47.4171 78.8986V80.3918C47.4171 82.2583 45.8892 83.7515 44.0397 83.7515C42.1634 83.7515 40.6355 82.2583 40.6355 80.3918ZM41.9758 80.3918C41.9758 81.5117 42.8871 82.4183 44.0129 82.4183C45.1387 82.4183 46.0501 81.5117 46.0501 80.3918V79.5652H41.949V80.3918H41.9758ZM33.5859 33.4099C33.5859 31.8901 34.4705 30.6902 35.5963 30.6902H46.1037V27.1439H44.683C44.3078 27.1439 44.0129 26.8506 44.0129 26.4773C44.0129 26.104 44.3078 25.8107 44.683 25.8107H46.4253C46.4789 25.784 46.5057 25.7574 46.5593 25.7307C46.8006 19.4114 49.9367 10.5323 57.5492 8.2125V7.59923C57.5492 6.13271 58.7286 4.9595 60.2029 4.9595H60.873V0.666599C60.873 0.293303 61.1678 0 61.5431 0C61.9184 0 62.2132 0.293303 62.2132 0.666599V4.98616H62.6957C64.1699 4.98616 65.3493 6.15937 65.3493 7.62589V8.18583C73.1227 10.4256 76.2856 19.4647 76.5268 25.8374H78.5372C78.9125 25.8374 79.2073 26.1307 79.2073 26.504C79.2073 26.8773 78.9125 27.1706 78.5372 27.1706H76.5536V30.7169H87.5167C88.6425 30.7169 89.5271 31.9168 89.5271 33.4366C89.5271 34.9564 88.6425 36.1563 87.5167 36.1563H86.8466V38.0761C86.8466 39.0094 86.0961 39.756 85.1579 39.756H84.6218V50.6082C84.6218 50.9815 84.327 51.2748 83.9517 51.2748C83.5764 51.2748 83.2816 50.9815 83.2816 50.6082V39.756H82.7187C81.7805 39.756 81.03 39.0094 81.03 38.0761V36.1563H80.1455V38.0761C80.1455 39.0094 79.3949 39.756 78.4568 39.756H78.0547V50.6082C78.0547 50.9815 77.7599 51.2748 77.3846 51.2748C77.0093 51.2748 76.7145 50.9815 76.7145 50.6082V39.756H76.0176C75.0794 39.756 74.3289 39.0094 74.3289 38.0761V36.1563H73.4443V38.0761C73.4443 39.0094 72.6938 39.756 71.7556 39.756H71.2195V50.6082C71.2195 50.9815 70.9247 51.2748 70.5494 51.2748C70.1742 51.2748 69.8793 50.9815 69.8793 50.6082V39.756H69.3164C68.3783 39.756 67.6277 39.0094 67.6277 38.0761V36.1563H55.5389V38.0761C55.5389 39.0094 54.7883 39.756 53.8502 39.756H53.3141V50.6082C53.3141 50.9815 53.0192 51.2748 52.644 51.2748C52.2687 51.2748 51.9739 50.9815 51.9739 50.6082V39.756H51.411C50.4728 39.756 49.7223 39.0094 49.7223 38.0761V36.1563H48.8377V38.0761C48.8377 39.0094 48.0872 39.756 47.149 39.756H46.6129V50.6082C46.6129 50.9815 46.3181 51.2748 45.9428 51.2748C45.5676 51.2748 45.2727 50.9815 45.2727 50.6082V39.756H44.7098C43.7717 39.756 43.0211 39.0094 43.0211 38.0761V36.1563H42.083V38.0761C42.083 39.0094 41.3325 39.756 40.3943 39.756H39.8582V50.6082C39.8582 50.9815 39.5634 51.2748 39.1881 51.2748C38.8128 51.2748 38.518 50.9815 38.518 50.6082V39.756H37.9551C37.0169 39.756 36.2664 39.0094 36.2664 38.0761V36.1563H35.5963C34.4705 36.1297 33.5859 34.9564 33.5859 33.4099ZM34.9262 33.4099C34.9262 34.2365 35.3282 34.7965 35.5963 34.7965H36.9365H41.4129H43.6376H48.114H50.3388H54.8151H68.2442H72.7206H74.9454H79.4217H81.6465H86.1229H87.4631C87.7311 34.7965 88.1332 34.2365 88.1332 33.4099C88.1332 32.5834 87.7311 32.0234 87.4631 32.0234H35.5963C35.3282 32.0234 34.9262 32.5834 34.9262 33.4099ZM58.8894 7.62589V7.89253C59.7204 7.73255 60.6049 7.65255 61.5431 7.65255C62.4008 7.65255 63.2318 7.73255 64.0091 7.86587V7.62589C64.0091 6.90596 63.4194 6.31936 62.6957 6.31936H61.6503C61.6235 6.31936 61.5699 6.34602 61.5431 6.34602C61.5163 6.34602 61.4627 6.31936 61.4359 6.31936H60.2029C59.4791 6.31936 58.8894 6.90596 58.8894 7.62589ZM75.1598 25.7041C74.865 19.0647 71.2463 9.4657 62.2132 9.01242V25.7041H70.8443C70.7907 23.4643 70.2278 17.0649 65.537 12.2921C65.2689 12.0254 65.2957 11.5988 65.537 11.3588C65.805 11.0922 66.2339 11.1189 66.4751 11.3588C71.568 16.5317 72.1577 23.2776 72.1845 25.7041H75.1598ZM47.9264 25.7041H50.58C50.6068 23.3576 51.1697 16.9049 55.8873 11.7855C56.1286 11.5188 56.5574 11.4922 56.8255 11.7321C57.0935 11.9721 57.1203 12.3987 56.8791 12.6654C52.51 17.3849 51.9739 23.5176 51.9203 25.6774H60.873V9.01242C51.8398 9.4657 48.2212 19.0647 47.9264 25.7041ZM47.4707 30.6902H75.2134V27.1439H47.4707V30.6902ZM85.4796 36.1297H82.3434V38.0495C82.3434 38.2361 82.5043 38.3961 82.6919 38.3961H85.1311C85.3187 38.3961 85.4796 38.2361 85.4796 38.0495V36.1297ZM78.7784 36.1297H75.6423V38.0495C75.6423 38.2361 75.8031 38.3961 75.9908 38.3961H78.43C78.6176 38.3961 78.7784 38.2361 78.7784 38.0495V36.1297ZM72.0505 36.1297H68.9144V38.0495C68.9144 38.2361 69.0752 38.3961 69.2628 38.3961H71.702C71.8897 38.3961 72.0505 38.2361 72.0505 38.0495V36.1297ZM54.1718 36.1297H51.0357V38.0495C51.0357 38.2361 51.1965 38.3961 51.3842 38.3961H53.8234C54.011 38.3961 54.1718 38.2361 54.1718 38.0495V36.1297ZM47.4707 36.1297H44.3346V38.0495C44.3346 38.2361 44.4954 38.3961 44.683 38.3961H47.1222C47.3099 38.3961 47.4707 38.2361 47.4707 38.0495V36.1297ZM40.7428 36.1297H37.6066V38.0495C37.6066 38.2361 37.7674 38.3961 37.9551 38.3961H40.3943C40.5819 38.3961 40.7428 38.2361 40.7428 38.0495V36.1297ZM61.5431 41.0358C58.8894 41.0358 56.7183 43.1956 56.7183 45.8353V50.6082C56.7183 50.9815 57.0131 51.2748 57.3884 51.2748C57.7637 51.2748 58.0585 50.9815 58.0585 50.6082V45.8353C58.0585 43.9155 59.6132 42.369 61.5431 42.369C63.473 42.369 65.0277 43.9155 65.0277 45.8353V50.6082C65.0277 50.9815 65.3225 51.2748 65.6978 51.2748C66.0731 51.2748 66.3679 50.9815 66.3679 50.6082V45.8353C66.3679 43.1956 64.1967 41.0358 61.5431 41.0358Z" fill="#F48C06"/>
</svg>
